<mxfile host="65bd71144e">
    <diagram id="DYv5r-ZSHpIR24BlC2xe" name="Page-1">
        <mxGraphModel dx="1359" dy="681" grid="1" gridSize="10" guides="1" tooltips="1" connect="1" arrows="1" fold="1" page="1" pageScale="1" pageWidth="827" pageHeight="1169" math="0" shadow="0">
            <root>
                <mxCell id="0"/>
                <mxCell id="1" parent="0"/>
                <mxCell id="4" value="" style="rounded=0;whiteSpace=wrap;html=1;" parent="1" vertex="1">
                    <mxGeometry x="90" y="160" width="670" height="470" as="geometry"/>
                </mxCell>
                <mxCell id="2" value="" style="rounded=1;whiteSpace=wrap;html=1;fillColor=#dae8fc;strokeColor=#6c8ebf;" parent="1" vertex="1">
                    <mxGeometry x="115" y="177.5" width="615" height="302.5" as="geometry"/>
                </mxCell>
                <mxCell id="3" value="" style="shape=image;verticalLabelPosition=bottom;labelBackgroundColor=default;verticalAlign=top;aspect=fixed;imageAspect=0;image=data:image/png,UklGRvZFAABXRUJQVlA4WAoAAAAQAAAA/wIArwEAQUxQSKwjAAAN0MD+vy2nkfTT0dHVVam6VF1dU+P2uCtux3EcN3EchxBDzJsQAp0XISHknQBh3GmGRV6EUIQQYi2EEMuwboamCeH97kB4E0J4xSHguI1DHLfbcRx3jaemtqampqZUKl3dvfrvA/uec88tu3prH46ICcCo/0f9P+r/Uf+P+n/U/6P+H/X/qP9H/T/q/1H/j/p/1P+j/h/1/6j/R/0/6v9R/4/6f7Ty3MdkUdoqiNMWPcZl4fYHqUK45yZDOhv/zx9YBXAPwUHt/j8WwjnLLYz6f9T/o/7//+NnzjAqgPvuPgcooqEA/kzmlx5Z1PI9K4SLL2shaRwF8ilD1v8npaZLy1qDMQ+TZWWH8HBZlkGFT9ozyzUmiZIbLt9VtGKSNGpbFwUQWD1BGt1sihU8lb4N6azkqbUZAC8FIV2bFPsYwMwqSNcmmAetQqeAJg8oMRIA7oeTD30N4CE4qD34dcETiDnwf0wSK/T7P1h9WauwL7g+u63XKuDjbxglU6/sTxfu1cwBxrxdvvWyVaAXagAAXr/wyuFsYd671l1AaJ33/QgV3rHwHAz9zLPNd6jgTl8Gm2zKkp2XrUK76jI7QPmqkxfMwjrWAMHi968cp0I6NjYggqL3T1y3Cui0F0kIgTV72gvoymogsWrl6kjBHJsBqZWvb04UyvnnyMErf9VMhXGsNimJLeq7TAVx/EnIDi3dFi00IueIucFTJw1jq/daBSdxs8SBqH7Xn3/GHPjTXd/+wgHq5W4o5/LY21/dKTjp3/asLi12lt21Nz1BGrUE7zrVPYVLa/3vzA0z4GB4frMxfGmaadFIjWnMtP5SQZe2QrqH4e7Ypm4mCxruzmy4A9mkw436g07gl73dw1Xxc/cHst9fumONxPi4afdosWtXs3+ZABKGtKHNBEkb0kxaslwa9jjibWg2hqXgil8C8N8/Lbm6nUZc9SsDAMLTi9ZdMP4yMfIsMR3BhHTncBRstDAon7LgwOURFqtdhsErG2/ttv63SLnlTOkjHw1DbClsVi9bHR1ZVazE0MHln1+k/Esv9pOszIBxlx72yGLJmHEXCxQzWRRLEADmL9ZIEsXjdJenxEuyUlFT7D44/NIpY/ipqraD8LPbzZEUW0g24FuyK5F3sV8/rzFJRPv2GoDn3ReZLDL37L6ramW5vIH3ewEUbyphTFZ0XScBnhXTOJNE5tbjJFTqVFmwddhhUyxbmNk1MJLyz4LtuuydvCv0OqQz3wunI0DFdMgvenFXAsB8gnQ+9mf7AMyDfF5z3z4LGFMD6Sz07JGYUNgpPHvWGm60B2A/bMRHUtVZe1rtzbzLb8gDfKYB6NwBeJEBEICToTiAv3YAKIoTEMrIA7zIiDC/Y+P6EsMN8wv4tMRIKmzaw9/8U97lLDEAIOaAssScUJEgyn2OlZuR4QZMANwaSemWgG78RWGk6iXHQoHuYafAlsFx9shXhW0qVvVrmjcYDAa8P+Kaaf5rNp6IpQzDpAIxC9yx2sWhkIcwuKb9xBMKes1E7/edXYmCsCw8jvmfgbg3VDLm3tJAz9mOmFnwZaUDjknXfEUTntDaTnQWelEi5Ja7tarZT3Xsa7cKuhAJuwlgvtcev3IwU9D1xwfcBaCsMdjUZRVwdYc9bgNmvb3volm41e8Nuo9VvLl1oICLhd0HtGko3E72jssFJ1DATZ88ydzXkyzkQoe/1HX0sVbQlb44l7kteo0VdJmfPRp02zmOwu4brM5lPadRSM1IgrnrTd1V5i6tgMDiTjACQGBOkHN0FzEnLA7A5MwJgswbmZmuau1AAWE0VsPktRUBGIjXyqMO/a6v7vfJy96+64uHvPIyXzMAXbxCHnX7pKT3LQi4KLIDhYTZVT8vlpb4AQBim+/1S+v/J9x9/ItHmSzzD567rp54VJNFX/sAYGDjL/zSBv4rpNLV9HMu2qgVFKDzQFSahrupc0damsYGSR+/RrI0hruNw1+YshjHoG170tI0JoUV1ffAteZuFBiSRdKGNkna0JYFp8mE02SRNLnFc8dn4d5ztwoNRto8WF7zfBguts6cRmE2A+fcV1rzcNCw4Ga6eJ65gXHOuebnoKxhWJZFlCsY45wxxkEWkWUR5QjGueYr8gU9OrOyqUQ0bZoW5SSm+0u1VCRjKsIY54xxRkRkWRapxThnlgmSxDlnjHHQ3ZZF5BALFXtkEBMgBhBzhJgAMYCYI8QEiAHEHCEmonn9oZ8WlQTgeuvwFajPiytKHygpDsACI8ay8ej3vb196VwQLC0tu6co4PMQYKZS8eh3fb2JHOCtLH+krFTHoNzjD/rMSN9XPT2Z3MNnPT8W8JkXD/QowELlpfeWhAJeDczKJpOxH/r6+k1Sxjdhaokn/s2lXkuM+ctLHygq8fp1AiwjlU0kvu/vi1jy9JoFlYYpg5EAI4CRI4wEGAGMHGEkwAhg5AgjETINQi7M7v4OijNvcf30QNLEkFzXAsXh+0pC/M4nXUnTRcwTHDe1PJshDM48gUBx+Gchb+Sz1liW3MN9FU+NM7MQ9AbLKx8K8WuXejOUS1jZ4hAAsPJnHt/YajnCPCVjnyhJZjGk5g2GSn5eFMDNz7uSpgq86n0TQPFD5bd+k7bnCdZPLM9kCYMzzRPwFhXdEwymPr8UycjxvzsZeX2iyQO1WWjGE2HIZB5/uH4q3fisldzinzG1kiDR4yuqnVrS/cW5pEtY8XMTg5DsCZTNGdd35Uwqd+izFmBIXrFyS7sToVkTKyCRe/2lk8abHZ+2ms5NWIZBeemrng1JG74Jc6ogVfP5qqeO6TnSYknwrTWRz1vXmzmU1iqfecKAg9qY2eMzB1pSpJ5W/PKTWchnxVMmVn16tM9UTyt7u86Eo76ZT5QfOxWjnMAqG3ywW75kXVqWVjF/kgH5Ws2UidaR6zFyJvQ+hmbv/GgLDcLDs5/PwMmiGS/0b4mQCHsDeX3yw6+hdtEb4wkOM/+0Z42dN5ULvDEZTutl82uv7Y2rFnxrIpzXq94OHTpn5gBt9qsE+3XBM3JYySuPEZxlvgnz2Sf7HeEvWzbA32jpuSvwymSC0/5XHlvbJ1IzOZ+LX9zBmVKBl14nqOibsSS2sdtSKTB3IUHF8jdn7fp9ghTyPddAUJLXNfCmLstlvGwtQVR74lpGRtHcNwkKavWvFjdfNuSFJsJ20YRTFnzPLSQoyOrfW9slMJvyN+PcCS+UZhVLDajqnfvk+aOmMqxiqQlFWcnS4MYeSxVW3MihrD7rhfNHLTcx/vIcSCxNSODVSw0oymfM79ueIFn+oD32wPdm+VIGRWsmbiV7TyJPN/vOnIXi3pdeh8rVy80NvUwN/a0XobBnSuPJDzNqsJcWQ+nqxljzgItqGwkyNbKE/O9Oh8KhRRO3XDYleSHop3mvQ1n2WkufLb04H6Ns8ubptAa1mfd9DsXfmN4FJYuWeKB2aKneHFHB99oDUP3XDzf1k0v8L02GXItBkIVXGFC7dumt/VmSwkR8y31QWKtptaXxvCsd7e7+uh/ql70P5VkNlAw3EVT3vDF+fQ85FljFoLw2pWHjDVewsQsJkqM+AVazHMqHGvW1SSnC9VVQmQXjtvJkq9cEyEikY//Yn9B9HOrzMY2knqLjlsONU5ZsaSWHShstuLG6YXMvqRd66UmCZPMzZo/XNcCF+suPb+pWQHUD+XfH6jQAzuHe6uXI0dXvwZ01S3a2kyOhlXBp1eSdpmqsutGE9I5e2J+xAK5kz8xZE80x1Jd/WSc53M2qGpGjaxvh1uqVW9rIgdAacgt7+WpULRZ893HIv3oAtlldA9xa39DUlVsGovlX+gZcHlxFOapkKdxbvmxblzx9KcG1oVCnWmOXWJBunjkN+2OWwL1T5qxL55TDsG+RlgddZi4LrIODZGRMcK/OXRHcAPlGMpmxSPP4gx5ZGLuicUAW/zsT8lOJlGEyzRsI6pJQ2a1SydKxkE6daznslzTBQbJMi3GNy8Osp99PucLKpgnMp2sCp/4sQMTzH+ME3M3/1pBlJDs7/pS0GIj5wg/XFOtMMa2BJJnJjmu9hsbAiCwtPLU2qElB1YItCTms/jFIzkav34qDMQaySKt8tN6ryeCWOlr9mxakZ/d/wmA/sJxkZdPtXd+lDAvcW/LzsWVeTQ6b59ttKUZGrPOrvjQDQN7wgzVhDx+M2o4xASvry3/aTZdNGQ+pFLn45R2GQSkd77vdW1T3dDVX6pUgpKYvXLnJMLhlZKLd1yI1T8wIycBrP9kip6IBcrsvfRrF4GQZqWjHVwN1C8bqYr1QNvx6HeS3btIguogglXouXutluJuMZP8PHah5ckJIBrTGb8+QStR5+fN+DE6ZRO833Z6x08cFAUSPXoOoBZ730GnurrLXIdOK7OrQGexn2ltuBRaO1dUpWQyZqQtHfAyClLh8bWDOvKAEvqj3MknQGkmG1X/wKx3C/ZfPexaP1QXSEVU8kxabkJ788DaDIJv0IGQa3TsiOoNtq+/GtdicX4aZGAKN2wbUMTv39GkQNLpbbiXG/Iy+6/dA3NTynvQ5uHspyUju/YRBohW7+lHZkgpVfMsg8/oOBpmU6T4QeW8KF0Jw6baYhFl+SEzv/gRSKX79UGVD2N5FryIlS8OQf30Pg7B/GWQONHdCIqX79vW+MM8rhsoXNmdViWxvh0xK9V39R8hNBvKe48xVbGw1xK2bm3TIThw/sWCuV41ZfgmJ5h4G2WbrtvCKgBDqxuy2hMoWQGLrFh3SE4fPL52m2eg/wZTwznybID168EsGYf4KScgcPsYh2erZFl9Ry4TwknFKDePcDg7FE8F8J3kFrvYthDh98DkctCKb/as8KngaIB7ZxOFkfO+fG0uF2Jtfdgs9QxIu7mFw0Ore9Mivh0o1M6hYvDQI+W1bNUgsnwrxxKYs5JNxfd8Lc8X8DZtMFYz/8h2Uz3jznavMXZP8Ypm//xfmBJDee21dpXP8FVOs630Ghw8fa6oUQemcnYZAxdMQNn5zGw7HtsQW13gAZDs3cijonbsQ8qPbWhkk8oUkdmcNg6PUu7F4pUcE1RM+sJwbWKNB/VhRvnMArtbehjBt0OC0demTFcWOBZ+AcNcWOE53tjVWiGBee589PtcSSjcTHDcPn9fuD+vR21koyMJLNUinG9t0SC2eBuGuTQxOpz7gf6uL4O0r/Y5FN3K48F9/kufcibqKzTCEjL9ncJ4uHVpX4tQsEoqshoLUsmNdqUhw/nbLVslEiJobGBSkgdbbEQNK+ua+CfmxDT2Qqy2BcNd6KJjdZK4Tqin92KnEKgY3xv1aXmPuY67yzIHw73+AinT1y0bdGf1FiCY3cRWA9o9W+AUwI9JLdqaRCB1PIZfyqiUmpJtX93BILq0QSq/mKsDYHZjHBPD6ybQz2U0croz5PHlNTzdcXVop1HEMalqHs4uYI/UZoX/gUNP6fXoREygruwSbnhcgeucQcqlv3vOQP7C9G9KnWCLGJiiaWfv0JJGKksvO/I7DnRl485ojzF0zIZrcyhRBpvnpMU5oT0K05VuoStt+MUWAP3/SHIrVGCLZzcihWsWqLKRnL+zRIJ0vgOipuCoY2LbCL6BPvZZ1ousjuDTFfPlM/w24Wp8udIpB2diupV4HfLUime1MGUQOLdfsYVyiz8YEEjmj5RDPW09AfrQ5BgfL/CKpLVCW2tsWcXuo6004kGmGayiQx1gHNXdVmyIDx6DwBTbTgTEQvWRA4cupuQLalEs0hD4Vguk9LHeUbzAhPXNxK4eDbDYJWL/l6sDaMblKoBLdDpwzXZMxgnlM7BpczcYYImc8KqWOLHFgkohxACpb+54O2sPUW9khAmGR6xpyZ70X0uMbk3DU8yAEB25BYRr4YoGA9ugX8mgnXGtEy/KYD+Fu7XEIpo9B6Yv6JGneR0Su60rhBtULVBiRIeogmNmHYTBzeDscLgqKnGEqAQfryuxh0g1L2mWPe+iHe/OXvj+4rVykg6mFQy9osoqZAH3G1Mp8+rxAEYsOxh4R6abcR/2bNTgdhqB1GmrHO2YKhI24LPMscw+6qvIW2qe5LBgQoI+g+PVwqazSjIBxAYpfmOCz5y/uGkwvF7nOcx4d3QXnq0UGysaqZRz5G489X6hXVrQbLu4r0fKVgUtweQUE4xHV+tI1kljYEujhqqW6JtjDL74dLMhFPkHuNwwFfiFSvN6rFpIQ9ASiJKlTc1MiU5qn0E64vUykn6tmfDVR1r0QvAHVrY6xAhU9Q1gCZlfuY6/9ZKvpFCsX0fxMMWEtGIXkL+Bmq6cqT2ntcd29Il2aamirZZJKBKzbyuHre732SmLWIH4S6GO5D/xX+K3pkNcn4nr+03+25FCHq6inMk/ZwdzGAiJ/gvL9fr8cFAmkU8pR1OezFzAzgxkCvRgOvUu/PueQn3IMAmlJybS7vr7fk5e09MHtuk+kVz0jVSSH+URIOSQ1rz2PlhokaAn0DwsIrPv0FDmTzjUeg+TEve6Kev35SGoPXK/pImn1rIxfDkQMqJ/lmj3GrEF8EEwODyhu3NVFTniNYSKtuwq93qJ85LjuPk4iCfUo45PDIGi6gen24EsPwkSGzbLVG7uc0M1cwwhysy5LJirykMQ+5F5SD8TkgAuQC8QZDTI8EpgQahauTTjArVwj3eTusr4an3+Y23gO0g3lmA7JxOxpMJXTSGRIYgLcykXGUX0eE2KTnm5KyjM0lmMsLgnkLtwYq+UdbXeQA4mJBJLqeQTIHIyI2/OQoZxHKDNY0sftBRM5qHOrxh+fKwS8/Iv12WEjostye8QqyzeyW5ALTcsjEIorxwMC5hBI++x5WVo5vylA1hAe3V44knOMU8cYMpterBPTXvP+zpCV9uaYzC2WmzJd4/IM2u3JCUY6JHDf96RaCIIZPkTGa8/nG1CNFWUEzOxgaU2gstfKLdS7xgMAkaaF44Sgr/zzQVNSRtNyywXkaOPrh7X8InICOdHK+AUqI1nVKkWybDBKBu1p9/5RNZRaAik+WIp77ZUYidyy9yQG79y+JigEfcWXl0lOgvtzSvvpXEVtFf68IrMOOfK7+0RSMcXYeJHkUJFSe5h2lRTj4yEYxeBxzW+P17Xkks6VHENSe3NTiRCKm7a3khQjWpZDMhf2IWd3eUrziqO+XNFfKhBm/Yr5K0QS+hB/vofZG5MaUMxbI9I7RNIssofpn5s55DiDTbr8+UqPEEIrd3VKQU+FgJlyjZXsPOtF7s62zMwnevcgV/aUcXu+yacVqzFFutlg6C3y2vNOOUdqTYLo10Nke6sF6iORHPLfYNs8+t1KjxDqFq+OSvnmQYHogoRboCG3Xxmv5w/JTciZUbPUHmbfSKn1FES/xuAU9QTssae+TCrlfVokMzAE/vCIQHmgNYeImh9gkSaEsa9uGpDRFQraC+s3XJPre63K/OFDT+4wescIhKsuKOV7RoRuDoF+rdge6tN3lKr2icSModoqvfb01/eYuQrZzT97jQlh3kNNhoRottweW/CRMTKJ99TnDS3XkDvNrx7j9rRXz8YV4q9AtI8Nle4eJ+B7daepEFsM0V59qHhfnT2MC16gXIVU0/SZTIi9XPKbrFhioMYe6o12GpEYn0/U84SBbSyHWJ2lfnuYxK4qFJ4u1IKh6cp0Acw0ryo0plzoCzaU8dXjzJ5n/olUzkJq3fxxQtCW/ctuMePW49xe0dQjIxNcLS/JD7JrGXJpW6BMQG/cFVWGNUA0e80G2gJlAr5lO6PKhBohal3A0HS5OmQPv/Tvz13oWbe2TAjeVX86aIng4tiAPfZO582RSbpldl5ABz3Iqan2aQKomrrTUISNqxDqT9lJd0wSwITy/aQIe8UU6uJ2OnmVAGv4vJNyFvVtWREWgn/lyVYSSbbOsgdtxa7oiAQnJ/vzgUtXkGOPPekT4L/uuqhI2TIIX2R2sp9M9wmwxu8/JiXYtMcgah1hNpD56E0BVDQ0JXIWcO5kU1AIxet2tJIADj3lt4eZj66nEUmnWZsHdB1Aru2LTBGAZ9XJdlKAeZeRkHkCtltCFQIIrNjXTQqwMa9DONptC9eDVQKYMr45owYDSD1cutboF0LF0vUxEmhnNQLstcwpSw2v18dSaYOGi8SVF0d+yXUs56TPP+0RQPWS9QMK6O+bEL7utZc8/6oIylds7lagvBHiVzlsD1ybzwXYuz/ZaCrgqy71WbGbceWsvf+yXBNC7eJ1UYH4iSUC8DZ9ck4FfcKCSp0ZnWfPWcMEfTwlMNLLbODIuXQhPEYE4xZv7nKK+ZaaEE4fYfZwpnSMCOoa1vdaDrHq5SSWPQD71uFJYQHof/vjrXGnvM8ssAyLBYo/+12S1IL5AVvEhTBralPaHs6FxgqgeNX5S6Zj/vfDAFA04Yno5vjwgPj1eSO9/+xFDk4dWsxFMHP+xm6HfKsNiLfHIdj/5YtchNUu337doRmvQuI5rwAiny4Ugf6rn6+POhNcWgIATA/PD66NKYb05oeeE+Pz7tmasZc58LpHAOHVZ0+RQ4EVFgb3vfXjdTQ84MDU4hGdefgfkZMvaNOEULfywLmsA2zCcoJ4dhtErQ9nlIkAtauuHE04EHx5MiRGDzER7C+tF4H2zOtbr5ryeOVqwpDsucfXZBRDsmnic0Jg/wG/MW3R8eAUERSvSW+KOcHKGglDa6/Fz9Hw0GbVjeguXkFujh9p4EKoXBbdlpDmee5JyDznFUJi31IuhMAq75YeksTKl2ch8xSH8MBH73ERsNqGbz9MydJeeRp22SzrEimGyObFVULQG344RXaQ2tWgi8D/1v3bOxyYsoRgV59/Ij08ZHcu0UZu1LILOZrOJd8QQ3DRs7tOxaT4pjRAamQHJB7m88Tgmb3i+qFOUwKvensCpN45C3E6nn2NiQAl703bdW6AJPjqlxHs+57/KKMa+letrBGCf8PZU7Zwve3vuAjYMyuvH+iypGgVy4ogWBeNDA9oS08buXXsYLkKaJ5eJQaUv1d86/cJg2wx7p02B3KtHUxGatt7PjHA987E2Nkbhkk2GPfUPh0mSM1u4xKAzdOrxYCKhpLbv48aRDaY5qt7AeLVvVnl0LlzjV8I/hWnW8mOufOxWiFA/9X47mO9BgkwvejNKggHtegwkd31qn+kdmcLcnjHkbWaBHjGPjup+/OuvoQ5CPeVlk2uhezfJyH1zkcrPRLAwjOeD7T/oW8gaZjgeqCk9LEqgmQ6CLmdO9f4JUCvfnpW5FbnQDxjEDRPsKTs4VqCxIDhAmo5tC4ohKqV67vtYGBzY7EYeNncp6OfdXalaAjmLRs3uQISmWYME3Sd14/QejaxXIaLkbe4BACh+sklfjOeyJLHH/SnM5DevwOSd3teknF35YSHQ37NskhnVsqA/JYvJaHl86VeCQB8dRNL/R4yLaZzM2VCLjG4kD7+ZoVHCBXvbe2xg9bzjV4xAN5JT5QEE33/nDIIvqKfl5gGpJpZDJeZPW97RmR9m5DbjQ2PzpYDaP5AcUnQw+BsfANkpzY/PVYSoPu8Xq+Hwdn4Osi2fud5Sw7AfD6vz6fByaTuBph707/ShTDjqdVZO+Z+eovLALRAqLz8p36dwckIHzZwIzpvJNa7muc4xJsW1ElSM7NWk4aB9UuqZSkZXc+kIbPpnte4HBVbva6AsfmvX9OEMHtqU8oGrA1/9a4cNS/pw0f6wPzAyKtzC3J/ZPN75a4xfsshn9oOrSh2jbVWg4OJzeN/6ZLMFeYOZDc+/IwYe8PabweJzZNnuiV9BMNoa8ciNsKi1o1sGKC2LSurXZLdyJkDwNWda8tcklyrwdHo2kffYW6g4wxuTax9fpoQPEsPDNhBaunj7zJXZDYx9Viwutzs7Ui7gfY8OmaE1bKHYTikjh0rylyR+a0OZ+n6yWWlrkiv98Dh+OYHXtbUo0u34FqKb3y9RghFtRfIDuLN97+kucDa7IPybMzybGugJru5xwXoObRKG0lZR09gmLRa1783ywXxJjhOZ3Y2jXFB/xoOxxNr+JqAapmDV+Dmjk1NYSH+2B8MW0i8H1gRUG5gPYfyrG7x8v/kTRXdWr+i3wU4Zz43gjL2fsuGC6B745PP6IpRf5PuHHBn0wuzuWLUvo1BwezBW8uqmFKpdRzu7tzZWCKCYEYAxoffrAwzpehOswb1+bJl95z28sOPNjduM1xgbJhfOWLKbDQwjFJsbaAxqNbxfVCzffPD7/iVMk4dgZrWqT0vztMVOrMd9jMephw+vrbOKyLROHVg/stMoezRE5BtgdszNVtF5u/qfMsmnP+Pn+26E3UBeg6s0kdIPVt0DK+pg1ca6jV1+ndFmSJIb+5ZVsuVoYENBGX7N6Xfq9HUoN4dSSbQX6zZiyhBZ24v9wn060JA5zY0VDFFzK6NPkhPm0F7Md1W+XU94H080eKJPGMk3WCdyrzGRkR31jMMt+aNHeUNRYqYFw5xqJu9vvPxNwKKGEc/YlCXMhcP1bxeqkLy8GcQ7goFbSX7lYD5AX5lz/gCEilz+JMnXgooEdveAQfj0Rpb2a+YLdKI4AndgU5wJzU9Pm0EZBw8ieE4tv/80/OKmXOZGzs4g8o0sP3m2zOKFEjfaPZAbYruPz3j+SrNGSty6qTGxNKHFnIbdNSjBrJbf7SI22lNyACob2v7gllh5pDVd/hTDifTR+b77HRFYLtrNutLH4qd7Hqsze+S6Lb3ikc86eYkhmerZ9fAxDe8TrUcSjGobnZtSy6Y5XHIvH4sC/Wt+O7bJc/Wc3nUfaCbQyYdLp1go/csVE1unj7FxsBOSCarZ0fskVdKnKDuI50cztLl9FwbyW2wn+xrXn062P/phPAazR1A246m4MiG2powfFs3j12Y/XxVUJrZd/kIwZXZ9s3dc58a45Nmdl3fx+FOq//iicTsiVVFmpgV671x2oDsyKplY9lgbc1QN7Hi6blDRFbDQbPjxMfh+bXlXinJvpbTSThvrvrpr/XBImuYgLV+6+oF1bzn2N6LcCtd+rZBH8kYx0+zYQyg2O+/sMbMKfdyJmIZ8ZbP0jrc23/4No2fUq5pTMQ0BlquGRpcbHWf+SbjfWhMRUBjjAEEi+LRtm8TOoeDA6see8nPYaUvneYKIbr+/rlBDjIunITDmRsnY/zB2qqAxjgYACKyzETH7W6mQclkc/zVas4oc+k8g2h00+snSq3O5QNwr/kP+DUfufSu0zHcU7zn6qdG1X0VRUV+j85AViYbj/d915WAy61Y1yc3WfkDZcUhn1djzDKz6WS0/4/dabieUpHer7r6uT/IvZqZNVMJYnC8Z9uNqhBSXRxKU2xD25gg0l0czhvR7i/bBzwlId+PfRqM9L8n4lGTQd3M0X1U6olHGSRGdl4NWVG4Otv8Ny9pI5Tsx6cZRoTmQOt3/Zm0Aa5x0yTu9WoMOdHo6f4mmsqYjOlkWaR5fBpyJpnxeNxMm1CWIjdicCFFrsahcHqgL5b697QFjTMob3b2ZiA7E4PbU00PvDMy6d6WxsjRMjJZI5sxLORYomw2a6SNLEaC5AYApNLdREQYeSY2PPiyNvKIf3ySo2A2s/ah10YadHOnB4W08aaf/p1nRNG+q4ehsDbTbC7zjxzi+29xFNymP7i1eswIIXr8GApyrasHXpyhDX+UOHXWgwJdat/00KLgcBc//CkKedNbW5fV6cOYNXD8Ux2FvUbblor3iocr6j7WylD4mzh44tm54eEocfPQAEdBsNW3s/f557zDTXL/LYbCYfPOlo6FsyrYsEHRtn3tKDTu395TMb/CMxxQuutEr5+h8NjoO3M6+NSkylyXaPuiBYXLmRvne4qenOD35ijKJO980hvkKGjOxq5+Git7dEKllntSHe1fRzgKoamv44vObP1jVSE/yxGUTgzcuRbxayiYJjMduXw74y15sKbc47p0T9c30TQKsc1If+c3nalwzX0VgaDfo56ZSSTjPX+6k9Q5YyjQJpCV6O74IQZooZ+HywIhxsDAnCAQiBKp/oE/RzOAxlAQbqWTiXj/D5G+rBUIBoL+Hwd1j64zTWcawEAwyTAt00wbiX/LxpKJJGMoUDeSiXgynv63lGVZFsiCxUBgxMEZY0znnKEQnsiyTMsiyyIijPp/1P+j/h/1/6j/R/0/6v9R/4/6f9T/o/4f9f+o/0f9P+r/Uf+P+n/U/6P+H/X/qP9HXw1WUDggJCIAAPCpAJ0BKgADsAE+MRiKRCIjIRJYpFAwAwSxt25dXR8/uK2bGz68oTOmTNIcrDv1DNmHP4r+AH6AaEBrv4T/QD+Zax7cvkC9ANIaz3+Z/gB+gH+u1wj+a/x38AP0A/4G317P/mD36H+AH6AX5Td/1X8df3u8myXHK/xO/ov/v/wXz31j+O/0j8i/13/f/6Dqkz/epvpN91/mv7Wf2v/////7j/1v+M/id+///y/G35w/qvuAfxf+D/3P+Y/tz/a//////BV/Lf9l/ivYB/NP4X/rv9r+9PzL/3T+O/mz/D/oB+l/sAf0L+I/8j/ofu38tn9m/7n/k+Dr+u/6/2Af5D/k/vl+VL+qf7D/Bf1P/6/9n7Df5J/b//d/iv+p///oK/lX9P/7H7Sf///hfQB+//ue/wD/e///3F/4B/Sv+9+f///+yf379RvwQ/QD7GfU/qJ+AH7GfU+8A+yR97uZdcmqx8J/8XXEz1v/95Zn0IsDbUUqjNtRSqM21FKozbUUqjNtRSqM21FKozbUUqjNtRSqM21FKozbUUqjNtRSqM21FKozbUUqjNtRSqM21FKozbUUqjNtRSqM21FKozbUUqjNtRSqM21FKozbUUqjNtRSqM21FKozbUUqjNtRSqM21FKozbUUqjNtRSqM21FKozbUUqjNtRSqM21FKozbUUqjNtRSqM21FKozbUUqjNtRSqLxvaSeKJ+Z9xb/Qy8bailUZtqKVRm2opVGbaewjM2Rj1FKozbUUqjNtRSqM21FKozbT5hKVFUnqbHp2ENWCWjbkF30KM21FKozbUUqjNtRSqM21Er8016b+UYP4cF5mNBdTLlO1h1Bc2Avk/zCzByf6GXfHmiNtRSqM2dYTIoj0tqHlB79y5h6IZ/cQat8FI+P+Tj4s87WFb1vOyWjUTX8xJJeHcdaPkuj+CKdaVRm2ok5cr5UaMCrn0Kk+SFskei7XeWSOEZzKXfkTMw25b4iz1ZAt486Md5vxj6kY9RSqL0+HI3cOZl421FKcjIqx7Od8VilaVpWlaVpn/RPun8ak4HOGZl5rr927AX0/GaiPa0+nTqFgFfd5YWMdyqCVxCC4SKbWm0miZ9Xh7JMnTpsm4tEro3UmZFHnksX8iJan6GXjbUUenhde9CA288hA1M0TV+OiI4yQj37Xw/JeFLVt+id8FwtV8TjXo8yNIGcE+soSxTSatAplA3paY64P1qM95HsGthfFv9DLwTULwNGTQ/DhHrA9IgBQAYxFJ2qD0MQ0amq0w6XGCHgXK6x/z2k7c5AvUVV1UNJo8kCjmVRm2olm01M/IwORR52saQdU4khY/jdJxvo0ufyKTJ5T4jdPOwqsXmfxFbToSBbMmDcC8XvKX8nA9McKb80+zu81E4++/D6Dc3KfvG2olnJvkTTQSVJx9KzbRIlKc7IIZkYOLqhjIzAOBFyQyaz6vckON5Rx8PTg0hcTJXH3ERt9sAFRqfS4pSmd3jbOIBaLz7h5GO1DoR9m55sHSUjHzKnQoA3OlI9YC/qShN0NeqdNrhEuCna6rzwlt0xvqmwf0lghnGhXbxN8VqVzKnUIPRvwZ/Za89n3Fv9DLxtqKVRm2opVGbaikNhFA4/hCopVGbailUZtqKVRm2opVGbailUZtqKVRm2opVGbailUZtqKVRm2opVGbailUZtqKVRm2opVGbailUZtqKVRm2opVGbailUZtqKVRm2opVGbailUZtqKVRm2opVGbailUZtqKVRm2opVGbailUZtqKVRm2opVGbailUZtqKVRm2opVGbailUZtqKVRm2opVGbailUZtqKVRm2ngAAD+mlwAAAAAAAAAAAAAAAAAAAAAAAAAAAAAAAq4gu+ZAFB8aCyUjB+iM5uIwFyolWxerL0O02YQnnLE7WR5BykHfvCZaWWc+N4Y91ob3NmI7S/5S5AzGeUlTNUBtkyYAAAAINZgNQm7DKs+3BGj50lC++s845AAAATHHr8wKFReuXCduwGaolLqOPeepZ+pel1pO0ieywugFqeMmfwgLJcXjH6XJZARoE+Mn9s8xMfl81NQHDLYS7R+VH8P6/Eib/QOzicttdOEZ42zYJW5KQUhnSfOSfErFpfSjGq6tgbEZ2PoDO3h6LEpVDXjmposHr9cBnPvsX92KayRyZC/NIUcDIMp6bp1Ie7dOzD8KJ28omXQ1XrR/U1OaDAburPQtvbp+1jdOA7ap5HTXYjvAzptCihgb0FVgAsEhSRb/35F/iODY2/29mkSEj8XJZ1XeC5ch+/4+BCvYehDUKYvDB0NZVzHPJR+s1giETpH5iRuQAAbVOSYF1pSKq2sO6IZld8P0y+3M2CStNdshUI4mtwHAEo1zLteQjfp5Bpefyq3eJ6NmawwYomIdi9Nqn202sgZQGFUW2GQsuQxvuU8dbFDzElWFqoT7BDfsdSE1DOrKpAN6YzNTNABfywpq7Fn6qBQBX6YLWm9jbY3xdSZ6q2/0AqN9IFc2vE/zR9OZGuF+xtoanwxvB3dkyE1l8nfH94CdWpuALic7fe692XkFKQb1tHtkUKdbf/6GvnZMUui5IlpGHySAs9IJMlK71i5ch+/5Ti0CWJt7ye+8ozB1OWdmtxvq+DHGHTjNt/BCCpYiBbwCsBPpMg7Pmd0VXsPHEHCXXR9/oSw8045vlcMSbs3VuoYAPyTGbrzrcX/i+zUown9nGE/d0BKSPpRgn6bs/sNAWigoPd7X1XskkyCy/BE2XV5S6JbDx7Jg1pav8PJnusgNoVzTKJSWxD06XZxYy7Sg0+blFY/Bg/SLk01E/hFB9QGyIOCUNODp3zZFsCyQELAsKGQTZriNDM1ysJrw7bcyJrw7ackZq6ZpmDgYHcNZFRxXSfSsS3B2WGaYbqx/ivNFPG5DYswI8uxZ/lgM+l6A8sBn0eTvepXk3dpsZaNcnx2Uv9B/9vMK9I4eBLikW24K1NkO9gZqMUrPC7k/IxZCauvse1IoUxJL8P72YMQFAURFmNKaoDFJbchx2spWI7v4ateQQJjP5hSH16PQC027a/dxfTwRwbG3+3sH8lXD1slXjRSwLmU2CeYlW3749JK5og6ipjfJXbImEhMVdZmaXSTjDyzaJMQ1ywud5Wxx+0bIlG2AmRTHTRvh1Lqubqgoe6ednZeDeVSZoFxyJj7CMMFfAOQi0KS3rGdBhzW2vqrHKxPyzMnM1Jk2p2BF9SPCK1mjSPKHlSRUXsF6/+Ehwupm9GLml8jM3YOVRCDZtaUxx8cDn//8/dAvSmOD0mMVN0lugKrdDXk8Uoy6ty4ytCIt8gpqz6O7B9IKdUEdMLHHhlbZ/yo4qGrDntCRqrsKRORo/44eBq8SrZ3iXny4s3S0sNtgg1aXWTtIntZb8BHb5ABzVEUcK1rkW0RBnRge0fAuICs4VAZZTrrTzAzDxRnagWC2MDuQm3HMSdAgbNZasJjsJdJ2NPpJbvuWL60ity+LbTCKCGoq4I4Hb38AMccqaxsJR8+/X1b8lNk8oSVKXMNKM+Q521AoiYRReAZcCQzYKyxGCT2/ahFay2BMoLnaiwCDVDO04ItBtarRtfbhhSjeBOA/Bc4B97FP+aH8neOCH+Cd3uRCnK8gPP/5O8gj34iD+FJaMrFwaUY/rbSJL3ImXDjhMj62+OYAzA//d7qCkqKjrlnPVkMgkfX0YtLXewtbBSb8nApTDUEfB5aQlceGnVmu7SvmNA3AQmii4L2Qr6z6eVPfl39RjmeA4ugE+V4FT/0V1lbRu4PkvEmHD9XLjcWd7uQR+E2N2L7wAHI08QqRzBeggXCTNDNwN88MK/PSSXgmmxKv8AEqQYVaEqdO/zJmhlwlI7T6JASlDhuTFrLDpMq7GRqm2Tt/XcIyXZRDjND94m6POpKJSAaURWziAAAWQAgYQACikAJKkAYCujjYW3YPUTe37sOGM9oi1sEosW2wk53MUidfahOsFH2rczhLuwqRxyV8SOHnB3B7rtfwHAuoDD5f8uqu89pmODFXPAzLl1HtEm8rAlRsbuUBhdXGUBRednmAIIZqQ3V2mHb4j5SzBLOG2sSL2gFqgKxdfklKCF0xCQ3AXwuRot+fKivYjXkAubOzRlzH0GzGGpILVATAiPqpvyCvsHO3AynDryolotkUkWinpmjO7JGF00JhLFWJ1hGFAFh52wp9S/094ZBKYXvnGp0Ru0OBxBn5ThXrI8vOXQqHWeO+/IDfXdXGx4v76WiQ9SDbVbPSFmSQ3v/5P8GVo/zcdBbt3kbVAQHPgRTPPjpZuX2pfRVzlYVHkz+3dixvqkszs9y9XaT1+9X55ApfHLgi2DQ1dvbOOUGHnQn5pw0qAEL3WdmAT52ZKJ9nMIVJVccQwxKCD0DM7p6vqBtI3C7xs6wbqwaeAxPXUZSD+yGsmadNoDROspmfJvRsGE/tc+00WicjfVmbLjpySHeK4qGhhZXHCwtPvtNsw/IM6nucK5pcOWPC2sI0Jq1g/p3EHpjZy5uWkYVessOgIdOaprmgREbZJsHZEvF4EiQbJr3sfe7UBtLL/xkHmzEyiAwTAx8o+KPdveRbWGnNP0E7QsZbt59PktAmiok2ReSrfJ/KlUqLDIJTpAsfqyhN8JBK+oMgAzIKJiGbwpMyiFEPM7wNxL18LR1wpm6ZBnEWbovK0SAiYOKdssoyfG2bLR+rhYvFWuPtxY2t1ze2eM5XLvHUzvp5ns7EUSoEiQbaDeicUyvYY8QnpbKdB07/MmaGXDTYzEpXCgyA0XY/j4wUYoDhJMRrPuKTuUafUz5NW8Xl2VWcqRFx/2jqdc1LRk6fWferSl5FshvjBfLc7Lw+hXIz223km+L0wzi0mVpYIyDQ5PI8n+mwxDghDGq4oP3NIqwlfYB/R+nDGSZf25dCKNYS45IlpGHySIXsrWzASqjVjgnvcj/5VhT7p3+ZM0MuAwLXY6KCv6WrpXycEypIWGEZGmGIZS7F+LGjmCss6amYzmJZlHusLnF9HYJ32m49ME2hGfqVyi7HJOVwpr7XlEfMJB0WgKgPgDPiVWqCP3qL7P8s4crCVvcdne6CuKeKgmzRBmRvnhJKSklJzcjjeGhLb+LotJn4qaZvOmWMfAfkiwwKn+htfaert2rluLrgLx95hbbaahcuPak5unyhloGL12nOx+Gs7WcNCJyhZjZ/NG6l0MfOTQk4JrOgfDOphUZ8UuLgcNZnIT9OO/OISq/v0O52pqhWHypWTL/99gwlqGgCe0lMTt5A6MLD6UjbVU0waAj+JRVjc6L8U54/jLCXvG9YQ0hGaY+g51pnYsk77NMuxx6QwmdlywB/cvItyC+00YDLaU+ia+Vva3LzBtfxVgNBaS3rGvzUkdmPOTpABxWYENeLpXHJcUhinWhZE98DQAAtl0dmZJZlB5i1p0iIV5MprwibfutDtfu/l38wagw4uAJHCIacLOqgmOlIgAA9970G8pf/2KbAFKXVgykknvr7Pwi84RFpJAgWmCkY9eZcdEDZFy4eF/gZJroHYdJEzAyyGtFIlMgxgh+PFOmqVTdK66zW8X417T9ux9WGM9YDL3hEJCB/mcjNFGiXbTLKFuNlOw+Yf+64pOwioMuhlxwX+s0pekAR5PFa0H63O3lnS3ILgeU8aWaKvGXWmZMMYcA/bTIlQkZH+JVIFILIeN/ZnEFK3PpKhZLCjiOSoNUeVcmgzhYqHiYXlywC6Cg+eir87udcrW7Ph70EkfTaRtj+EA2zti/KuEsmXoq0a6ZsFi3/+/PPknDX3wZMyfQKtq6M5aGnTZYf/9EfHUGNHw9LuXsRddYMsLxJrxlhXmn36kq93zQ7wFxClmVa1/qUIQapEA3bXSsLAw+C00GV4ASD5XhPVjE68R5Sjq7VYKanIYb1XM5Z6EE/PW9PltJX5KZYps//2ePg2c1aB2vPJxMfwrTTL3p+72Y/BpWbSMr/BUGAX139FQgqsRt0rcem/Us3nD0F6DnsalmME4TjKFvspCWlhsD0TlaT1X415ennvFLyfSa2RYXibzM2JinewU7NSwmUJn1YI3oICJxv1z6ftLBSQ3cHs1UWSPnx3lx8DZ6NjqFHOgQbC8TJ8coj0TM+v67aDoNa+3E38Q4koIDr8s/w5/ly5QdsPYk7x5hp7b7rKem6/WbCV1rU5CHR+XJwvtgzP9tAJnvbOPu3J6UzWLaxTKS9/aY92cG2Q749J8a/OzGU4UAZCzgdYymqT965qMYTJVr+B1yjy83iXKLap3v9AXZM9UMQn1EtWewQWGjPn4E7dPDrElzhuJel0lfcEfUd0RIpPoSKVoiL3kxDFNFvZ97BWIS+IcIyKnPmKJtMjedOnf5kzQy4SvDdhz7c1FsgkwWvvzt6J3IZk57sLFlulcgQfCDk3HfCo5iiDm74X4UiGU1AQKC2d8vGHyuYJ0IJsnlReUYpscqPXpJmxxN/FH1b12Oli9lubDmHaxARL2KyfhSM3AW66yjZnio3O7BRqinuemVzT/WLeYm5d866hMcykNgBh44vJIRAGFYD/jK+7PFVIPJsRSKoxL/ub/9c+JB+TGXbLZV7esR///Q9EEnAcoP9xUVk2rBpncDUHnqhXLmmqfT9FXnOq89hqgLf27QIeTJrWRPLNeZn1bg4mWGjH2GZyt4xpSjotn8xJLPBxwR5ZBKK/0aDogB7Tymqsbn+l5Xh0vV/9pYnHQbRYD1WJHbWS0ASikkykTFWRQ2SlTAb36AA7OtDRLd6s9erpXMYJwnGUJNqtwrMTSOw+FpruOmRUAR0SeYOfsqovoNx03LzZjdfyZFMYMLlJuuA7QEz4adaBZs7LVJ7QZnJFb7GnfguQTDDJuJJGsxr6DPaPzj0XrlpqfQsWxrCXkUTer4I18+klAs0Q9jKUMQeR1fxqNeNzDp+/X9lPdxydNKrOppXKFKXE1MXYTYGptSsLMuRCv4/SmfbsNHm/9sEWjyDfB2VaLNLMAABO50+LMVSPOyU4Ts1czJKGPh7pCvJa281cWhv5g1Bhxb/f8s0UHmvP53ybiRcivyDVTBhFW+kQY2sZivgMvlSHXkCnNGrdE8EmqM3Drt+GH7RgRApkcpgAEK7boVpt24R1Pg5DkaL/j6kN74lQC4EXhLaQ+EH4mxBL7SnZujuhWW68DYjLy6qT0Dy7kAQMc7P2rBAcxUuxuK+UFcb7FeWav6QBR++pgI3knsiKQJ28t4u6xYyVWXh5QHjoFKuAcWyQpBENYBkDZxXvChcdusinmQsYi350UjgSpniv8G5sCzXcT5oM3pEQgfxaZ0tDFGUJrwGMX2seLnXtlG9eLALv6toNbQhWcBCs4EPZoykTlh6uEarX0cyXqGqWYLTTKqOGyA+4fNV4Nkprf+dtKnziWRBE8P4/hHXMcv4nPII+X6zJD16vJNhuDZmY20LiY5zkKmZvVbgXc6YW63f03SGHr6oOorxxuX24bKdqtZ7TNjOIUKvuJIm1OQl0drTnSyFnA+6dITeEE5FgFADoOl/QloABmDf5P3cS3y0yrwk+733MaRRTRp7i+hxw2Zao85ln6Z9L23+itLwt62d/0+KFSkpOCXp7MvPMUIuQ4WEE9Lb6r4TGsu1hK9HhAEIN3j3bM187kdAApUVeWH0rbapJpOgAJAmWN1DVuEqtq77EJi/lUHfACqkAAdZBDIPFt+7BLGcRZ7gpatV4Ot95ubFSEqg2pr3olqHQFDBtGU3piGBHyKh6CCTAAdkeJRG+lnL6zm+Ln0Iu0yLrqMBR+lFnIb4A7qY/8X6ruJ/XSFTxG2FZMsdx10TEFwF7tewFTnaxvbkiaDyvJTR2jpEnGZVheGtxUnhvF9waDXqPp40RqPYM0osGPCUeNhZ9UWqz08lLrwbQVsiKuCFYNFt/c4TgD/pcLYXYNu2K9Lv5YSu5RxwMnZRLGAVj99aldWLw8dq2irVu3YshRwDbLdC35Edl32zGB6PxC+0PvAcTpvcGfUPpASrI0SyhnoJdC7lLx+wCeMfADRrR+mfs+ay3Kk32xGRIGe8Z8f6ywkGm3DX9zMbOK8w7SuZqqnpU7Lmy42Ymrm4uYjH3DvH0ZgjglvNUTz3ANU84eGMPmRKvdPqE6MrrilnQNqIN6SXVwsShsQF2avWmsf2ZFRYjbvfa8WvwR9ChLy5hJsr2yovNI4C3vubA7Hr3vQSR9NpG2OW8/Kaqq3TGYeSqGt/0cGkrmJ7PdxH8ZXFKj7GeSPlLjCx79uo4+S7h4Tt2CBVAIM1ISwpyp51o65g/CZowtz1isuvGaSJaTRQf+y2AaP4O+VUAA0Jti+ZICWRsumD/j5UttlClYPPRIoBouHucgYDPXU0k+PmMSYGxmHZF/YPiveNFxGMzj0SSmYzYliR9OKcL6wdYBN/au/JKvanHZ5iAmH0SbN1GJh6/iv7yb+iQEpQWCGSRtuyJBn9CgA7/36ZalvMlbZZs0HlsUCyA78O2UJbAtmO6ZGrKO4HdcPbu6brAbjaEp8f6bazKleI4HfgV+g1X/J6JizXmQimp+6+ha+041dP+5RDOFSrwwsPt5vVGnaodP4l4OHe9TdjzZPPQyNM4O+WJJ00vL3ifvBHvMn3MQ4Tko2qIV7JFg669Mdkrb613Q3Ax9DAmSLg5jQKz4zxIDBLT1EBJzE77HPyudMl7/wytrTSIyLzy/2uDc4qS+a4HBqm2bv7uuC/Gjba86T5yH9BmQwPCFnEstp7X5zrQYKVlIIIgIh6BHOeOuHv8PLDZ3k7L2WckBOmW4m9x0hix7wNhoK5LC5CksnGf4Qe5PRwTM0goC2Yd5dLPsXtmg5rJ4hIEoKAASbNxfGLyl4wEZBt3II1R+VWGfPG9cOETl65K5vVK27/do6/LS24rX+U9by0eT7jPStIUTTeA4ZIHwEGo9Cs31GOGNEo2elcLwxDshvMFAH08hXZVai41cGuxaM1V4PedoJH1N3krKGW8RZBVik9pgyWQA4XJMy1cS3aBzO5j5xlXasMuuQSQw9ou8s2dmjLKmw7YbxfB5qDIXSgXx8T9/MOKzML2O+BZsfuVGlKHrsqX1ftV9jRm7t403Cc2l3hCXPDnzeVLiBDYEGzUg0AzbcgnvoWDcRiXHB/V5UhREc5xOchFVpVgT5U9LoZVlJK7RinM676pmijZ+OKafZNc9ygNCG2Lbby4JrcneQhM9kh6qgQdJmU/8BLnE9amCU77uY4bdG++Xz7dsXlQngc1lkM0AJBqte7npqr5ZqRNxjCQN9/JJdDgZLaBYyr52MJegn+mpTDt53qItcxoEJ4L3uoLaO16umjXxnpCQF9a3xSHTdXOPclfSC2n12VYko2/aWWaUh2e4TIXhtieAzmfEttwxcNRVgvN3/wfZtGwptKwZXDY//eqlYZAjsDb/6zLi2iHOIAhHmEQbE0NwL5v+qt9LDwm1YC7tOZmrgMrwAf4E9zElYfzxwBcd16ie1mYZSN9xfxGjL+p5VEegZxFI3z9GWjsyiTL8EYv557ufeeyX/sjomcZosGtq0HQN1UsjujL28bOZiDdWfeBfnySFLGoziZq3MJlI+7yUwgR6kSYDiEk9ZMdBWEbBB9Xb8428UB/7C1EzqyCEvEy9ICvc7IlBT+Amq2zeofoxbRilMj9Q6MzVBH38XvZRxkV/f8/+Tpv/8n58rx3pQK0sko+z50jcetgPMbQXOaxbdAsMJ35qaemBZ7UhE3UKuXLkCbjLe2LLIVhjFYlkJExS+eUjoPquoOVh0RuiYkNYxIF76UjKvECJ4Y3iAMAlBoaXOWn6unvqyA6zlGxcvTq+DN9W9IRvTW2JAO5Fp4HIfpDWEu0OADOKMAYQq5/8QrTQkdVb8jHgU/C8Gr3hLhf+Hc8Ofx+6v2q+xop1Z8sLYkX+RsA9r0sNG+uDn1VnXpTOYLcxdxwNDECKQoKq60EKqY6+mXryTX3FhNhTYfp3TBjpcH1XqH6uim7/ateTkV9nlXpBIWoVjpmYHS4fwUr/j/OgUIj7JOH9B02dmo7u4LW9OQBU1A8oabNcCcrip13KGyx//D+pPNMnegpQCYyV1Kwp/nVnefqgCFjVcedqBbyvFA9YnVyb9i48Uf6iCE9087Juc6oeV5pKaFT079CNDhvtkba2HKI3MJx+EM2HXaJ2SQAYQg8Dg+BJUX8nJdmz7Jrs957zNQA85KwOO+sgRpU6YEZcB1XAMaRtEjff5Zb6Q10mUF+DbaZJEOM12SuLKtcCXF2MRAcI+z9RBLAOm+heKuwHilcLhA1L2XRknixV2YziE0QPF9jywvFL9DaWSbhgDzMceSWNSJsG9ZynMqE1cfmJHQw9r/QBFTGEkuB9ie1/aZzy97mEEkxTAJd17EJoBORvlGCDS5Hyk0pumLEA8kbTQ49E1JSh6mWYKJx2vFnE5RAfzpe7GUy9RpfqraXHp3+ZM0FhW1ktsxiTA/iDjQaJUi/uT748GMLKs/MTGp9LVA/NGabnZ7tfGrId/zN37FT+KmgQ/wNaADaE9XG6Bv1gFSj+EZvkR26IWe4+Gsjl268YTAgYxHMzbrtMKUAAFN8B0mtH8zpF8bt8luQXA8p3jIegKABDpABsRmmY5K7MKbV3C/APUmkl9CaKR64YlOMkm0JJMh5FuOPyPeQC1msvkNoueAAMBOWqkBlygDQD1dneJ0dINS6gITYzKjgj6sm2+089tGcsDKDiTwU/QcuFcdsw7SKIyee/+vqMDef/jR0cPaIgIDR8x/yqAZyE4XVvkHmDf7eegoAByqwgDwcu0rzq3JyGsyNX2yg5ET1VeAaeAjp1D2WSsBgH0uRy1/3nfOF9CGRYM15mTFidbCjpYAXV/FEHBZMDUxKQ3SsnuzflaRdWJ5vQvsV9Fu4kaAmvYVxmbt9VZ16Uxkv1fKp2gNkc/tV+4st6KnTjsl54l3cHwYrZ8lFQiIRQSeo6HCNzs8cQpaan4HaG76YNMDt5jGMH8O2LNNUYWOoiACHeX5rvaGRUg6VqdoW0qOiaKpo+zH7IZfqy4w3N6dZXES56CyN7obl78IdgZuWk+unbEJqL9P0iYya+fXBFhtyo4mNLSD60sup8omIWK86UPqizzptX0r6ywjPa8qMun+hBdIKhQiCk8BrqzWydonXxnyR/E9hnHQDAPu/hv3Qw4+aXe6qqIAtw4tFt+Jx6R44MvDyf2gg+MtQWwNRi9+q+e+jcwKd4SSrtZORgyv5LHNp0QEucKdU3UyPumgh14X0MtJomwh4tZVx09YeCFSMYRsXPLQCNPXISRdBZSfE4i3eyCkPpJAJvrCTFnJw30SGhWXdnAVyToQl4TBD9MF4Ryd1UFAy2lMSBNb+23rZffH3Xe664UEQtJDfO/eKUU9bHg51ajUCxSW+DrpYLbw0ebCTEsIggoW4n8p+R2N4gua2QQrFpfT3nbRkrQy+1zVbX5zqqLjZMZdZoPy4sdtbzM/ZFkeMit5M7Orpn+PrVYZcr9VGI2aKujlRxJgvjfsOQaEcPvUWC3AxqnNetO2v2SKDRliEiEI/EPRfNPD3M9uTfk0gkM3D69Ql2C1H55mz/MI9RUyhWZQRtd5X/xk9P8tCLOLFgJg1/xvV6rx3FRvWQf/RutbsnT1QAAAAAAAAAAAAAAAAAAAAAAAAAAAAAAAAAAAAAAAAAAAAAAAAA=;" parent="1" vertex="1">
                    <mxGeometry x="140" y="190" width="108" height="60.75" as="geometry"/>
                </mxCell>
                <mxCell id="5" value="&lt;font style=&quot;font-size: 10px;&quot; face=&quot;Verdana&quot;&gt;train.py&lt;/font&gt;" style="whiteSpace=wrap;html=1;shape=mxgraph.basic.document" parent="1" vertex="1">
                    <mxGeometry x="140" y="285" width="50" height="60" as="geometry"/>
                </mxCell>
                <mxCell id="6" value="" style="rounded=1;whiteSpace=wrap;html=1;fillColor=#d5e8d4;strokeColor=#82b366;" parent="1" vertex="1">
                    <mxGeometry x="268" y="250" width="140" height="100" as="geometry"/>
                </mxCell>
                <mxCell id="7" value="" style="shape=image;verticalLabelPosition=bottom;labelBackgroundColor=default;verticalAlign=top;aspect=fixed;imageAspect=0;image=data:image/png,iVBORw0KGgoAAAANSUhEUgAAAxoAAAEhCAYAAAD4YtYVAAAAGXRFWHRTb2Z0d2FyZQBBZG9iZSBJbWFnZVJlYWR5ccllPAAAAyhpVFh0WE1MOmNvbS5hZG9iZS54bXAAAAAAADw/eHBhY2tldCBiZWdpbj0i77u/IiBpZD0iVzVNME1wQ2VoaUh6cmVTek5UY3prYzlkIj8+IDx4OnhtcG1ldGEgeG1sbnM6eD0iYWRvYmU6bnM6bWV0YS8iIHg6eG1wdGs9IkFkb2JlIFhNUCBDb3JlIDUuNi1jMTQwIDc5LjE2MDQ1MSwgMjAxNy8wNS8wNi0wMTowODoyMSAgICAgICAgIj4gPHJkZjpSREYgeG1sbnM6cmRmPSJodHRwOi8vd3d3LnczLm9yZy8xOTk5LzAyLzIyLXJkZi1zeW50YXgtbnMjIj4gPHJkZjpEZXNjcmlwdGlvbiByZGY6YWJvdXQ9IiIgeG1sbnM6eG1wPSJodHRwOi8vbnMuYWRvYmUuY29tL3hhcC8xLjAvIiB4bWxuczp4bXBNTT0iaHR0cDovL25zLmFkb2JlLmNvbS94YXAvMS4wL21tLyIgeG1sbnM6c3RSZWY9Imh0dHA6Ly9ucy5hZG9iZS5jb20veGFwLzEuMC9zVHlwZS9SZXNvdXJjZVJlZiMiIHhtcDpDcmVhdG9yVG9vbD0iQWRvYmUgUGhvdG9zaG9wIENDIDIwMTggKE1hY2ludG9zaCkiIHhtcE1NOkluc3RhbmNlSUQ9InhtcC5paWQ6REU5ODg5MUE1QzBEMTFFOEI3MDJCODY1QUJBQTAzQTciIHhtcE1NOkRvY3VtZW50SUQ9InhtcC5kaWQ6REU5ODg5MUI1QzBEMTFFOEI3MDJCODY1QUJBQTAzQTciPiA8eG1wTU06RGVyaXZlZEZyb20gc3RSZWY6aW5zdGFuY2VJRD0ieG1wLmlpZDpDQTM5NzM3RjVCQUUxMUU4QjcwMkI4NjVBQkFBMDNBNyIgc3RSZWY6ZG9jdW1lbnRJRD0ieG1wLmRpZDpDQTM5NzM4MDVCQUUxMUU4QjcwMkI4NjVBQkFBMDNBNyIvPiA8L3JkZjpEZXNjcmlwdGlvbj4gPC9yZGY6UkRGPiA8L3g6eG1wbWV0YT4gPD94cGFja2V0IGVuZD0iciI/PiM2reQAADqoSURBVHja7J0JvF7T1f/P88acEENMaXmIoChCSWMqr6j23ypKaVVRWkPVraGoqRWqJabitlWqI6q0b0tLWyrEmJtBIhFpYszTGIJLZpFE8vzXynMu13Vzc2/us9fe++zv9/NZn5Ph3rPPWfsM+3fWXmuXMgAAMKPUWOknmwFim4ttktumYuuLrSG2iljvZfz6LLEFYvPzP78h9pbYa2IviVXEnhWbUm0oz8XbAABgTbVaff+dhzsAAJyJChUMe4ntLbaT2M5i6xg1P1VsTG4PiI0V8bGYXgEAAIQGAECc4kIjFYeIHSi2h1iPQA5NIyDDxf4sguMWegoAAFwLjZVwBwBAt8XFWrI5QuzrYoMCPUyNrhwkNkMMoQEAAM5BaAAArLjA2Fo2p4kdndXyK2JgGD0HAAAIDQCAMAWG5lv8IKtFCGKbgvogPQgAAAgNAICwBMZmsvlxVpsmFSNajeplehIAABAaAABhCIzVZHO+2Fliq0Z8KkQzAAAAoQEAEIjI2Ec2vxLrV4DTIT8DAAAQGgAAngWGRi4uEzs1K0YpcK03+BA9CwAACA0AAH8iY0vZ3J7VFtkrChOqDeU36F0AALDif3ABAMAHRMZnZTOqYCJDGU7vAgAAQgMAwI/I0GlS94itXcDTu58eBgAAS5g6BQAIjMaK5mAMzWpVpYrIErFH6GkAAEBoAADYioyfi51U4NMcXW0oz6K3AQDAEqZOAQAio9giQxlObwMAAEIDAMCOqxIQGQr5GQAAgNAAALCg1Fg5UzanJ3Cqi8Qep8cBAAChAQDgXmQcKJvLEzndx6sN5bfpdQAAQGgAALgVGdvJ5tasGKt9d4bh9DoAACA0AADcioyesrlDrFdCpz2MngcAAIQGAIBbrhPbNqHznS82km4HAACEBgCAI/K8jOMSO+1Hqg3lhfQ+AAAgNAAA3IiMdWVzY4Kn/iC9DwAAvmBlcABIgcvENoz8HLRM7atiM8Q0StFSSWrVrJZzsrlYzza/Q34GAAAgNAAAXFBqrAySzTcjOuQlYuPExog9ITZBrCL2WrWhXO3gPLWK1vZi+4vtJabVtcZyBQAAgLd3MC4AgAKLDH3GPSa2W+CHqhGKv+d2jwiKZnoPAABipFp9/5sYEQ0AKDKHBi4yXhS7Xuw3iAsAACgaRDQAoJgPt8aKFruYKLZNgIf3sthFucB4l94CAICiQEQDAFLg8ABFxmKxoWKXiMCYTxcBAECRIaIBAMV7sNVyM57KagnRoTBJ7BgRGGPoIQAAKCqtIxqsowEARWT/wETGrWK7IjIAACAlEBoAUEROD+hYNBfjKBEZb9MtAACQEkydAoBiPdQaK/1k81wgz7czRWBcRa8AAEAqMHUKAIrMcYGIjAsQGQAAkDJENACgOA+0WknbaWJ9PR/K70RkfJ0eAQCA1CCiAQBFZa8ARMYosRPpCgAASB2EBgAUiSM8tz9L7JBqQ3kBXQEAAAgNAIACkE+bOtjzYZwmIuNlegMAAAChAQDFYaDYhh7b/6eIjN/SDQAAAAgNACgWX/DY9iKxU+kCAAAAhAYAFI9Pe2z7hmpD+Vm6AAAAAKEBAAWi1FhZWzaf8NT8nKy2+jcAAAAgNACgYHzK4/Psl9WGcjNdAAAAgNAAgOKxu6d2F4tdi/sBAAAQGgCA0Kgnd1Qbyv/F/QAAAAgNACgYpcbKSpm//Iyb6AEAAACEBgAUk23F1vDQ7jSx4bgfAAAAoQEAxeSTntq9pdpQXoL7AQAAEBoAUEx28dTu7bgeAAAAoQEAxWVXD22+VG0oj8f1AAAACA0AKCClxsrqstneQ9P34H0AAACEBgAUlx3FVkJoAAAAhMdKuAAAImaghzarYo+k7PQ8krSqUXPvVBvK73CpAwAgNAAAii40npaB78zE/f5rsa8YtXV8xnolAABRwtQpAIgZHxWnHsPtpiWFm3A3AECcENEA6ATVanUD2dxo1NzrpVLpBLzeMaXGSm/ZbOWh6UcT97veC5sbNTdXbBJXOwAAQgOgyOjK0wcZtVXB3Z1CoxklD+2OSdzvltGMkSyKCAAQL0ydAoBY8bF+hn5hfyZxv+9m2NYoLnMAAIQGAEAKQmMsX9hNE/BHcJkDACA0AABSEBpJf2EvNVb0nWE6dYrLHAAAoQEAYDng3Ug2m3ho+onEXb+tWC+jtl6oNpRf52oHAEBoAABYsoundlMXGoMM2yKaAQCA0AAAMMfHQn2zxJ5DaJjB+hkAAAgNAIAkhMboakO5itAwg4gGAABCAwDAHB9Tp5KeNlVqrKyZ1XI0LFgoNo7LHAAAoQEAYDng7Seb9RAa5mi1KasFErWM8EKudgAAhAYAgCW7emo39RXBLaerMW0KAAChAQBgjo9pU83VhvKLifvdckVwEsEBABAaAADmfNJDm0/gdlO/IzQAABAaAAB2lBorPWSzM0LD3O+aF7O+UXOvVxvKU7naAQAQGgAAlnxMrKeHdlPPzyCaAQAACA0AKDQDPbU7KnG/s1AfAAAgNACg0PioOPVataH8MkLDDCpOAQAgNAAAkhAaqednrCqbAUbNLcmIHgEAIDQAADwMeHdEaJijyferGLX1dLWhPJerHQAAoQEAYMkOYit7aDf1qTwkggMAAEIDAAqNr0Tw1CMa5GcAAABCAwAKjY/8jFeqDeXpCA0zRnCZAwAgNAAAUhAaqSeCbyibslFzc8Qmc5kDACA0AAAsB7xrymYbD02nPpXHdNpUtaG8hKsdAAChAQBgiVY+Knlol/wMRB0AACA0AKDAkAjuBypOAQDACrMSLgCA1pQaK1pGdt/ADutLHtp8W+xI8UfoXXZ7taH8qoProEdmmxdDRAMAAKEBAAXnELELcUO2hthPAj/GxWK/crTvbcV6GZ3H8yKW3uCSAwAoFkydAoC29MMF0dAkA/Q5jva9m+F5jKIrAQAQGgCA0IBwGOZw35Z5MY/TlQAACA0AQGhAGkJjd8PzIKIBAIDQAIAiU2qsrCabjfFEFGiyepOj62At2XzM6DwWiI2jOwEAEBoAUGyIZsTDw9WG8kJH+9aytlbrloyV81hEdwIAIDQAoNhsjgui4X6H+2b9DAAAQGgAQF0hohEPLvMzWBEcAAAQGgCA0EiQZrHxDvdPRAMAABAaAFBXmDoVBw9UG8pVFzsuNVb6y6aP0XlMl/Oo0J0AAAgNACg+RDTiwGV+huX6GUybAgBAaAAAQgMCwmV+huWK4EybAgBAaABA0Sk1VtaXTU88ETwvVhvKLzjcP/kZAACA0ACAukI0Iw6cRTPyBRsHGJ3HErExdCcAAEIDAIrPFrggClzmZ+wktrLReUysNpTn0p0AAAgNACg+VJyKgwcc7tty/QymTQEAIDQAIBGYOhU+46sN5TcQGgAAgNAAgJggohE+wxzvH6EBAAAIDQCoO0Q0wsdZfkapsbKxbDY1Oo9ZYlPoTgAAhAYAFBwZZGoC8CZ4ImgWiT3scP+WZW1HVRvKS+hSAACEBgAUnzLPg+BpksH5PIf7t5w2xYrgAAAIDQBIBPIzwqdI+Rkj6E4AgOKzEi4AAGGy2BcDOZbdxM720O6ZYs8H3EejXO241FjpIZtdinAuAACA0ACAgKg2lKfJZloIxyKD3h08NKv5Ar9wPDUpZD4u1tOorefEz83cdctmcFPz2rJZK/vgrANd3HDBsEF95uAhAEBo+BgsVasbyWY7sS2zWgUdraKyvtjqYr3zH9OEynm5TRfTmvT6FfNZsf+USqXXCuaT1WSzjVj/rDYPXxN++4itm/ul5WVWzWqVYN4Re1vsFbGpub0oNlF8s4BbBgzYxUObkxMWGQr5GbZCoq9sBuQCT99Vm2W16Yvr5c/mUge/u1g2r4u9mj+n9d01JbdxIkRm8QgBAIRGfQbR28pmX332ig0U61uHfb6U1eq7PyL2TxlcPxuZT/RltY/YXlltCoqKrh512PVC2fd42Y4We0jsXvENLzRwwSc8tPlE4j63rDiV1PoZIgz0Q87O+XN5T7E9strHnhVFn+cb57Zz21eAtPdM/pweLjZMhMdUHikA4ItShOJCByGHi30ps6n7r9GOP4rdIgPryQELriPFDsxqX8gsWJS/yO4Su0N880aRbxTx8WZZLbJjQUX8uVmSD6TGikYlX/XQ9KnVhvJ1yb4IGiuTslrk04KB4uvRBRcXWi56f7FDxQ7IapF1XzyfP6f/LDZShAdlhQHA9Zjp/feL/OUagzZfloHTFd04YJ07fIzY8Vkt3OyLR8WuFbtTzuddz524qmy+Jnai2K6erykVHX8Tu0b88ihCA6HRjQHv52Vzt4em95DB7+OJ+lynlc7IbD486dTMtcTXiwoqMAbk76kvZ7VpUKGhIv5msV+L4JiSwLWtz9HTPDR9k1zjEyP12Sqy+ZHYytn7U81bM7PN3zV3qPV4SKdYz2/1d53q1zavaHZWy4trYYr4a36k/uolmx/mz893cmthYVabit7Cu7m/WliS+6Ij/7b11VPiq8UxCQ2dOnWqQZs65eaKFThQTYj7rti3Anlo75nb83JsF8r2NhkQLjHuvDVk85283zYK5JrSB5J+uTtUjk/nXw8Rv/wLTQ8rgI9pU/rQHpewzz+Z2UW3xxZNZIi4WCl//p2R1abwhoxOt9KKbmfLcT+W1T6c/VVEx7sFvr5P9dCmRuwmRuov/Xh5pnGbGv37d6T++rahmB0pz89BsTkoyByNPIG5Qew8sbUDPMQtxG4R+54c67dkUP2YgU90nu9xYhfnL4uQBy3/lON9UG8+8c0Exs7QBXwkgk+K9WtaHe9ZKwqzfoYM1FfJn8nnim0a4SnskdtUOZerZXuTCI6i3QcvZ7WvwdZrhvWJ0VmlxooWh/mBh6a3ilFoiL9Wz2wjZkNW8Di/J5vLuvArh8s78U/t/O57/76MdnSapqY0PNH6XR7cgn0yQNXEbh2cXh6oyGjN9mKPyjHfINbLoU+0kpZO6/hl4CKjNf+b6dfLavWKPAoD0Bl8RDTGJO7z3Qzbin79DE3uFlOB8ZzY9ZGKjNZsJqb5Sc/JeZ2UC6hCkEfPfOR8bRCpy87yJJL6R+qvr2d2M0s0muF7psh+HYiM/bJl5E0HE9HIB6OaL3J8hBfbCTqwlnP4SqlUGltHn+h0Bp06pvMlY3z4a3UUDcEeIOfyVfFNytNTYDnkieB9PTSdesUpy+k+UUc0ZBC+b/6e2r6A10HfXDidKed5+rBBff5ekPOqiH3EuM31YnOSPH/1I+YZnprvH6G/dPx8jmGTF3VDcA+VzdA2x3+HbA7Tf5f/78x5zMh//sTliJAZbf8jiIhG/sX+iUhFRgtaRnaEDqjr5BOtpa4J1ldEKjJa8zGxJjmnbzCchg7wVdQgWaEhL5stDQdFr+YLQ8YoMDYSu03+OKygIqM1OjX4b3K+94j1L8D5/NdDm+tF6CcdyPqafbBlhP7SYjxW0cwnxXxHM+4XW0feGScs4/9VhLzQ3n94Fxoy+NQqMyPywWjsqCC4Vc7p+930Sb/cJwcU6OWlvrlJzu3qPFIDEILQ0ETw8Qn7nPUzli8ytHT402JfSeza+JzYBDn/0/K1QGKl4qHNqHI0ZPCo46/jPB5CPzmGHhH5S++Hsy1FYLWhXPV82vpBTqMV+7Xjj5ZpUzcGJzRkwKnKSL/ar1mwB/TFcm6XraBPdslfyFsV9OV1utgtcp49MoAP4iM/46nEE8FZEXzZAmMdMZ1eoIU/1k30+tBk15+I3Sm+iPUDkQ+hsX5kPvpxVp+FfVcUrVwZU67TIZndukMazbgrkPPWqMZ+IizWafPvh7X6/3WCERparUk2N2QBJqTXCa1IdVEXfaJfF4dF+JDqKjq97PeIDQhAaKSeCE5Eo32RoX4Z3+oFmjIqEE8dNqhPNdLjZ+pUB8igUSuPfTGAQ4lpmt75hm2FEM3IcgHRIiTaPhc1otES8ciCEBoywNRQ9M8TeED/QM71qE76ROf93iu2ViIvLxUbNzKNCvKXnSZrbuih6ZTzM/RrtdUCqItjEXUiMjTZ8WGxTbgzl1Z/3EtExosRn4OPiEZMORpDAzmOKGZxyHPzs4bPzZCiGZpUfmP2flJ4iz/0zzpt6k9ZO9EML0JDBpb7yOY3CT2of5VHKjryySa5yOid2EtM54Sex7scMj/RjKSFhrBTZld5cKK8pOYFLjB6iDXKH3+RxV+Ao7u8IfYZERjfE4t9gUUfEY2VZQAW/JRwOcaDstpaKiEQS0TDcswSSjSjNSoodPpUSynb/XLxceOyfsFUaMiAWstX6pzXlRN6YOu53ibnvtYyfKLrb2ieysZZmvwwLwgAaeNjoT5dDTnlBSUt188IetqUCAyttqNfDk/hVlw6PWIHERj3FeFkZKA2WzazPDS9Ych+ycuzXhbQIQUvNMRne8lmL6PmJmQBRTPaCA3lsFbb++U+m+FdaORTZG7Nip9/0B6bi/10Gf93U2YXhgvy3s1q+RofySBlfCWCL0jY5+Rn1ESGRpJ1UJ36Bw+d3qZfazWSMb1g50aexoc5Ngur2mcMJW4tczMuDTCaocJdP0RoGdv98mpTLbkbmXehkdXWyNg34Yf4UTKY3reN+PqmbL7MGHNpRZffkq+B0DAm9URwy4pTQQqNViJjj8SvBR2If0oExqViSwp4fuRptEIGiBrBuyiwwwq6xK0cm041/YxRc//JarN/QmXp9Cmx74nNyHM3vAsNHUhelsFPZTC9Ui4y9EvCdbjkPfSi/TpuSA+PieCjE/a5rgJtlew8U2xKwCJjYOK34F/EBojAeLzgQgqh8T66Anho07VDL3FrGc24WAbvIQv+P7Uat/1peT9sJTT0hbYOQ6qldZe/mX+5VwW4Oi75AJeLb9bGDclBIrg9ltGMUaFNAchzMu5OXGTotMGTRWAcKjaj4OfqI6KxQaAfGXQxwbMC7af+gfps26y2doYFoUczdPrUE63en8sVGitlYM15uXLfC1d8iD75V4OzcEVS+EgEXyj2VMI+TzY/Q6tLyeY2sT0T7v/JYl8WgZFKMQQiGu/z/SzcMvpa4vbfAR6XrgJuNbU79GhGC1oWuV+es4HQCAyN7lyLG5bJKdVq9epSqfQqrkgGHxGNCfKAXJSwz1POz7hK7MCE+/7XYt8RkTEvoXMmRyNb+mVeS5J+K+B+6h+gz8qy+ZpRc8FHM1qQ9+efOvuzCA1P1y4uWCar5V8PTscVCA2HpLxQnz73LaNIo0I598FNzbp2z6mBd9Fb+cD4dbE5+YD1f+uw37liJ4rA+IPj60sHZdvJQORchEZwXJKFvbxAiFOnNOHZKkn9EqtohrRzeCd/TiMXQzv5s0+8N749pYrQgKDRPJYLS6XSbFxR+EEvK4Lb83GxNYzaelZePm8GIjJ2lc3PA+sL9c1wsUfExolNECEws81xH1wHoaHXu06Vet7hvaxrQv1M7Oj87+Ol7/8YiJ+1XO8i40F2UKX8pT/0g84RgT+btgzMZ5owf6xRc3pvRhHN6CoIDQiRXvnNzRSz4uMrEXxUwj63nDY1MhCRoXPSddC7agCH81JWyxHRak+jOlFOtrurlF8tdq60s9DhgEzXgro9q82xb+Em+fdxIja8VxzTr8RyLOr3zVMVGlknv0p7ZmmJW+mvxYEcz2lZbZaFBRrNeBehEQb6UH42N100RKtlzM7/Xb/SaSUnLd3YL1fHqS0E1+KfKblCVt+0fCFbM79pNs39oyV21w30PBAaaeAjEfwdsacRGiaMCOScf5E/83xyT1aLqPyri2tVrGj0SaMlx0hb9zgUGDpN4ttiV7Yj4nqK3SI/s3sg+VAVY6ERzNQp6QNd/2FwBM+mlhK3Lwbgs3Xya9sCHavdUtQXTixCQx+Y+rXkn2KPlEqlWZ3+klGt6kX7qayW/PcFQ3VqiQoJ/Vp3r9iDnfVPXmZXS+7uLfYlsX0y20UcO2JHOb4d5FxSqYqSKj4iGuOL+uWok1hWnPIeORrc1HxY5nfKiCZNXiwD/ondGHx1leFiR0qbrzgciOlHKk0sP2g5HxK0ytEPArjurStPBSE0pJ/0nR5DNKOF/iEIjayWy9XTqK1LivxO+p/Aj0/nrOpLYmMZcH5b7O6uiIylN1mp9F+xW8Q08WWjrJZkPL0g/acVCo7K/fMtsTu74h/52arYJLHrxfRrxyb5AymUaiRfYhyO0HBAyonguk7Nx4ya08jRk55FhpbM9pWXodW2dpHB/uHdEBlZFwc7Gim5UGw/xyJjz7xvD+rEj58nP79DAJe/dUJ4j/yruG+OFNsxosfUVgE8J3X69ilGzRU6mhGy0Jgq9gUZ/O4s9mexuoRddRAudo38cbOs9oVlYaT9Nj1/eHw8F1Hv1Mk/r4idk/vnNwGc50EZFHnQSyK4PZbRjCcC+EqnH076GLeplaJOENtdBvv1uNY6G9F4WWwfaVOjJ4sd3bM6eL4gq0VMOruyvFbsuTH/su4TH2tp9PF5wuJznc72w8ieUSFUnjops4tIXVL0CHuIQkPn5W+n0QtnN1+ptEBMbz5NYJscWZ/dLLaNHP8fxJY48k+zmJaB1Hmdb3k81x2q1epHGZIXFl+J4GMQGiZ4XT9jcFPz7rI5zrjZx8S2l4H+L8XqtRp6ZyIaf9PnpbT5iMNBq+Y+/jsfuPZYgevu+ASFhu/pU/pVvozQ6LI4+65Rc1OzgkczQhMab4t9RQa4p4m9bXJBlUo69WhQFuZKlG3RqI5OjzpabKaRf+6TjZaEfN7jee/DeLyw+EgEny82KWGfJ7FQn4gMzT+zLiah1Z32lsF+vafodJRLqVF5nUt+sLTr7KOQDL7+X1abKtWdMrsXy37W9HjtJ7WWRj5N8rwIn1G+S9xqIZqNjNoamkK+YCjJ4FoZaX8Z2JqXQtTpVNVqVeuU353VZ1EkV4MjnUo2zIN/XhD/6GB/uNgWHs79Uyko/kTxEdEYl2oieF4hKJWIxhGGQlY/Ap0gA/3fOtp/r2X8u1YX1LUxxjm8ZrS07o+z+nzh3SCrLX52QUJCw+fUKV0wMdSqkh3hrcRtvpjp2UbNTctqxRQKTwgRjbd9iYxWg2k9Bq1KNSXAPtIvVgf4EBmt/KP1x/WL1hwPze+SAUKjfqScn7Gl4cDjFRkovOTjJAc3Netg4WKj5pZ+BHIoMpT2pinpx5edHYsM/bD0aFbfaSSnyX69DL7letRcxjeMm93A00cFnXL8nUifUy0lbn19oLAqgfxjuSZjzROOTmgc61NktBpMz81qFa4WBNZHJ8mxPRCAf/Tr2Tc8NL19tVpdJYNCIS9CfZH4SAQnP8MGn+tnfC2zib6qyDhABvv3Om6n9XQjrQioa2McJTbX4f35FdmMzWpTZ+uJ5puc6fHasI5q+Jo6pUI75lL+5nkaebGCc42aSyaaEYLQuFoGsMEsuS7H8lRWCxOHws/kmH4TkH+0Hvxdxs3q18mtGZoXDl+RqpQjGrsZtuVl/Yw8N+N7Bk3pdKkvyWDf4iNQS0RDcyQ0ivF7xwOuIVlt5fK1HDVxSr4Ghw8Kv5aG+PbjKkYjf1b5KHGrVS63MWormWiGb6Gh05TOD9AnV+Rq0zfPZXZzBbvCaflLtugPHXCLj2lTOkVycsI+H2jYlq+Ixuczm3VCvi0D/n8YnZPmaPxUbJC0+YxBe7o47myH+9eoxjc9XR/WEQ0f08Quy8JfI215+Kg8ZTUeTSqa4VtonFyv9R/q+jWgVNJw+OUBHMoJVtW3uuifqbL5vXGzW2aA0Og+T/pIMAzivm2srJ7VynlboD72FTmymJd+nZavNTynM6W9BjGTab1yj2g1Rp06tcRhMydrwq+H68M6orG+8X3+qVxsx05/Y799xvCdNDSlaIZPoXF/CHkHHaBqc6bH9v8h/nkwYP9cZdzeRxiXIzTqwKjE/W01sJsgL1LzjySDm5p1cPJpx81oPuFZluclAsO8vLj03z8ztwn1ZU8D4sJOncqryl3huBmdaWERrbT+uGiVmzE9Syya4VNoXBSyU/JIwp89HsIFgftHv3iNNmyyL+Py4pAngvuYUpByIrjl+hm+inu4LlahidiahJ3K18gfORbnX/dwTkVOBj80cz89UqcXTTA4l35WES9pRxf23NuojzSaMR+h4Z4JMlB9NALf3O6p3YfFP+Mi8M8fDdvqk0GRIBHcnkKvnzG4qVnfZV913Mx5IjKeTeWCydebOTqrVddywedlkGedLF3IiEa+/sOljpvRcYkWhLHIc7MscWv1YVejGTek+PLxITR+GYlvHnb4gO2I6yPxz32Gba3N2LxQ+Jg2paVAn0nY55YVp3ws1LeH44GJlnr9WWoXjYgNLdpypaPda9nyg43P5w3j9/r/GK0bcmLmPq/hHPFfVbaTjHznPE9D+manrLZGmAVJRjN8CY07Y3BMqVTS8Pjjxs1qcvzfI7l2nhZ73ait3ozNERrdRFcEX5Kis+VlqlMPrfKcZnoSdIc43v8Zwwb1WZzo/TpU7JVI+609ChXVkPtbq5L9wPE5DJfnZ8vHRavKfRbVJs8xOpdkoxk+hMbYfJXpWBhr3N594p95kQgx/bLxpFVzjM0RGt0k5fwM02hG/tXTGpdfxu8VkfFQqheP9Ke+k1xNL9kvHyhbUrQ8DV0A0fUK5Oe2uh5UqFmMU5xGNOS60/W5DrMS66lGM3wIjdge1hON2/s3/mkXIhoFwWMi+OiE3W6Zn2GeCD64qVm/fG7msIkh3LnZzZmb9aV0+tQ+CI0Vfp5umLlfaf1OGSS3nQ75n9iFRlaLZlh8xGzOEo5m+BAasb3snzNubxT+gYLjKxGciIYNPvIzXJa0fWzYoD5Nqd+0eWL4ta60ovHpWE+dchlt0ClTPR3uX6ebtreQnYXQcFbiNv/gdaRR/1+VcjTDh9AYH5l/phu2pQ/ycZH551XGzdBFfEybmp2qKM6r0Vj63EdpW5elKX/KLfseN4rNcbDffQouNNZzdG/rQPxEx8d+swySJ3kSGi5L3OpaOCsbnMObPEPshcYLkfnnLcO2ppVKpUX4BxAadecJT3kDIbCD2OpGbT0jfp7h4Rx3d7RfPZe/csvWkL5VkeGimMv2MqDsaXgqRZk6peVsXa41oQVxlpVkbiE0nJS4zaebfdOo76+U+2YuQsOO12Ug/U5k/pll2NbUCK+f2bx+IQahkbC/i75+hlbTclVR6y/DBvVZwC37Af7gYJ86WN7J8Byij2jIYFkX5jvU8XFfnyd++xIaios8jdPFVjM4dqIZHoRGdF+/88pKVjRzOUKR8ZgInrLQsFwR3EcuwwCH+/4/7toPcb+jd9XOhueglS8tS12v72CfVzo+Zv0Kf0kH//+8mMUMjLqWuJV3kK7JdbJRvxPN8CA0+DLUMW/jAig4rAhebKHhIz9jB0f71TUzHuKW/SB5UvgwB7ve1vAcdIBsmV9YV6Ehg+UDZLOX42PWBObm5VwHzxr4rt4RjQaxNQ2Om2iGJ6ExE3d3CNOQoOj4mDY1Q16Kz6bobBmQrJPZLHqlaFWVCR5Oc2tH+x0zbFAfPv60z3AH+/yY8TlYTp9ar473tE4zu8xgkNyZiElUJW7z9VpONerza4lm+BEa0DFLcAEgNOoO+RlGfs6/clqzRUSDaYSGfT8uC8uE8HrmaBwjtp3j472kk4PkSQa+q2eJ2+Mz94snKprb28hjAqEBAAiNomM5bWqEp3PczNF+m7hdl8kUsXoXdtnYYSlT70JDzq3bYy3Zh1aPu9jxseqijD/v5M9ONvBdXUrcyj50Ycgzjfr7GhFqzOBBaACAJSSCe8EyouFrsdENHe33ae7a9slLRT9T5932cNiX7RFj5anvZO4qrLXwA+nfhZ38WYuIRr1K3B4r1tfgeDWacQ1PCYQGANhDIritsCsZC43Hrc9xcFPz+pmbRbd0GutUbtkOmeJgn5YfIqJaS0PuZ/39cx0fo+Zc3NyFn1exaVGZs383faeLlp5l1M9EMxAaAOAJX4ngLyTqb00CX8eorZfFz694OMe1HO33tWGD+izilu0QF/fV2obHH1tE4zyx3o6P8Ty5jxd39oflZ982EuTdLWhxeGaTA0Q0A6EBAB7xEdEYnbC/U8jPcFWm8nVu104NqmIWGtYRjRWO1pQaK2XZnOL4+LQ09V0r8HtBV57KI7vnG/Ux0QyEBgB4ZFcPbY5BaJgw0tM5uvrCy2DBj9AwG4/IgHC2o3NYFht043d14bxVHB/fOXnuTVexSAjvztSpgzKbNVrmiV3HYwGhAQAeKDVW+mV203haQyK4Db4qNJW4u7xRhDVGgl9LQ56dA2RzpONju09ExvAV/F2LogndKXF7rlH//lR8+BaPBYQGAPjhE57aTTKiIYOTNTJ3K2a3ZXEBBR0L9flhZeP2YlhLY6iBoO7OYHyKge9WqMSt/M5+shlocHwazbiS2xehAQBpCY3makP5vwn722pNgifFz/M9nediR/tdi1vWC9YJ+JbPhy7naOQD5f0dH9cdcv+O7cbvW0Q0VrTErVVuhkYzmrl9ERoAkJbQSHna1G6GbY3yeJ5zHO13TW7Z5eIiP2ZegYXG+l0UGRrFGGog1C/ozg7y5OfXDPzXv4v+0xy1fQyOi2gGQgMAEBrJMdCwrREez/MdR/tdl1t2ubhY82Ku8TmEPHXqCLGdHR/Tr0UoPFuH/VhUnupqiVuiGQgNAEgBj4ngIxN2+26J+PlNR/vdeHBT88rcvR3yUQf7tB6wBSk05JmpFaYuMRDpQ+q0L4sVwvt3wX87yuYAg2MimoHQAIAA8JUInuqK4DoA7GvUnFZZedbj6Wr7LlYm1vyWzbh1O2RzB/u0Xr8k1KpT33Lk39Y01nGRTYuE8K5MnbKqNHUj0QyEBgCkKTRekxfAy4n623L9jFErWHu/Lgwb1EfnmLuaH741t26HbFfn/c2Va2mW8Tm8mtkloK/bmcpJ8jOa+/J9x8eifr60jvubaOC/TpW4Ff+pIDnc4Hg0InQFjwGEBgCkKTRYP8OGpgDOt1Kg6zYKZDC3WVb/HI0Xrc9DhM0S2bxk2GRnfHZWtuKlcDvL5XLuM+q4v5BK3J6T2ayvc4P48FWeBggNAEBopIZlfkYIQuMFR/vdg1t3meztYJ8vejqXYKZPyUBapzye4fgYpotdW2fBptHj2Y6Pe7klbsV/+v9HG/SjRjOG8hhAaACAZzwmgqe6UN9KmftKNa0JIeF+sivBNripuQd3cbvs5WCfEz2dS0gJ4ReJre74GH4owsBFGWGLylPLy9M4I7NZ9JFoBkIDAALB1/ST0Yn6e4DBQOW9AX5eQ983rhYM65XZ1OGPkcEO9jnB07lYRjQ26OAjwTayOdZx+8+L3RSZ4G/NVh34T6elnWhwDEQzEBoAkLjQeCXhr02W62eEUj54nMN9f5Fb+EMDuu0zNxW5nvR0SqFENDQ523UE7UJ5Ni6MTPC3pqOIxnfFVjM4BqIZCA0ASFxokJ9hQwj5GVp5SnM03nK0+0OYPvUhjnCwT+2/Zzydj/ccDRFve8rmIMdtjxe7zeH+vZW4Ff+tndVKArtGK5RdxSMAoQEAaQuNMQn7O7WKUy24Wp1848xm4a8oyKv+HOOi/zyWSQ4hGdxiKs75eZUtV1hENJZV4vZksd4G7etK6tN4EiA0ACCMQYmvRPBUF+pbL+tkrfk68HbmL3m3PYY73PfJ3M3voV/dXSwG+aDHc5pq2Nb67dy3h8hmd8ftPiID5HsM/LjAcRsfKnErf9ectDMM+k6jGT/mEYDQAIBwYEVwWyzzM8bIwOXdgM59mMN97z+4qXlbbuelnO5ov/f5OiG5jjW59w0fQiOvEmcxeD3XwI+6eKbr6W/tlbjVBPD1DHyo0Yz/8ghAaABA2kJDE8GnJ+pvyxXBmwI7d00kdpmgOST1m1kGxfvIZk8Hu35Z7tmnPJ+e1QCy7YD4uMz9CvR3i38fMzo/0xK3ck2ukhHNQGgAAELDkJEJ+3tQqn4eNqiPzu//h8MmDhvc1LxTwiJDV1q+1NHu/xrAKVpVnlqvlU97ZrV1M1yi98V5hn60EBqtS9zq4nybGLRJNAOhAQAIjaWkmp+hA0HLqVNNAbrhz473f7WIjVKi9/LhDoXsHQGcn9UgsvXUKf0Sv5Hj9m41jhZNMmijf/7M01yNcwzaI5pRB1bCBQBQ54EvieC26PSLtY3aekkGL68E6APN03gzczdfe5+sVnHpt4ndy2vJ5ieOdq/X0WMBnKZVRGMt8efK+b16lsEA+UJjP1os2tcydeowsS0M2ruVaEb3IaIBAPWGRHBbLKdNjQjRAcMG9dGB1R8cN3Pl4KbmjRK7tq7OamV+XfB7xyVXO4t1idvvi63puB1dWO4FYz/qWhqu+3PLPIJrMSVME9x/xOscoQEA4bGLhzanyYv1jUT9bbl+Rsh5ML82GCTeLGIjifemDOi0nO03Iu6vEIWGTnE8yXEb83wMkOX5q+VtX3TcjEbLDxbb3uCUbpFzeo7XOUIDAMJjVw9tprxQn+WK4CNCdcKwQX2eNBBC+2U2c8PbDvpXy8uhWrW3eeZ2mtj9Moh7NpBLp2LY1rVZrUyrS37isfqe6zwN9Z3F6twazbiEVzlCAwACIw9r+5g6NTpRf2v1mo8bNadrZ4wL3CXXOd6/Tg+5x7iPt5HNKLFeRu3ptJ67Mrd5P1eHcsHkkdB3jJrbzPH+3zQaiC8Li8pTmxu0QTQDoQEAgaLJemt5aDfViIZOU+th1NaT8vKdH7g/tPrUNEf7/o2K6GGD+ow3FBnH5de2ThWZZdCerk1wR+Z2aooORv8V2HVTKcjz4DK5R2cWXGi4hmhGnaHqFADUExLBbUl2/Yz2EBGwcHBT8xVZfSMbc8VOkn3faigwNKpwg9gRLf8mA8iq4zZVsN4s9lnHp3ex63NZQaGxdeTPgpfEfub5GIogNIhm1BkiGgAQu9B4UV4MbyXqb8tE8KZIfHJTVr+VwseK7WQsMjRK9WRrkSHMdtymRjK0atfhBgPROwK8ZopQwvSiACKOsQsNFcCX8xpHaAAAQqM1TyTsbyIabRBRoIOti+uwq2vEdpP9mXzd1PwmMV3I7fGsVl2n7QDIVbs61fFuA5GhXBBISdu2xD516pksgDVepG9VEL8SsR/vkHOYlEFdYeoUANRtoITQMPX3Jpm7NQ7a8mZAVYI6g0Y1TstWbDqMJtR+XQTG3YZ92Uc2vxP73DJ+ZLajdjWn6k6x7QxO8xG5hv4S6PUSe0TjfPHtu4Eci0Y1+kbow2qdPlBAG4hoAEC98JUInmpEw7Ks7aiYHCMiQQddp6/Arz4ktqOxyNhHNhM6EBnKEgftagRjjJHIWLKC/YHQ6Nzz7/8COp5YIwJEMxAaABA4vhLBRyXq74GGbY2IzTkiFv6Z1cq0dnYgPERssPzey0YCo4eYfkEdli0/MjWnju2uJ6bRk9vFeht1x09lEBfyB4GYp06dE1hy/eQIfUg0wyFMnQKAmIXGc/KSnZWovy0jGiMj9VGD2L5ia3bwMyosvioC42Grg5KB/kdlc5vYnp38lcV1aFOnNh4rdqnYBoZ9oNWQLgj8OnkpH2yWIru+H5Dn3/2BHVOMUQGiGQ4hogEAMQuNVPMzdIXcnY2a0wFYlFEjEQ+6psbZHfyITpHa0VhkHCib8V0QGcqcbrSnSeY6LUsraP3KWGQo35BB3JyQrxM5vkVZnEnM5wZ4TLFFNIhmIDQAIIKBL4ngtuwotprVwMHzImDdRdejaLtA3MKslix+oIiMN43ukVXFdH0Pnc61bhd/ffEKtLea2NFZbTV3Xc18gAffN8q1c18k10lseRp/Ed8G9wFAjmm6bGZE5Me/Ec1wC1OnAKAekAhui2VZ26aYHSVCojq4qVmnDOnaFBuKabnaL8u/jzUU4ltmtfUjVnSwP7eT7ejHw92z2hocXxZbz6Pr1d9nR3SpqNDYLZJjVeEZ8nS0/+TXYQxcxOsboQEA4cOK4MUVGiNjd5aIiukiNo6UPx4jdrL8fa5V2zL4P0o214v17MZu3l3GvvUdvk1+Pewt9hmxPgG4XCNgh1Ybyu9EdJlMjehYfy++DXlxvMmRCI27xI/jeH0jNAAAodEezyScCM6K4F0XG1rdaZihwOglm5+LHVWH3ZVlf2dltaihCgmtUrWFmEZKVg3M1VrB62tyb74Q2SUSy9QpFW9DAj/GpyPxJdEMhAYAIDSWyZgUHZ0v7tbfqLl5YhO5vLvcRzpFSsvHblWnXQ7I/ORYrAinici4J8Jui0VoXC/+Df1Yp0TgR6IZCA0AiGRQRSK4LZbrZ4yRl/FirvIu3QuniF0ptkqCLrhOrpfGSI89hrU0dIX4H0dwnDFENIhmIDQAIBJ8JYKPSdTflgmrTVzenRYZWknqN2IHJuqCm7NaJa9YiSGicZUIueZIfDlfbPVAj+9vRDPsoLwtAHQXH9EMrX2e6ouC/IzwRIauiTE+YZHxZ7FjA1uhumsPlFq+V8g5X2+IXR2JLzVPJ+TpU5fy1LKDiAYAxCg0ngl9ETBHA1r9OGQ5dWokl3eH/dFDNudlteTcVD/c/UHs6IJMsdMv8dsHemyXiI/nRuRLXZsixLyie8WPfEAxhIgGAMQoNFLNz9harLfVoEteyK9yeS9TZPSVzb+z2qrCqb5Lf1EgkdEiNEKkkvs6JkKNaAzh6WULEQ0A6M5gy1cieKpf2lmoL4zr/nOy+V0WxpoVvrhABMaPCnZOoSaEXyi+XhiZL0NMCCeagdAAgMhgRfDiCg2mTX1YYGglKZ3ffUbCbtB1HDQf448FPLcQIxo6YL85Ql9ODvCYhvAUQ2gAQFzs6qFNTTR8MlF/kwjuT2ToAnk6uN4lYTc8n9VW/B5f0PMLMaJxfp5cHRvPiOmUuh6BHA/RDE+QowEA3cHHoGuyvDDmJTjQ7ZnZJaouEhvL5f2e74/IalXOUhYZf9HzL7DICFFojBB/3xWjI+W49RnyXECHdDFPMj8Q0QCA2IRGqtOmNHpk9XHoSRkovIPAWFrlS5Nwj0/YDSrqT5Xr4VcJnGtoU6fOjdyfOn1q6wCO4yG5fh/nde0HIhoA0J1B2E4emk51oT7yM4zJp6xo0veURF1wr9h2iYgMRausLQrkWP4lfn8ocn9OCuQ4hvA0Q2gAQHxsJdbLQ7ujERrOGcHl/Z7YeEw2O4pdkNVWO06BV8S+Kuf+WbFKQn2twvKlEA4lq63PEjshJIRrNGM4TzKEBgDEh4+ytppcSCK4e0ZxeX9gALogL+Wq00BuzgeCRUSnSV2i5ynne1ui3R3C9Knbxf/jCuDLEErcDuEJhtAAAIRGZ5kkL+D5qTm61Fgpy2Yjo+aaxcfPcXm3KzimiR2d1VY8vqtAgkPzca4V21LO7/uRrUBdNKGhH1O+XxBf+p5ySDQDoQEAEeMjEZz8DPeQn7F8wTFB7GD548fFfpnFO6VqptgVYv3kfE5jJfil+J4q9suiCP1csE7zeAhDuJz9Q9UpAOgyHhPBU604xfoZYQ6kNNn1BLkfzpHtcWLfFtssgkMflwukmxOPXrSHz4iGRpaKVob1P2KbeGj3UaIZCA0AiBdfieCsCO4eIhpdFxxvyeZKERxXy3YPscPFDhXbOKDD1C/Ld4jdWpD5/67wGdG4poBRJRUa+3to90dcyggNAIgXH/kZ74qNT83RMnhdWTY7W42ZERrdEhxategRNem3U2X7KbHPiu2X1SKAltOVda6/rh3wDzWd7kUPdQpfEY1ZYkML6E8fJW5HyvX+Ly5lhAYAIDS6wlMpJoLnA9RVjdrSVddnc3nXTXQMz00FY2/Z7C22W1Zb4X2HrL5TSjRioTlMWjFMI3+j5Bhm0RNdxldE4zLpr5kF9KePErdDuIwRGgAQN6wIbscGYlYLd/2bS9uZ8NBB/99yy3LxsbZstskFh1YV6yv20ez9aYkqTkr5n+dktfKzmlMxIxcWU1sMgVi3fpov/fKG/HF9w2anZ7WqX0XEOqJBNCNAoXGXUVsTI/WRlX+eitA3s4z8My+Ac33b8Fp4PeROJxHcfOBzt2zu5nVVyL7VL9gjMhZIDA0Vg/0N27uxqNFaOa9meWfck9nl9F3M5RvYmAEXAEAXhcbHslqCnzUD5aU1mh4AAAAIWGBW319iiHU0AKCr+EoEJ5kVAAAgIhAaABCD0NBE8AW4HgAAAKEBAMXFRyL4KNwOAACA0ACAgkIiOAAAACA0AMAFrAgOAAAACA0AqDs+8jMWZnGWfwYAAEBoAAB0kl09tDmh2lBehOsBAAAQGgBQXD7poU2mTQEAACA0AKColBorK2d+EsHH4H0AAACEBgAUF83PWNVDu5S2BQAAQGgAQIEZ7KHNd8Qm4XoAAACEBgAgNOrJ+GpD+V1cDwAAgNAAgAJSaqz0ls0eHpomERwAAAChAQAF5gCxVRAaAAAAgNAAgHpyiKd2qTgFAACA0ACAIlJqrKyb1SIa1rwt9jQ9AAAAgNAAgGJyZOZn2tST1YbyYtwPAACA0ACAYnK8p3ZH43oAAACEBgAUkFJjZX/ZbO+p+SZ6AAAAAKEBAMXkLI9tIzQAAAAipoQLAKDdh0NjRdfNeNRT89OqDeVN6QUAAIC4qFar7/2ZiAYAtCcy9CPE5R4P4QF6AQAAIG4QGgDQHoeK7e6x/fvpAgAAAIQGABSIUmNlbdlc6/EQlojdR08AAAAgNACgWFwj1tdj+yOqDeXX6QYAAACEBgAUhFJj5YuyOcbzYdxFTwAAACA0AKA4ImNb2fw+gEO5g94AAABAaABAMUTGOrL5q1gvz4fySLWhXKFHAAAAEBoAEL/IWEM294htFcDh3EKPAAAAIDQAIH6R0Vs2d4vtFsDhzBW7jV4BAAAoBivhAoBkRcbGsvmH2IBADumWakN5Dj0DAABQDIhoAKQpMvaQzdiARIbyM3oGAACgOBDRAEhLYKwsm/PFLhDrEdCh3VNtKE+khwAAABAaABCfyNg7q0UNtgvw8IbSQwAAAAgNAIhLYAzKahGMzwd6iPdXG8qP0FMAAAAIDQAIX1z0lM3BYt8S2yPww72AHgMAAEBoAED9RYHmSmwp9ky1obykG/vZVDb7in0ut54RnP6f5JxHchUAAAAgNACg/uwu9rDYXBELo2T7gJhuXxR7V2xm/nOria0utq5YH7Gy2BZi24rtLNY3svOeL3YW3Q8AAIDQAAA3fCHf9spqEYl9EznvS6sN5QrdDwAAUExYRwPAPwckeM5PiV1G1wMAACA0AMABpcbK5rLZJrHT1ulgx1Ubyou4AgAAABAaAOCGAxM85wtFZIyh6wEAABAaAOCO1KZNaaI7i/MBAAAkQAkXAHi6+Rora8qmWWyVRE75JbFdqg3l1+h9AACAYlKtVt/7MxENAH/sn5DI0FK2hyAyAAAA0gGhAeCPVKZN6SKER4rIGE2XAwAApANTpwB83HiNFRX5r4ptkMDpniQi4wZ6HQAAoPgwdQrAPwMTERlnIzIAAADShJXBAfzw+QTO8UwRGVfR1QAAAAgNALDjCwU+N83JOFFExk10MwAAQLqQowFgfdM1VjaRzX8LenpzxL4iIuMf9DQAAEB6tM7RIKIBYE9Rp009L/ZFERlP0cUAAABAMjiAPUWcNnWn2CcQGQAAANACU6cALG+4xsrqsnlLbLWCnNI8se9SWQoAAAAUpk4B+GO/AomMYWIniMh4gW4FAACAtjB1CsCWIkybekXsa2KfRmQAAADAsmDqFIDVzdZY0fttmthHIj2F2WJXi10pAmMePQoAAABtYeoUgB8GRCoyZoldL3aVCIxmuhEAAAA6A0IDwI4DIzteLVf7c7GbRGDMpvsAAAAAoQEQJjGsnzFT7C9it4oNF4GxhG4DAAAAhAZA2Pw2q60IvrdYn4COa7rY/WJ3iN0n4mIBXQUAAADdhWRwAOubrpYUvl0uOAaK7SS2jaHwnyo2VuxBsQdEWEyiVwAAAKAetE4GR2gAhCE+VGT0E9tKbBOxTcU2EltfbN3cdP2N3mKriK3R3r2d1SpDLcxqU6BezmqlaLXSVUVMV+2eQL4FAAAAWAiN/y/AAGCl4XP6Wx8yAAAAAElFTkSuQmCC;" parent="1" vertex="1">
                    <mxGeometry x="278" y="260" width="64" height="23.29" as="geometry"/>
                </mxCell>
                <mxCell id="11" value="&lt;font face=&quot;Verdana&quot; style=&quot;font-size: 10px;&quot; color=&quot;#000000&quot;&gt;ml_model&lt;/font&gt;" style="rounded=0;whiteSpace=wrap;html=1;fontColor=#FFFFFF;fillColor=#FFFFFF;" parent="1" vertex="1">
                    <mxGeometry x="308" y="300" width="60" height="30" as="geometry"/>
                </mxCell>
                <mxCell id="12" style="edgeStyle=none;html=1;entryX=0;entryY=0.5;entryDx=0;entryDy=0;fontSize=10;fontColor=#000000;dashed=1;" parent="1" source="5" target="11" edge="1">
                    <mxGeometry relative="1" as="geometry"/>
                </mxCell>
                <mxCell id="17" value="" style="rounded=1;whiteSpace=wrap;html=1;fillColor=#fff2cc;strokeColor=#d6b656;" parent="1" vertex="1">
                    <mxGeometry x="500" y="250" width="190" height="100" as="geometry"/>
                </mxCell>
                <mxCell id="14" value="" style="shape=image;verticalLabelPosition=bottom;labelBackgroundColor=default;verticalAlign=top;aspect=fixed;imageAspect=0;image=data:image/png,iVBORw0KGgoAAAANSUhEUgAAAMgAAADwCAYAAAEydhvIAAAACXBIWXMAAC4jAAAuIwF4pT92AAAgAElEQVR42u1dB3wUdfZ/29IDCYSShJCE9EKAhIAgHURpgoAiigXUA3s/vdPzPLt/9Tx7OQ8UAem9ioAgNbRACIGQEHoHaSFtd+f/3mQ2bDazuzObmd3ZZB6f95kwOzO/8n7f3yu/pgEbmlV8ZKuJYZKgHmRmmAnjEtotsPxfY/3j9EMlDN9LjAsJlRlNgx5LiV9Jf+utf7hhNIEUxDBsaT7DP5PqJFImUSJEJvPN8tdKpNxotpszsZVolYbjkth+BhsEvJWdDm/t2I+/MU6rzE5J+KsrMSQYHk6Orfn/91OnwIP3P2iviI4TqTDVfumTWzvY/cjU6VNhzJhx+DHGaSLaWolgScqt+Mn1uxxWyaxZ09iMVZjMddls5k+k3GjEhGqzhYrPnYc2z7zM/t0pOqrm/qJ5M9jMVTh4t1YilZgrW37w120Q+fRLENeyBZz4/CP2uSUvPlOrRCsXzcZngSvVTeZPBIvIxye/+LjmGUtpbCWxdukcqLJ5T3BJiEcu21zzcUtpTnJXa9q4fD5UYYmquPd4W1eVyWxXyJ0GDK9zz5Jg2qtvQP4Hb9WUtNOAEbVwVKuDvH3BBqd94cQ2QXBX50517kc/9wp2JTczmd5veOGqu3rW7buMZicoRv7y2DV4eurLTvuu/HWL+WVC3YYjNnOc0HuoqM5Sa9tzCuV2PYe4mAgjjqN72E8optedBbyCJ+o2a61oRXhs4/Ja/w+NS4N9z43XgEquEFtvqbFxC/GSYrm5v6Q4Ce9NxD+/xb9F1y2+y1i/p8cbOXjNlrMkeksCjnJMObNtofj8Udv7tt+w/K61vsHzsVotky8jdI+7z9u70m/WfdcxR0XGhy87KaXRnlz0Vh+JFlvX1iXjqYWRloT0YlqMkHtWGViAv7PP1KnjGUUlf9a3Nd0XHxtaBydyWPXjEmI1vOpXSqveFieyWPV2E5HSqrertKgkFr5hxWWmah6b0BZ2b97A/d/skB2UhL+63rslo+bvCb17wMPfTYaHyKp3pbqEWPW3paeCRqOBnzirXnR1ldtY9XzU8bV/Vbd9TKjaqjfzst1EbK3yR9fk1PzW8onnIeKpFyH33X/eBBkmtHDuDIcWfZ3qqjTVbTERT74A7987Gs59/Sm/1sOEViycDf2G3S2suvgs+l748kM9u7O/N5v0LIRjaU7YGNuU0Nolc3gt+jrdyl1LN/E2/vNnTsL+HZvg4jf/qblXgk5Rz3f+zwZPDHS9YyT794Kht2p4S0JWPR+HtAiHlf/4e60PxnJO0ctDbge9TltTupyV87HaHZTEmVVftH09FL37ep37Z65cgWGffAGnL1+p6SJOfvkJfwfpyKqnX6KzekHc396GitKrTmwgjSNb2LlF37ZzL/AJDJbfqm+TiQkFBMlv1Ydn9ga9X6D4RNDPq2JA+L+IzpRQQB290LbH4EBQqV6EttFBK37GmU0l1j7T89xsLYsh4cwHsWe9W9/n+4bFTNVaW/R2TNG2Nta75f44q48b8f9zeDK21Bonx6zYlsbbsXWnWX1Mj/+/2yqBidwzw2oSIYvewjzfW+XIquerOnIDuXs/1+mF7Xxoq8U6t6mOO/CygoJF3K377cjsAbsCn1JY3DVQr9vqqsEtF41pF6Ox62Hz0Y+FxcLyzwh9SGPdD7vgKVgC50zhIykJSQ6N1Fqmd5W5Hu4J33+lkavZTqjbQUHk8YYYdxeEz6JXAlbsWWz2JcK6juKzTubZu1ZOGdEb8xbB/37/Ax554GGHwy1CpMmILUiFyeRUCmTiPdcxEaKCAhxm4IVBt8Hk9Rth8rSfWJt/3NgHXJau6ILYc+Yt9GhaO2jfvKmgxEMCAmp5StNnTmMLNPqecWzOGAkwZl8iZscF+SqviLWF/9s3y+4zYY8/B34GA5RVVoKPXg86rbZWgebNmc4WaNio+wR3yYyjSC0fPbx6m6AvpzZrAi9nJsPHy1fBf1b+Vu3it42CpS89U+dZyyASf5NhYOCIMU4xhNVbOPW2rkmCC3Lfyq2CJZ4UGgRvdEmz+3uzic9CgK8POz5kLRV7BeqDzrzdoVEsyMw7ugkvyOhlm0XhkYIoi4fdWqtJVRqNvOELR5KxLlD3QaPrNDkqyPwh3YUX5M4lm1zqWL7p3xki/H0EPdt80nPg72Pg/c2I0tOT9LBAWbePtP6pECtMeEEGLfyjXvrv6oFdsPGVZ1x+/1p5OSS//DrbKVj63YwBI9iCrBjRU7it5Wwo0xkFJHaCgQv+gMPbf4fy61fZnuvZ2wfApP59oGWTYDCintpz7AS8tXAJbDx4CCXjwxs9sw6e7F2zqPY9IRLpO/d3SS2Sozs2OI/0CCAsSOGJzz8SLhETI61l1SarJ3s9vmM9VN64LrkNZr8gZpCFIjJ7s9eTO9dDVZn4AvkENRVXELPMtm54Vi/2epotUKmwKJneAIffez0JVFLJfeTK0D3Z5CFcSOaUOzKJaUY4S0+fFhunYewMmlvRW/gRy4DSA5bAlSsV4SKddJae3roQrkyusKm5d/Hydzs/s1MbbJ6/SMax9T0xecD3u3F/6vQSit+6v/4e2TJl6FOeZ9vhpdhiO2LmL1m+YYkcWuKldtKiUdmfLIXAZ816B5kRXEP43uP2nsffPuWxM0qsHKiL+Mz7eH1NYFq8YW29q2K1oSZiHt5/uIgNPWKm9Jz0/kZM8V+OBmNeVjiRujDNLipjJcUfYiIfWCVG7T4Xua2dWqVRZp1V5U2wyehyO8Behs8PxecoxKPlnjfgPaNWsn6FqZUwtfkgexLG+1SBVda4sCrEUQfvDeWuOqtnqnjn2FjT9EOH70Wz+VtPBxl1Gs3+MXExt7qkEGcfPsI4C8G4m65VGpMfTY4/KBgjkw8Uj68yMSJblvzkp9MdsFf5vAVhNMz7VYxZthLUZ3xEVK9lRGmYFTQ5VYizqrcXeNC6WhDGM82OtyA0wV6r8a75wnabllamcjBuLQg2Sq3EbVjuRmZHInWblqtZoGZq0Go9hBEHEhFaIH+dDv7aKZn9e/TU2dA+Nc2TGBGvFG+Lag29IlrUur91x3YwY0+YnpIqG7YcYIQR1Xze7ZoBPjr7TShn1w7WFU1NTnGfRGiQ02JOOipOkEEPb2Q7bzIUsNZjU9uBhaFxj6SkFDcVxEk0gsYuPuvZSbjEsPOgghDt3L2TVbhSF8Zur+VIH4rtwYL9fdlvWmjPnl3sDIbExBTJOmQtv0QYFif2mH5fefSMoAQOnj4DlTyzKPL27oYDB/c7Xe1ly6LB7kyxLyw5CX3btARfOwB/Z9FS+HbNevbvW+LbQU5xSZ1n8vNy2QGcmPgkucAubPrGM+t3wnf9ai8P6vrPd+Hkn5fZpvPp/WNgzC3Vv9sbAM1HyZiw2cXEJ8pjoggxtaxFbRnJLa+qgqJP3qs124GorLLK7sDngfw9YMKKi4lLkr77FWozjl2xGf5YsYAdgT3Bs4rUQkM6toe1+w/Y/f1Q/l5WabZ1sTB2u1+hBdFqdQ4L8P6S5fDV6nWs/tA4cQ2KC/LYJhnlQmHsFMQsKjo9Yc12mNy/Nla+/m0dvLd4OYu0qRMnQP+0FJi5NQdemjHH4bdKDuxjI0uR7RKkaFriwuzXKow1sxanb9oKr8yax97/4sGxcFfnzJrn7r2lCzzx43QI8HE8oeDIgTxWguGxifWVCCN6vGDUss2wbcU80CBW3rl7BDzckz8Mdenbz9jFIs4Kc/TgPraZWReGkRMj1tTp9pGwdNitTp+jwjw/bSbMydnJ46QxbM9HEwiOF+azU/9aC5AMb36HLPrjDP7QypXeg5bcrBrRS/DzZ69chQn/nQL5J0+xM4eKP3mfvb9q7z545IfqkYPw+BRoFVNdmGXDewqPa9Vn9oZOo4UhSzbDsmHdBT3fqmkTWPbSs3Xuz9y6vebv00UFrDXVIjpenK1ltlr/4gqb0GwftHgTtHryBVGV8NB3k2FLUTH73up9+2v9drooH84eOSSuad02fwNZhK2gnkTAz1+zkDX7o5s3g3/ffw90iWsHBjTpL16/ztb6+9hFU+GFhp9OfvGx8Cnl/eetr1dBGBuFWbB2oWR+h72CyNK0GCs2mYyQ1He47FEUrb0alZLNZhMk9r3T/QWpr0TsdQDxfe50s0QYediMhYnrfac7JSIfk2Rie93pNoyUMDJgxRozMS4UhjGZxBVk85i+3cSsfHTln9lshOhew0QVJKbvcKOognDUXO4uk0HJCClM9XNDSzff3ccAKqmkkkoNglyZnBnB/VlumfkmJ1ml53hyJvfwKLy8Zc/1pU2lrF0C7krbWQ5yQ2WfFFLxelfXxyuNtA0FI9ZNidbqa+vZnsvx4munedpO2qSQiG00YQo+N0FgWt2svr3FOuO76lkIxl4heJ4dz1MIovH4W76A96lSNnM8TrKmxU2WtKbnOS6388pka0lx0lpk+ZyAJK0nXT9p27SyeIB/Ax8MFIM1m50h3sSLn4P3Prd6bwRPhfBV2hm+tJxJ5DeRwikR+fwzmLEC5CwuYzR7VOegEAarMFWgPbBXItsO1c4UmbE/BD7nw6VHRBNWdlhNXtZiYeypBMs7x/CZG/YKkoc/dq4nXCKFPITp0JxfmolN/u6XyFE27d+ZxdE2JTYeCkqKeAsiBfUX8zAWiPZaXcw1mxgxTVNTPUtMMEZc6cHeQm7NdRxN7XXVPHvTHBFQcI29LRalKoh1k/wH8mmhuge5FPmsSFPpIatvLJSsIFhLO3luRzlY/WB9nwbkW9qzAOykN9Xqv8OxMH4uTcH8qbC4S4BBv02J81AZhUyAv1ZhTJ2QHF8gu1/1S1GJ11v97izAffGxGtkE8uPB4t1ajaajGh8QLmQTw6yekBQ30BWvyikZzeZwuSbMMw1UUGaGEbWpsiiBVJnlm/jfULszs8hdGkQiRBqBMAwDjYVkFUhjQIjU1prMCFHuoiulgk5xXRajfCjIWgKxk/fqLRBP6QOGS7tfm1bQI7wFvLV2E+iahipOP8kqEE/qEFq9lRQSDPfGt+VdwXX6WAks3rkAbuncBTJS0+qPTIkEy8iLEPfoEJr+HWzQwwNJMU634rRQVkw0LNm1B7bt3A5bd+RAVxRManKqxzpNiyBkFgigQBjJux5SfMNiIuosvhRDPZISaqba0pKOHBTMNhRMdlY2JCeleKzLklUgZqu1la7oS3qVpstnNA/B1h/tcPGoWEoObw1VRiP4Gm7O4iLB0LrN7SiczMzOkJyY6vbgo7wIcWElSS2B4Mti1pC6lADvbQ3s3r0TdqFwOnTMhCTsytyl/MUmoxXXZZnrxbRI9/Hfd8pW+IRWLZ3ISwN79+yG2TOnwYED+9k1V2LOBORjWiPvkM0y+iGuLlGyrZTH1++C1b+thKK3/16vby3YsRuenjpD1DINSx727c2FPBROeodMiEtIlg0xYr8q2sqSysbq13cgLCk5BcNiIwQ9T+vFxn8/BX7Ny6+18SxtUvvEgD7w9ui72P+3ePy5WnrEmWBoafC+PbsgtX0niGXXOjOSdkuyCkTs+lBnNLfoOAyIagX++rpzNFbszYNJk6exm09bds2uMpkgIjQEpj/xGGREteH95uxnJsED3/xPNGoL9uXC/rzdkJzegV2ELhVgZBaI4y7LFdg/smY7fN+7Ezw1dTosRj/CennoDWz9dKjcx2PvFvy9vinJ0MTPD66Wl7vUnR7M3wsH9u2BxLQO0JYQU0/JyNtlmRiQ2i+kvn/ShlxgYtKgZdFh+HnSI5DdLtalb/1rwWL4fNVau4v9xQjm0P69UJi/B+JTMyAqLtllB1NehNCicpmsRQrL7Hz3TQg0CM/Sv1f8Cu8sWlaDKkIoCWPmU3+BHokJDregFyoY2hegCIUTl9pB9HJ6VwQiqr2PXr7Z5fXTQjP/fMcE6B4exvs7nVbyysy5tZQ2bdzzv8cehiEdM3jfSX/1Dbh8o0win4KB2JQMiIhNEFOmwrmDuyfJIpCRyzafwVzJJhAL0S5KPw3sAnNydrB7KPjqb6KGlPznD45l91cQSnRAY9or/6x3V2YtmOik9tw2B05PaS9cMPRWeQQyfOkmWRFiS5fPn4E9W9bD+2NGwsR+vev9vdKKCoh74W81O0hJIZgoFEzrGPuCYeycwiGJQIYu3uhWgbCIQHf6236ZENNE+sMnyan8ZUsOux+AvQNpwkOawjfjx8GfpaVwW3r13me2m4WQYNokptVsP2FjmBUuHd5DHoEMFrAHh1whIpq7PCCYgRf79QQlUIsnnq/VlVoEE5mQbruVRuFynuNdJLGyzB4ejPvtGp1tvAX2/LES/jm4PzzWp5db05+/Yyc8PmU6iyhbYVisslNF+XDq0D5oXVcw0iNk4AJpthKRgjRaHRRtWwvl166w4ZNRXbLg7VEj2E1hXKV9J07CR8tWwYo9eWwXZunGGHAxhoeICYtOKNzz8iS5EKKg8WqTEWKyeoGWthTKWQfLc/NYtu0+zYy5eo9MLu/k2FJFWway+MjHpvW77Avj9y8eL5bPMeTvsjwrJBPtL0CCwW6kBAVTcf2qdX2w2y7pvGg9pV4cApU7qYc2VSHB0M5KJdvWQeWNa+CN5FVKXSBkoG3n3qyOObZ9nSTHrnkFQhQvG9QxkZk9WcEc375WluPjPI8QL+wCaA+byKxqxBzPWSP41DjpzEGNnAgBryXa5ikyqw+rY04gYtwlmBZJneCEiOdF2R8oj0fl3FPLHWw2myECBUN7dxn8A2UVRtOoePBv3voB2RxDom6z1obj5RQ0EKKu7CR2ZcbyG5J9U2fwgTbdbqfuMmTLmH5XZBWIjXBowf8k5GhvF4xWp4ejfyxjdY44FaEB3yahEBKTDH6hLYvNxspvUAjHQCWVVFJJJZVUUkklJZnhcieQGhtHZvE3NrdX7y8pHthQKtHVQ5/thk7wg33wsq6e+bI+zNzGwa9DJhULdvwhFMYLEghDJYmIEPKend/ovLLR2OovKLu7iNchCIOh+kRxGu/fY7sDoD1KiY2jWGw//LMn9y7F6GmPq9/wG8c8JRC+7UT3Y4b6eKg/DuQqRiDV6RFjkI86+P5/8PKsgHxY/jRiXRgkLN8Y4N/OMgXTOWAv/F7mIWG8hJeP3Kl8OSrnhEhTVsJtGy33ng+37WV90qc02trcvozfDa2l1AUqYlkpDVskwy+Mc5jhVnYKeBns7FDJ8+xYntv/wm+/KVB43yFPcFEQNHeV77SKvpj+73WsLB7qLHBXStqUNUMKgWBivGawPWG4QHy7N9OOnW/aSVcjESon4uVbm9tV+H0fu2ZvPWiVhCDJ5Lm3XKqPYwXs4LqMaBsr017DI2PmZXzvx3oI4zxebNdWPIjf/NmhH8JDO/ClbDf3WnzGhaRTRrBMMWiVYZmZw1B722M+ooqcgpU6Ba+V+K6vSGHYE3SeU8fQEx48Dx3huddN6kT2lxQZeRSrdUXSuoffbW774P0DKJRkCbKwG791Bb8VwusYKsilmMdzL5qLIthWGt0/J1Shc+9U2fAxOyhab0d/uHJwb1fuW7a7sDfldpHuqViBYMbJ9+CbCLvOsqe31d7ehCaxO9Uc4HoEC0fhtz6xI7yveW5fFFke2k88h/u7l53GswHTui6lUpdaKPGYQdIbwQIrmA4+eErgt9vjtyug+iwAC73AhY6c0XV8P6yeZaNy0db9dDar9d7sgVwjG4TPrNSKULD1iQbYko+DjDfhYG7rk1BA8hbLTvbI5Nk+jfduF6r/SDFz36aF72ec5JsOLcji0gqWsNFl81heRCtIMC4r7+8LisKCffQfajXQ32RmmkLjJo1eq7loYphVl8qq/vZkeuIVlz/kykuzDh/J0Wk02UqrFaVsxG80M+vGxsX2c4tAZhaXXNRqNM08HmtROGGvcfS++NgYWQXy08HiN3x02n95e2W5q/FUmMx/GZ8U91/ZBDL9kLxHVTQ0lNEBzQ8kxIpyLQSbvW/m5PmYGLVjEtmYNHDnBwCLX5UeIf+3uyC8ZaDPKWXCgnFaHLcofJ4kTpdWBP09K61UcoTQ6imzWRnb4HlTp6cBmRbs0OZlJrXHctJo696TbTN+9lz3Bq5D5Cid2PlOggViZjy4CpfxTGVKQnJtE8vqEMk2qG9EJ+yATAIhk1c1e2UHiBiEeMnGAZL1koyyBcLqEC+TCOOFghUuELKyFKo6ldyTyosQxpsqllEIShVkZXlFB8fIWwKzXGYvbQQm9OOMW7sEhkWuXqEHLMq2szW7LYWCfAo6l6N1gB+MSWgLwXodvLurAHQKPGNRNh1SHctyz/7njohOa+vSshncGRNZ6/5nP/wXXpz0OLvTdaNwDD3ph1C3RF3SyHZtIL0Z/3wK2uLiq//9Fx6f8BiYpBCKVFEJs0wIMdcJv8svHdqgPyLQD8YlxUCor49Ta4Y2xPx2yg/wl4cmSCMUCXoDk8hdxkTqEPdAhLqlbq3DYERspOB3LOMOhJTvf5oMj3pQKNYAk9EPkTf8Thn3wW7pnvi2kN5c/DQvg9UpPSSUH1AoEx4c71GhyGtlyaRDCA1tggJgfHIMhDjplhxRoI8PVBiNtYQyeeoUePiB8R5GiowDVLYfZ+opCDrZ8652bSQpeFhwEJz883IdRf/jz1PgwXEPe0woigqd8D2ux0q6LykaMppLO/u0bVjzOgKxCGXqtB9h3P2eEYrY0IlWTOWaRbLtfoe9I1vAB90zJBcGER29alfho1CmTf+R3QDTogvdybIIpL6ZIqcyJbSJbC0xvY3j8xBJKDNmoFB02prItTtYtqNXycEhP8RVZpA/yy2UTSDJEeFOFahGo4WZM6aigaxjy2Nhs5wsG0IkaC3kKmw5c0E2gZgEKDlCyuyZP2HJbyLF1X9CegbZEEJltZi+9eEpBUckFwadXxj59EugF3gMAumSubN+ZreIrU9ZhO4VLIuVBSDNVuN6rIwHVmyEoSEGGNOtq8vfuV5eDg9/PwXW7T/Ano3rZxC3HQkhZR4K5a57xslqfXmFpx7o7w8FOj+X3j105iyM/ep7OH7pT/boIRKGmTvnnU7XOXf1miihLJg9DYbLKBTZECL1JIeSK+L2Xl+WuxcmTfkZjCYze0IOCYMOK26NQpjx5F8gLTKCPffw+WmzRCNl0eyfYdio+9ltyKU+Lbr6m3J0WUy1py7V9BgDdvdHr5ZCtJPj8D5Yshw+Wb4afAx6FgUkjLLKKuiRGA9TJz0CTQP8a569K6tTnYMohQlFC0vmzYAho8aC2eTZMyA8Ouvku/xieK9b3b1r6Oz0x374CZbtyWPPC/TlzsclQUzs1wveu2ckf2EQNXqta0vvCSnL5v0Cg0eOlbT7km+ytQzBxaPXbrAZ1nJDr0fOX4B7UT8UnzvPtvIATj8QMj++7264v/stTr95Z2YH7N7yXBbK8vm/wB13IVLM9ReKrFaWs4+7MrZOca1/o7OY6WOGRxARhAzqkkgYpB+aBwXCtMcfg8yYtoK/+drwobBk1150MzQuC2Xl/BkwUCqhyGplyRB/33v+MszZt5sVAAmDhJIVGw0znngMBRIk+nt0eLEJFalW6/p5t+Sn/LrwFxgw/F7RStltZi/bZcmkyBLbZ9KKVegT3gw+HXevS4vnj1y4AEM+/hwuXS+tNVjlslBQ0f+2aBb0Z4XiviixKIHINWBYiejIffkJl949gf7IkI8/g7Pof+i50zkrqozgg0LR1HNaEL2/ZtFM6HvnPS4jRdGxLHusw/7+pY17RGX87JWrkPn629D5jXfgIqJCz3V3/VKT4fw3n8LTA/tJ0lhIKOsWz2a7MVePWZJPqcs4pn70WimcKi2DiEB/h89dvH4dBn/0GXZRF1nnUM8hom9qEsx6amINKl4dNhj+veI3FilSCOV3FEqvYXeLRop84XcJAouOmGaNPLN+t930r5SVQa93PoTUV95gRwZJGCSIzrExcPKLj2D205PqdFEb//FXySbO0bc3LJmDV11N9y2MZRwxFJcR8UxC+Ty39uahpRUV0Pe9jyDhxb/D4XMXWEGQJZUR1YYVxMLnn6xzmHCNsRDeGsb3vlUyFJNQ/lg6m8wwUY1NJqVOQRON7HN51544B8PbRUBLPwOM+M9XsPvIMbbCiUkQHaOjUAhPsU6jEHr/nlGwC7+Rf+KUZELZtGwOdBs8Ghiz9HanYDNkyOKN4T5ajVuOy2Ow0FtXzAedxuJbmCA5ohUse/FZCPZ3LUp824f/hoKTp6XLIzbMWwbf7fBUN2q6VSYmaNnwHqWSd1kA7jv8kfqv7kNG01l2ENW8GRz86G3Y8PorLguDaPUrL8BDPbqxDqhUSNm6fA7+YX+QyxUdIhghgxZtDDe4CSEWCgvwg//1y5T0m8cuXoQeb33IevNC/RR6lvwJ0l/WsTcLUrIH2e++qkzmoBUjepZKL5CFf4Tr3SwQotaBfvB9vyzJv7v5UBE89r+prD/jazDwVoQRK/mR3j3g0T49oam/PzQLCoS/zZoHP2/aWrvnwOc6WwnFGhRVDBO0Sg6B3LGABOKZI1eDDTqYMaibbN9fV3AAZm/dgcr/KFxAP8dEg2A6LXw09m4Y2bkuQmn83hZdDGOGrNtH1fFTqsxM0K939ZJeILcLEIicBlh5+Q1YOqI3+Pv6gqdpTX4BPPTdZF5FnzlwVK3Yl5ERJxBRs06kmoXhCvv6BcBtc9bA3G05HhUGDSXzCcOi6Hf9Oo+dYuRq6ESRVpY9Dg5uAt8cuQIZr77BOozupiaPPQUTJ//s1PrK/XX+TaHIFjrhZr97mg2+ftAysydEP/MyDP/0S9kEQxMm4l78GyzcuRv+MXchtHjieWji7y/YJN5DQsGrWS6zd8D8DeFajXLOUa+qKIcDG1ZgH01LEQLRIx8Jw7M6ua6jqqpgxuZt8J9Vv8HJS5fB38dQ0yvUJ4jf/YEnguZ0aSe9Uu8/bz0KRKMYgVdHrdkAAB47SURBVBBijSiUg3+sRP9RV1OpFFLpmZQAQztlsIHHiNAQ9h61WkIYTZQ4d/Uq7DtxEtbuPwC/FxyEoxcuseMoUkSGbckvqElQ8ftvyLDnIihn52iLRafz8YPEHrdD4aZV7JAtzV6kLmL9gUKW2Vn3aIYyljm22PzIqaPKt3buLGiQhUQOkokKv3uKHVl0Ol9/SLj1dt6YElU6edcUmKSpRDR5gv6v1Shz1weRSt0ey//PYeooMUJKXPeBDgN93kISWFmeRU9N34tIIaGYTabGIRBvoGqh3KYopDRox1AI69Gjj+3mvd2XVyh1sUxI8VahiNMhXvSPFH101wGeF4pcoRPbdc6KRwrXfbVVglDcYfZ6Cxm8TCgS+CHeoeijuvT3iFB8AoJl6rK8TLHXUfR+gdAm271CIT8tadiDjdcPcdp9+btXKDQf2BAQKI9AzMCcY7y862K7LzcKpWmbOJib6Fsqi0C2jOlnaihIIaFEyiwUxmSC0NjUKllDJ2jfj2OgYfzT+wdARHY/WYRCM1DCs3qD2WwcIrqbE/tCt1lrd+Ils6GgparsOpza/jvb30siDBRwq/bdwC80bA32KgNkDy5iIjRr7ZuGo+iDECl9640Uep9CNm17DiVhfOCKMFxCiA1a7scLwVLv7YKpuHIJzuZtEV0lOoMvBIW3haZtEyo1Ot2izaN7zwGVVFJJJZVUUkkllVRSSSWVVFJJJZVUagQk+zTw1Ni4Orvk7y8pPtVQKhDLR2O0tsc9lGEZ/3Tle+6I0p70RENwI01E/sTm3mLk4fUSCEo6HC/PIfdGDhX7IWwRSY20lzELvCdcICiMErzEqD2450mLwvhFFYaCBIJ8r1oNyhKISgoiR1YWjZWvRGVtVnIBsMul1fwhyGHEmN91It6lLbMHIacg01JcMsc3I6/3VLntCWQkZmi5Bys5ES80WSBD5Ktk+zcT8P2v8PKEk2foIJLOWA+FEpeNTkZL4/lpH6Z1zZ5AVnpQGL/Ipdfw24SCSoGP07T1g/jO41hR30qYjcs8fth5TKOlIx1S5SFhPCyzkVHpwjvfYL5CJCrfND6n2CIMJSr1KTIK+wUHP59ALnTQEFdKkD7pq/t5fsp2d+hEaIb7O/h5L/JM5DKre6TEXxORxD957s3E1jnWJh+t8HLG5rmuEhTxKM+96Zj+DqcCwYeMHpDJS3bud8X85PAIMF6kQJrwlHMsz72z+O1P8c/nJWxsc3lu38C0xgmysvADQpcRRuNHj0mUb75WeJhPGG6gGcjPSiSMBLyM4vkpRKwfIoTOSVgJfAHNlyX8vtG2vFhZT6LAv+JBCXUjUu3VxGc234VpVEnuqeNHy2VuqWtk/taXKJRS5MXI9yG3kFgvLuO5vQHrbaErnrrHCTN+RcLP0erLszz3A5CHcUyVaLm/Avk+zMNlF4VB3v9gm9tm/F5vR+/ZQ8gxgew1hBVB3es0Ea9QSOVPrNh/upAcrSvcz3PfKQLtISQGC+BN+wMIFcoDWMFkJHwu4rU38Z1N+O5vIt6534E+CXMFITpooIQV+wUyecsUL3sFeROyM124WqLkm6Nw/+uKQJTiLIbKKJhDyP+H3APZnxMSRY6X2clLoERJP4rf6uoNAuELdw928HyFDEIqRx6Kf17i+fkWFz75Hmdu29JWFIpW6QIp5rn3g53W+r4YowKf741cZcOOFCzf9tVtRZbnGgr3NbA/YeSK0gUyneeeH1bcOeSstNh4A17/zkURXhVbOZwBY819HDzPd3KM2GW6YRzqruNlLM/vQViWWUoWyH/s3KeWvIMBhkLn77r47Xyee7OxQpryoIn0yESe59eKSG8hCqLSqiukwOgWnufuwfT6KVIgnBNYLtO3Sd/wmfGXCXEcCo8iU/o37HzjRD3z0N2OnlyD6foo1coSc2rLeJHfHujgtxacjrB3OEkPqcxeO/evKlIg2IpyBXRLH5KJivwjOBkXt/k2OXb/cCFbw/DdTRKVj8Iwj/H85IsoWaFIPwQz/TpeaKzjsM1PczlBvGr17Dc2XZGfk2+/Q8qUviUgK59x6S11Idrh4yAPZDnyHWl6BwrlXrdOev42/1BIE1/9E3qt5hGNRtPOOvGGNPtapfoRY/O3mWEKjGbm6wtlFZOfbZ98w515cUu7/PnQ4Tt8dJqftRpNmGKFwqgN0xsIwXK03GS+++HEuO1eD5Bv8gtDm/gaftdpNBmqaJXSJzeMzsfEMGsvllUOfTYjucwrAYLgaBXso9+FWiNCbaCqlpKDECT7LpVXdXsuI+m6XGnINsHBX6/7FPEXYRbdKBgF9X0qKZk0Gkhv4qP7F/75oldpkE9yDzRv5m/YjdojqrGYEaoR5zGfJK/gwvXsj27tKMtpr7JoEJPZ7GNGBo0am1JhLDtAfJv7+VA79h6AmKEeexioNrxKogAiT1uTFyAMaRFs0KoCacCakFEIQBjRZ9V7HCBUeWbVmJDFPBPS5zQmTctqELOXAYS0h9kMDW54nFFBr0QfRFa5yKRBzJhxaRCiNkmVnJtY3uaDmGkQR23cKsnf8Xmnk84y4/7aUkn+hq0wWbEmltdpEFJ7DdAHUX0iBZpYMgeEZAvzmtVBC1U5ukWDgPf5IGyYV4EAURtrwwSI10WxKC4tNUAYFSEq2dMgZm8cKGTU9uqMTNwocBMfA7QNCoBykwmOl5ajwM1qyxfsg8jbjtzqgzRmQFB9ECB8dFqIDgqETmGhkBASBL662vuQjf3yO7juHwTdMrNo0qfHw0aM4uu1uqPxOoA05nEQKrcRG7dWo4GW/n7QIawppDdrCqG+Pk7f9UNtsmp7DuzM3QXdO3eFju0zWI3CqEEPjyBYpnEQplFFsaxNpZTQJpDZIhTaoMnkSpQ7NDCQfU+r0cKWHTks39I5GzqkZ4DJZFIBYcEFc/NqMqthXkWZSkZkPzSN2jUJRDA0g8SQYDSVpNmxJyI0pKZT1HDrabbu2M5yVxYo7cFoMje6uf+Mg/veN5tX5ti0O4Vi4kyl8EB/6BgWAhnNm0KIAFPJVYoOaw46bW2wWYCyDUFC3CUrG9qntce8mRp9pIPxzqkmDJdp75IeqWrKOwGAfIYsNJWiggLcmofo5s3BV69nfQ6NzYpMy/9zdm5nORuBkp6WjqaXGRorUhiZm5lerlwzMs+ylCaQYAY/vQ7imwZDdstmkBQaDD5az25uGNksFEIC/OHi9VLQ2VmybAHKdgQJcefMzpCWmt4ofRSG8UITy8yNg2g19S+8VL0MRZWowUUG+aNmaAYZYcKiSu6mFsFBEB4SAueuXqtjatkDyo5dO1jO6tQZUhEojSnqxTBeOg4it20oBBTEXVqGwq3hYW43lVwlHzSv4lq1gF1HhZ9SZAHKzt07WO5kAYrJ3OAnNHqpk14d9tR4sFfx1Wvh5U7J0NzPx+uEnhYZAXNhp+j3LEDZjSAh7tgxC1IaOFAYr5yLxZlZHpvtjglfq6qCucXH4bHUdmwUytsAYtC5ftKXBSi5uTtZ7tAxE5JTyPQyNbjoMGupyGiqyKNBuDXpnmyXOtBC7vnL8GluITzTIQEMWq3XCD2+dStoFhgIf964US9wW4CyJ3cXyxkdqoEiZXjY05qJAfDG9SCeNbFqQIINpOjKdfhgZwG8iOZWgF755y+evnwZFu/KBaNZuoiUBSh79+xiOT2jEyQlp3OTIr1bpXhlmJcBxyOfLlpNLn2DGsepGxXw2tY8iDSWwoljR+G5QQMhpoXnT2KgQcjNh4ph+uat8Nu+ArhUWso66XpO20ltGlqAsm/vbshDoLRHHyUxOc2rw8MMeOFAoWXBlEbqnqIeVG40wWFtAFxr0Rbm7DsIL/d1P0DOXb0KC3fuhplbtkP+iVPsOAwNCloaboCPT02QoxIbLQFFJ4NpSOkR70OQEKej6RWflIrOvMnr9AkD4I1r0qtZca6xyQz+fv5AhwwfvlrKzqWSU3Dbig6z2mHV3ny4cP06+KDjreecbwOaewbuyG2aW1VpMkJoQAAMSE+FcbfeAt0T4uCVmXNh8oZNNcCRAyisRuGAktq+E8SjRjFzGsWuf8EoCyDeF+alKRtaM2gU2h1VYP5mHjwKr3ROsTtaLZYuXLsGS3bvhV+2bIO9x06wA5O82gG5ssrI9h7JEa3hni7ZMDK7E0SG1j2g+IkBfWHx7j1wvbxC1kicJY/783aznJLeEeISU1g5eocG8cIVhZ6IbjACfRiaeFvw51VYdPgkjIxr41JaO0qOwC+bc2D5njx21NvAaodqc0hvpSnIz6gwGtnpI31SklA7dIOeSQmCwrjtWraAB/H5f69cLZsW4QNKwb5clpPbVwNFyeMoDHjtikJlmVi2lUhh34XFJ9l1G11aNXP47kU0j5aidpi5NQd2HzkGVWaaw3VTO/j7GG5qBwQD3U0MbwWjs7NgFHJU82Yu55u0CPktJ/68XOO8uwsoB/JyWU5K6wDtElOrp7AoDCjeaWJxkQWlD89ptBr4Oq8IggzJkNqsSc393GPHYcbmbbAMQXH6ypVavgOfdgj284PeKYnwAPb2pCXqM8hnS82CAuGlwbfDU1NnuA0gtkA5mL+H5UQESiznzCu14/MOgLC73XlHPIQ03ce5hVB19gT8tnE9OsvoOxgMNTa/tWlD2oHKFdeqJWqGTLi7azbEhDWXPY/3dusC6w8UwpycHeBnMLi/I+HqohBBUpifCwmpHSAmIUURcmY7Y28bSTcznh9JF0NVRhNowiLgtuFj4eC+XXC8uBBMmHnSDkG+vqzPcP+tt0Bf1A7+Pu6b23X43HmYsmETzNu+k53+7glw1AWKBg7t38tyfGoGAiVVsgFHxsV3vM4Hqa/q80inxFQvluqc1RVeGDoYujYLQu3QzK1ZOH7xEvz4xyb0dbbD6ctX2CiYZRzEYrYJPSPEHRqlCEFShFolDjVKNAsU95teXhnFMnONTeOFsxgulJVDVHCAW8BBIKBxkumbtsJRBIf1KLr1oCFpMn/UHgMz0mBoxwx4c/5iQetF3AIU5OKCvSzHoUZpm3Az6qUR2MCl8He9zkmXEhvutHNJqB/vOggPplTAiHaRkn6bomHT0fn/eeMW1nwiZ9+iGWwB4aPXQe/kJJjUrzf0RtPOmsjkG/rJF1By/oKkAYH6apRi1CjE7RAoUXHJbpnrJfdIuizaesTSTeEGnWY3frwVeClVYC/YO7IFPNch0WVf6vKNGzB723b4ccNmOHjmLKsd+Bp0RZURdDotdE9oBxMREAPSUp1qhyqTCcZ/PwVW7Mlzq18kpkOLTUGgxCfLOs0eP1tYZTRnLrqzR6nXAGT4EvcAxNVKFzLxkZ6pwgTCA/zgnW7p0EzAwqtr5eWwYMcumLx+EzvXSqvV8AMCNQRFybq0i4HH+vaCOzLSWfPKFZq5JQeenTaTBZ9GYVERC1BiECht2iXL4qOwADGZMxd7E0CGLd6IANF6tQapZeOioJ/uEA/92rSs9duNigpYvGsP/LD+D9hz9DjbQPkaOoWHiTpFt2UBMbRThqQRqVLMxyM//Air8wpqBi2VCJTo5PYQiaYXI2Fc1qJBlgz3IoAMJYBoNQ0CIDWNHIWaERYCnQxVMHndethRcpS9zw8IE9so2kdFwiN9esCIrE4Q6Osrex6PXLgAD307Gfah9lIyUNompXNAqf+UJAKI0cRkLvUmgAxBgOgbGEAspEWT6c+zp6A4NweMVZWgQdOGxlGMjBmSw1vDI717wOguWdDE399jeTxz5Qo8N20W/JqXz2oqrUJNLwJKRFxKvZx5C0CWeRNABi9quAC5iRR0oi+fh0GtgmBUl84QFhysyGzSION7i5ezES93g8XZmI0FKFFJ7SG8XRI3e5hx6BvyEOuDrBjRUxaAeEWYV34xukDocFYGhsJOjT8MBuUu5R3FTZgk2nyoCL5avQ5+P1AIZZWVtQYiXSWjycQu7qL5aGTWXbp+A2JaNGcDD4M6pMOBU6fhjbmLqhfQ2dkp8sTBPDiO3CYxDcItGkVEBEbOtiZLd3LHgj/CdVpo2BrExj+JDPSHVzonQVJoE6/J97GLl2Dd/gOwJr8A9h4/wQ4+VnBrVWidjJZbecgXHaPAw5O39YWnb+uP2jPIYTq0VmbEf76CwtPn2PEdByqF1SqRCJTW7ZJraRSHGsTMZK66q5f3mFi3NzKA1PSmKFBfMMMjiRFwZ2qCV5eFZipT2JoWa1G0rsJkqtkvmGY3B/j6sDuviAk+PDdtJkzbtNV5BI+pdt0jE9OhVSyZXianAPlVJoDIZmJBIzxAh3pdI5pb3xWdg492HYIE8zV4bWAfiGvtff0EmV4hAQEsS0VNAwQGLkhr4eVk4T6WIwgoMdVAYdxsYsl2/AHTmM9IxwoIDm4CZ7Wh8Mi63XA8bzvckRADfx02mD3eoDHQeTTXJm/YCMtz89hZBOSrkM8jZvzHYtqdRpAQhyNQWiJQbKNeXrdpg5SoZiSwBz22ZsFkBD//QEi6pT8cLL8BfT75Cq5cPA/Zce3g8QF9YHCH9i6PoCuBCk6eggOnz8BdnTNr+Rvk03y5eh0cOnuOHeG3sOuOwE2gnCrMg/D4dGgRm1gz4Oh1TvqA+RvCtRrYDY3MB3FGWmwkFWWlcGxPDty4cgnQdmano7RvEwmjumQiYDIUqWFo1nFO8WFYvW8/bCosYpf/UqdjDW5y6CkyZtDpa9bmy6mhCRThCekQFpNYCDp95qqhXb3HSe8/fz0CROM6QBq486LR6qCq7Doc21sNFK3VEl4ahdchaOgotk4xbeHWhHjIiolmN3AQbMOL1K60GOvohYuw78RJ2HXkKOw5doL9/9WycraFsBtSKHLrVtbRLQwIbZ556O2/e5GTzkCD33a/XvVjRlfe1w/ade2DQLkBxwkoVy8hMHTg76PlTJXrsDpvP8vUiAk8tJUQjSdouTlfNO5AKx4pkhSA7GfQsxEmGt1nN58zGtmJkWUVlVBKXFnB/k33TJx5ouU2p9PxhHOVOF3Ftn+nfQXkXCMvI0BUclpPJjPofPwgtksfqLxRCifycqDs6p81GsXaWbXeLMJCNGZBTBpADHmz3+NuUkfSFaFRzKD384fYrv1Y04uAUo5AIVNMpQYJEAbUc+9d0ShGVqPEZJPpVQon87bzahSVvBwgKkmgUXz9IaZLXzS9rsOpfahRrl1WNUpDAoiqQKQAiok1vaI5oJzetx1NLwSKqlHc1tZkc9JVktaZ1/sGQNvsah+FNEqFqlFUE6vx9oiMHY1SHR6OzuY0Sv52FShe6aQr8nCQhkMU9ycfpW1nAso1OENAuX6l8QLFG49gU8ldPkoARKHpRUA529iBogJEJUdAaWMFlMpGBRT5WpxWbV4NCygGTqNEdekPhoAgZ4uNvB4YWr0PtEzr6n1OuhrJ8mCzIR/FLxDadO4HVRaNUtrwNAq1sYCw1hDXbyBs9TITqwx99DJVqXteo+hQo0RmVwPlXH4OAuVqgwAKw5jBJ7AJhEQnlV49c6HSq0yszWP6XsYGtMIyJ6shsjf6KJHZ/Vk2+Ad6t+mFqkNn8IWWqdkU9p6/JLNFlTf6IC8j56kGj8KA4l+tUYj1XggUyq9PUFOIyO5L+V9rNho/kDM9WUcrbpm5Rq/RaGbin6PU5qk8Yhduocl1fv8OxZteND9NqzdAi5RM8G/emoDy9ZYx/Z6UvY7cUbhus9bG4mUGYUZtlsoECjnx5/N3sL6KUoBCfgaZU/6hLaBZfHswoM+BwFiBPz2E4Djvlrpxd6ERLL3x8jTyAOSmavNUoEYp2MVe3X7IJG1Wh1qCnO+AsHA2QoU+xgXUHssRKF8gKHaoUlJJJZVUUkkllVRSSSWVVFJJJZVUUkkllVRSSSWVVFJJJZVUUkkllVRSSSWVVFJJJZUaFHn97lWpsXEP4uVjcLzQj8q5Zn9J8VhV5IqU4V/w8o4AGS5HGT7szrwJWpOeFhuvZYCh837dsQtKFVaCmDXGdOxSCwHPhahNUbEUIFCGbl8eobdBMi1sehGqVwC2ttx382lR7yK/rrYZlZRAeg4YSXhZhxyugDyZVLGopBiAIDjS8LqdM1VUUkklKyKf4g0VHCqpZN/E6u7iu8eRTyJfJccapIuIFapiUUlJAGkj4vktyHfsLym+2pgrDc3SQLwkIqcgt4Pq8+CbIPuI+Iwf904wchBUR3L8ufu+3LeuIXfA+j4iYd4p3yOQByG3R24u8NWLyAXIvyIvxDzlNRaACKULyKMbIziwUVFjfZHj5m5MmgIWjAT5fwwvb4FVZNIFonL34Pgt/CbdO4P8AraJXxQru4QsAOPlKfjnwwJfoWDVcCzTNbEAOYp8rpEBg+rnB+SHvDDv5F9+hvyUjMkQ4GZgWpNJK2GjWqWwOohCcGzEP9sK7IzGYRlm2jrpKvFXbhheDngpOKjhHpYZHLbm4kpM9wkF1QHNmjgiEBwUxQ2zBYcKEPuVSz7BeuQ4L8y7AS8LkKMFvrIHmbbwTOfMKH+4ObKN9gn8VUTg5N/csIEHyx+vxTzMguqdPIW070kIjC7Il+vrgzQmepXqWsTzp7h35mNFlwpoxJF42QfyTH/pBcK2eN2L3NOBT1nG+Z27kD/CPNMg8jbkKAffpOAC9dyve6hziEGXbTMIG/CmgENfLP9ZqZz0eOqZMBNmkCakW845eCcU1gNThOpuEa88i2X4XGQy/iDfRNEogc/9LCbggs+exrp5Dv+c5+TRJA/JbQJe/ifw8dewPO8JeVAMQGii2FAJy0ROfykoj0jAsQKf/coFcMhNFwU+dx82qs9FTgxdwWknR+C+5IFAylzk4QIep7G7XmLC5p40sY5pQHNZoQAxCHiOwP2FAvNPZhCFX52FdDshX8YG9glnrx/FhnPDiRYp476vFG1PstqA3FLA4x9h/v8qNg1PAqQov6RIiYc1RQh8Lg870iKlZR4bwTlsODTm8bVAU+91i8/AjW1YiGZH0BEDRzh7PZ/jAkzjuALAQYGFLwU8SkMT/TDP+a6k40mAHFKogx4gVAPuLylS5MxjbAzfcI3963p8xsB1FsTdbRqn5U+KgL2J6S10U9FMmDYdXrIU+Q4Bz3+HLXzS/kPFLicoJsybixzGRV6k4I8VChChdaLoQ0oJJFA9jeVnGZPpwAVuGOTX3FAsCiGfFggOCgJtqg84xGoQ6i2vYMUboWGTULNP8SsUUVbX8UJLkh/EBkxz7sYg3wXVc7CaSJzcO5gGBXH6YLoVMhUpWcSzNHg5FfNEg6U0f/BPbzOxlEpCKzKSIije0mFw4fRPOLa15ykq1Ywzp+K4hpjKaYh0EVqVIlykuSYoqOhdkC9iGSdiHfxXBUj96YgIdU8zY/d7e4Gx4ZDWvMhxHg+AyB+hCX/3C/jcGHz+//CbB9yQddJUlZwp6YioA/ge8/U057BfUAHiOlG04wo43yCAIkBvg8gTfFFIND2eBtwCZYjs0BSZeCePUYM6iI3EJAJAFNEah99vLsD+D+A0j9wAoflTA2iwkwtVvyDgHTItz+Pzz+B7X6gAcSV0Yw48XKUtpRmgQwQ8PhIrm+Yp3YMVnmun0ZLZMhGZtrZpLXP2ae7U706eobEOGgNxZWHaToEOsty7j7yE9f2JFYBfxHqmWdc0Vb2VgPc/x+cf57TJGRUgImjP0b3UqD+F6gVFQmzvBOTdXOizgouykKlCEb9oN2f/sADtRz38F5jfwWK0CKedhGpLucaHaAVrb8x3MY+Wo7Ga1phP0gxCZjHTYjeaPvMyvvuxChBxNvkarDgahHpG5Ks0WS+GY0/k+zjmew7++aiTRwciG/FZmjBJM3+3cL7XZc4EY7iytOKcXJryL3Rp9ioBWsxls4oPHDZ18DSW63v88zcQOMLObVzXj29eoAoQ+/QcF9UZ7WX5JkeUIk9CZvSmcyylXzASG5rZwx0cBRpaYcOniNokgVYAdS5v4LtvW/+grgdxENlBvpsDihREvRNNiW+O36WoCk3JPi5DvsuRu+Gfr7mxusivuY9bV3FDQTJ8nPPLhIbuaSlxSfW0eRUgQiv5M65B07ruUyIbDcXdU+h95CjkD5Evcd8l55Am222VKd/vcfmmYIMcEwxpsiaZMjGYTqBS16Vjvmg9C0XfJgt8hcBBIGE1iQb/GC/gJapoih0v9bT65HEeMzibmuzmKrg5Em6Cm7s00r0jmPdfJUqTKjybs8+pkVN0imLxNDHuczHppMXGaxhgaKp2M6g7ik/+wCJuRFyq+iKzkcKdHbi8R3EBhVAuDxR+pvlOtGkBTVakBUW0NCGPA9ouV0elHeSJxpS6gvPNq2nG8Zp6pJMkwpci5XH6/wGCYOGPewRFRQAAAABJRU5ErkJggg==;" parent="1" vertex="1">
                    <mxGeometry x="610" y="267.6" width="54" height="64.8" as="geometry"/>
                </mxCell>
                <mxCell id="15" value="&lt;font face=&quot;Verdana&quot; color=&quot;#000000&quot;&gt;&lt;span style=&quot;font-size: 10px;&quot;&gt;bechdel test predictor&lt;/span&gt;&lt;/font&gt;" style="rounded=0;whiteSpace=wrap;html=1;fontColor=#FFFFFF;fillColor=#FFFFFF;" parent="1" vertex="1">
                    <mxGeometry x="520" y="297.5" width="70" height="35" as="geometry"/>
                </mxCell>
                <mxCell id="18" style="edgeStyle=none;html=1;entryX=0;entryY=0.5;entryDx=0;entryDy=0;dashed=1;fontSize=10;fontColor=#000000;" parent="1" source="11" target="15" edge="1">
                    <mxGeometry relative="1" as="geometry"/>
                </mxCell>
                <mxCell id="23" style="edgeStyle=none;html=1;entryX=0.5;entryY=1;entryDx=0;entryDy=0;dashed=1;fontSize=10;fontColor=#000000;startArrow=classic;startFill=1;" parent="1" source="20" target="17" edge="1">
                    <mxGeometry relative="1" as="geometry"/>
                </mxCell>
                <mxCell id="20" value="User" style="fontColor=#000000;verticalAlign=top;verticalLabelPosition=bottom;labelPosition=center;align=center;html=1;outlineConnect=0;fillColor=#FFFFFF;strokeColor=#000000;gradientColor=none;gradientDirection=north;strokeWidth=2;shape=mxgraph.networks.pc;fontSize=10;fontFamily=Verdana;" parent="1" vertex="1">
                    <mxGeometry x="545" y="525" width="100" height="70" as="geometry"/>
                </mxCell>
                <mxCell id="27" value="" style="rounded=1;whiteSpace=wrap;html=1;fillColor=#f8cecc;strokeColor=#b85450;" vertex="1" parent="1">
                    <mxGeometry x="279" y="394" width="118" height="70" as="geometry"/>
                </mxCell>
                <mxCell id="29" style="edgeStyle=none;html=1;entryX=0.5;entryY=1;entryDx=0;entryDy=0;startArrow=classic;startFill=1;dashed=1;exitX=0.5;exitY=0;exitDx=0;exitDy=0;" edge="1" parent="1" source="27" target="6">
                    <mxGeometry relative="1" as="geometry">
                        <mxPoint x="338" y="390" as="sourcePoint"/>
                    </mxGeometry>
                </mxCell>
                <mxCell id="28" value="" style="shape=image;verticalLabelPosition=bottom;labelBackgroundColor=default;verticalAlign=top;aspect=fixed;imageAspect=0;image=data:image/png,iVBORw0KGgoAAAANSUhEUgAADwAAAAlgBAMAAADHMd9uAAAAJ1BMVEVHcEwcHyIZHiENERAUFxkPExMBBAAzZ5D////V3+Ztj6mkuMZXV1Y6vbauAAAABnRSTlMAMGjpmcM1yCmNAACNVUlEQVR42uzBAQEAAACAkP6v7ggKAAAAAAAAAAAAAAAAAAAAAAAAAAAAAAAAAAAAAAAAAAAAAAAAAAAAAAAAAAAAAAAAAAAAAAAAAAAAAAAAAAAAAAAAAAAAAAAAAAAAAAAAAAAAAAAAAAAAAAAAAAAAAAAAAAAAAAAAAAAAAAAAAAAAAAAAAAAAAAAAAAAAAAAAAAAAAAAAAAAAAAAAAAAAAAAAAAAAAAAAAAAAAAAAAAAAAAAAAAAAAAAAAAAAAAAAAAAAAAAAAAAAAAAAAAAAAAAAAAAAAAAAAAAAAAAAAAAAAAAAAAAAAAAAAAAAAAAAAAAAAAAAAAAAAAAAAAAAAAAAAAAAAAAAAAAAAAAAAAAAAAAAAAAAAAAAAAAAAAAAAAAAAAAAAAAAAAAAAAAAAAAAAAAAAAAAAAAAAAAAAAAAAAAAAAAAAAAAAAAAAAAAAAAAAAAAAAAAAAAAAAAAAAAAAAAAAAAAAAAAAAAAAAAAAAAAAAAAAAAAAAAAAAAAAAAAAAAAAAAAAAAAAAAAAAAAAAAAAAAAAAAAAAAAAAAAAAAAAAAAAAAAAAAAAAAAAAAAAAAAAAAAAAAAAAAAAAAAAAAAAAAAAAAAAAAAAAAAAAAAAAAAAAAAAAAAAAAAAAAAAAAAAAAAAAAAAAAAAAAAAAAAAAAAAAAAAAAAAAAAAAAAAAAAAAAAAAAAAAAAgNmDAwEAAAAAIP/XRlBVVVVVVVVVVVVVVVVVVVVVVVVVVVVVVVVVVVVVVVVVVVVVVVVVVVVVVVVVVVVVVVVVVVVVVVVVVVVVVVVVVVVVVVVVVVVVVVVVVVVVVVVVVVVVVVVVVVVVVVVVVVVVVVVVVVVVVVVVVVVVVVVVVVVVVVVVVVVVVVVVVVVVVVVVVVVVVVVVVVVVVVVVVVVVVVVVVVVVVVVVVVVVVVVVVVVVVVVVVVVVVVVVVVVVVVVVVVVVVVVVVVVVVVVVVVVVVVVVVVVVVVVVVVVVVVVVVVVVVVVVVVVVVVVVVVVVVVVVVVVVVVVVVVVVVVVVVVVVVVVVVVVVVVVVVVVVVVVVVVVVVVVVVVVVVVVVVVVVVVVVVVVVVVVVVVVVVVVVVVVVVVVVVVVVVVVVVVVVVVVVVVVVVVVVVVVVVVVVVVVVVVVVVVVVVVVVVVVVVVVVVVVVVVVVVVVVVVVVVVVVVVVVVVVVVVVVVVVVVVVVVVVVVVVVVVVVVVVVVVVVVVVVVVVVVVVVVVVVVVVVVVVVVVVVVVVVVVVVVVVVVVVVVVVVVVVVVVVVVVVVVVVVVVVVVVVVVVVVVVVVVVVVVVVVVVVVVVVVVVVVVVVVVVVVVVVVVVVVVVVVVVVVVVVVVVVVVVVVVVVVVVVVVVVVVVVVVVVVVVVVVVVVVVVVVVVVVVVVVVVVYQ8OBAAAAACA/F8bQVVVVVVVVVVVVVVVVVVVVVVVVVVVVVVVVVVVVVVVVVVVVVVVVVVVVVVVVVVVVVVVVVVVVVVVVVVVVVVVVVVVVVVVVVVVVVVVVVVVVVVVVVVVVVVVVVVVVVVVVVVVVVVVVVVVVVVVVVVVVVVVVVVVVVVVVVVVVVVVVVVVVVVVVVVVVVVVVVVVVVVVVVVVVVVVVVVVVVVVVVVVVVVVVVVVVVVVVVVVVVVVVVVVVVVVVVVVVVVVVVVVVVVVVVVVVVVVVVVVVVVVVVVVVVVVVVVVVVVVVVVVVVVVVVVVVVVVVVVVVVVVVVVVVVVVVVVVVVVVVVVVVVVVVVVVVVVVVVVVVVVVVVVVVVVVVVVVVVVVVVVVVVVVVVVVVVVVVVVVVVVVVVVVVVVVVVVVVVVVVVVVVVVVVVVVVVVVVVVVVVVVVVVVVVVVVVVVVVVVVVVVVVVVVVVVVVVVVVVVVVVVVVVVVVVVVVVVVVVVVVVVVVVVVVVVVVVVVVVVVVVVVVVVVVVVVVVVVVVVVVVVVVVVVVVVVVVVVVVVVVVVVVVVVVVVVVVVVVVVVVVVVVVVVVVVVVVVVVVVVVVVVVVVVVVVVVVVVVVVVVVVVVVVVVVVVVVVVVVVVVVVVVVVVVVVVVVVVVVVVVVVVVVVVVVVVVVVVVVVVVVVVVVVVVVVVVVVVVVVVVWFvbtXbuM6wwAcaJyeoJ1eomH1MSIUtgqHJl0n4s8FBCaLRD3GyA1wxQswlnBthiA7FxIIdZzRRBQuKoBli1hiFz+LswA0eZ5KBeeAInfm5fed75wFAAAAAAAAAAAAAAAAAAAAAAAAAAAAAAAAAAAAAAAAAAAAAAAAAAAAAAAAAAAAAAAAAAAAAAAAAAAAAAAAAAAAAAAAAAAAAAAAAAAAAAAAAAAAAAAAAAAAAAAAAAAAAAAAAAAAAAAAAAAAAAAAAAAAAAAAAAAAAAAAAAAAAAAAAAAAAAAAAAAAAAAAAAAAAAAAAAAAAAAAAAAAAAAAAAAAAAAAAAAAAAAAAAAAAAAAAAAA/p+VypuVb6sT7W8/2vCDAoCA8btZOajWjqeoHuxviWAACFT7VnbrxzN7sl0WwgCwaOm7s3c8p/rB9iM/OQBIC9Y/bJTKA6WJX7VZmd53Ts/gfREMACPK5a3Kzsh+br16cHCws731qFy+/5WVveMFHG1v+GkD8BHm5Nb2zu8qW1vl8uJ5VtrcyR6lqj4Z5PCjDx+yuXt4vKAnIhiAjyl7t3b2qtXa/aCsV6sHO1tjdeocy+5Wp4dmtTr4jEH8fls7DqD6TAQD8BEoDcN32oTTICHnjrXS5u4cubm/dxxKXRUMwNqXvpW92erO+pP97Xkq4VIlXKLO34g2jgXAOhe/m7tzdX3rT2Y961OqVI9X6i+KYADWtvg9zDXl9GhqtpUqteNVq2/7DQOwjtXvF7X8k8aT6+DNveN1sK8IBmDt4nexGrU24bRP+dvw1Wy12u/fdjq933Q6V/2b6dd11O0EA7Bm8Xu4eChm3DsVuPs8SN7LXtw6SRH3rvv9yVvNTiQBsEYehKlR6yllcGk3ZOHb73TTs3ckhdud/qRuuQQGYF18FqxGHURw8mTS5mGwpZ/edqdk710IX/cz/0tH2tAArIXybtAW8dFoBIdqP9f777onc4leZ2Vw/a9+5wCsXGm3FnxC6sO08RdhFnx6GZ/k0L56k/79PfNrB2DV+ft4lkStz/s+wGfDKrj0+YQp5pt+p9ftxvEwWqO43et1rvqpn1K97Z7kFV/fpH78lxt+8wCstv6duOva799e9nq9dhy324OMvL7q9/uzZXF9Z6OUNdn1vH/ZTS1po/bgE5KR+fRd62QRUXoEG4YGYKX5ezhh5KkXpw0cR1Hc6/RvZjgutJeVvpP7yXHv6uau97xY/L7fDK65mBKAtfIgI38H4Tst+KJBTFZzTDLPlqiDurU2jN+TIKKrmgQGYN3zt9qfteyMr2ephEdHmbvzTFC9a52E0r6RwACsTf7WAgwctzuzZnB9gWGqxaX0oSUwAKuQtv+ba8+1/fpmhrmsp6uM34HT8T8UvvQQALB84zPKz/M2faP21ZQ6uB6wn5x7GEsCA7B643dk3LbCH/dZk/L3vbOxezn+7jkAYLk+C5+Rp1llcP1d+DCN47jX611edn51OTytHMfzt6HdSgnAUo0NYN2GaBGnXzz1/CJw9ravO53z88aYZrOTccPH3YEk90IDsEL3B7CCZWRKJ/rpq7Dhm5K8yRi+nPTSpPsbwUcPPQ0ALM13yRT6KmRGthNvIap/FWz6KhpUvo3ZdLIz+Kd7tf/3Gx4HAJbkTwW0n0eDsn+3drjp5+hlYw6DOjhrFKtmFBqAlSglI+hfBcwb/96InjJ+FZ20Wq04jqLZdpgbc2lmlMH3E9goNADLkXwD4fMiTuj+thecnb/DNxAO55eb5+fNZnP4r14vnvKdRGeNIBH8Inkcqf7QIwHAEnwyc/4OU/K6Mxw5Hngfkt14xrwevoTo68w3OXSa6Xu3l72JU8yn53NH8Aw18NGGhwKAwiUnoLPyN8oeeRqm5CwXRkfp91rGvU7+KeZ43gROj+AXyQT+h6cCgMJ9nsjfV1k16vmUlIxzNqdnKWKb2ZeCRHMncCPtiNVPtoEBWK4HieR5lbGDez4155rNXo67s6YF+/RzRO35E/jfrWnngW0DA1CwUuII8Nv047ZznPVpzTeaNXt6NrN2g3PUwCkVdfSLJjQAS5Q4Avwu9QW/jTDnbRcuXpsZ70bMkcCN8aWin10KDcDyCuDRCax/puzQXs8fbs3ZXiIc5Vi61wqVwJ2xlU7fmIQGYFk+nTgAnScj3xeY01vROfZuf21EtwIl8HgbOjkKrQkNQIEF8Gjm/GfhU7aJs0mTI7ide+FuiPPAqQmcHIX+xuMBwDIK4LEbKM8ai5l0Mul6kXVbYRJ4/DxSYhv4yOMBwBIK4PsN6Oi6sbCsgawF104rgnMl8OX97+uNw8AALLkAfrv4tmpKm7cTL/weoxnv0sjV076fwKeJw8AbnhAACimADzMnoMPkb8aBn5eLr5pyl8ZZiARO3MfxZ48IAEX440i19yrY+NXUkHsZpLbuFpLAySb0Q88IAAU4zGpARyHzt9EMN381uupFmMr6YsJZJEeRACi2AE5OYIXN30ayuP4x2LoXIY4Djy3z2lEkAIr1+C5o/hu+R3y3XRv0bNPE7eV8nfNudhPaUSQAght5DdLzwjJyoFXY5vJ4Ap8FKNFfjJbAf/OcABDYpxkF8Iuw+ftDIt3CNrfHh6F/XPxvhJNflMAAFKiWXgCfNgosgF8GXnwsgfMNYiVXSTShlcAAhPVJegEcBc7IiwKb2ykj1jl73BeZd0IrgQEI63H6CPRZgQVw1CjA/X3gs8X/TkiUwN94VAAIaOQa6LfFnUBKBtvLIgJ4rAud61Oaraw5rO89KwAEdHcIuN4qMCNbxU13ZV5mdb54K/tnJTAAxfjuQ8B8XWBG/vA/9s7nqY0jDcMe1rkzMvHZUmSfk8hS7d6ILHF2LA33ZIyqstm7AhxTtViSb64yGO4WwcetsnC4b2X/qxVgRhqNQNPT/Y1a7eepVJxKFUYN0/P2+/1qQXN96yiNE+2P+mpQIwsMAAASeBOBORfUyCOREViLFDibjY91A7/BAgMAgARfze1BOhY0wIOuIOcGgtCxXHKvxkRoAAAQYGteD5JxA3wuXoF1k8GducxJ30f/h3uBAQDAPJMa6OkSLNNB4v28DHCiFFo/CD1tgbkXGAAADDGJQP8qaIBP5WZQLiiFzjaOY++WLDCdSAAAYIjJFI5TuQzwdG9tvyvNH4bHcUxb4E2eGAAAMMEkAj01Bcu4Ad7N0QAn0sBD3SPDdBaYGDQAABjh/rwItHGTmqsBnh1mNdA+M0xZYFqBAQDACA/mRaBNm9T9XA3wzDc0UYc1ZYEf8cwAAIABtuZEoI2XKZ/mVgJ9w6dX2jc/xAq3iUEDAIBRvHkR6JFgBHqUjwDHg9DH2hb4PXXQAABgkvtzpnAYvypwN3cDPBOEzjgPa+pveM0sDgAAMMnDSFiO5MqkznM3wLO9SMe6kfOpe4E3eWoAAECb7RtZ+aecSO69kjPXaYPQ2tM4PkYC/BNPDQAA6DJJAf8vlwj0cX4CHA9C93Wt+2uSwAAAYI77c5qQDgQj0MMcBTh+L9JIU8MnrcAkgQEAQJsHc5qQBCPQ/Tz1Nx6EPtHV8Pd0AgMAgDG2kk1IkhHoUa4CHK/DGmkeHn6PBPg5zw0AAOgxGQT9Vx410L1uzpxrD6Sc/A19qrAAAMAUa5GonMu51GVFoGfrsDSzwJMkMFVYAACgSXQXcJjLRUij7upZ4EkeOeoEDnlwAABAj4fJLmDBOdC5R6DjnbzZ9H/y8d9E4YJ1nhwAANAiqsH6h1in7lQp8nH+AhyrwzrRi0G/ZhYWAACYYVKDdSoWJt5fUhPwnHsgsn2AOVVYz3l0AABAh7XkIOieXAR6sAz91bfAURq5x42EAABghqgG619yKrncCHTcAmcqMDtN3sfwM48OAADo8CBZg2U8BbzMGujZKuxMq9tPzsKiDwkAALR4kqzBGonJX6/bXUkLvJe8EGmHRwcAAHTYTs7BGoqlgPvLEuBpC3yoU4X1b65jAAAAE3jJOViCKeBR1wYLrPPlr2kEBgAAE6wla7BM29T95Ueg4xZ4pGHiX3MfEgAAmOCrZA3WoZj29ZcnwNMWeKAhwH0mcQAAgAkeJO8iNB0nPheT9qwWWD3J/VuyEfg5Dw8AAGTniXwN1tFyx2DNscD97PI9uQ/pWx4eAADIzlZCgE0navdsSAHHLbB6J9J+8j4kbgQGAIDseNuJIui+kyng2I0Q6rHwPQQYAACMCvBNRDU8kpLJUwuakGYnQg8MCDCzKAEAIDtzupAO3UwBx+8FVj4LJGdRIsAAAJCd+8kupJGbKeBYObb6QOijxCxKhkEDAEB2/pbsQjLsU/ctSQHHryVWLsM6Yhg0AAAY5GHiKoaeWOb1sGuRBR5l/dK3CDAAAOiTbAMeiInecOkCvJu9DAsBBgAAk0RtwKdSgeIja1LA8U6kYUYBfoMAAwCAPlEbcCRNB1I1WP3lC/BUS5RqQDwS4N+5jxAAALSZtAFLZWp3LUoBxzqRehmlGwEGgAwv20v8dX/8z/g/Vnst61dr8S8X4t3jRZj9mUi2AY+kPOfIAgGeLsMaIsAAIIxfKJRKpXI7CILqmEqlWrn8Mwga4/9dKvqrJRj+1WKu11Jpta5XUr9cic/7UJ05cziGUoo3tEGAd7PeyJC8EBgBBoA7KJQbjaASdqILXGYJw1oYNBql4ipob6ncaLZqtywmDMNqu1Ev8VJUYs4cDsM6eSRVXa09l6unKcAdnjUAmG97y81WpZOWsBrUfXu98Nj3NoN0q6kE7SJeODVf3fzcfhGqVbarBitehjXCAQOAeasYVGodZSqBlU54vJyW2mrCKk44JQ+k53DsW1WDFZ+GdYwDBgCjclVutDrZaTceWbacZrbl7LTrvB8X81B6DseuXSngWFK6hwADgDm5KjR11PfaPgbW1GWNl1PTWUm7yCtSWYD7UhFfWwT4j2wxaAQYAO5gTTVUe2ssul50ZDnV+iOei7t4Ij0I69yyGqxYK3CfHDAAmEDPLSbM47KFyzO0nLCd22tyFVuro0mU50KDsI4sq8HKHIPO0wF7133uY9b9eRQLfrFYLM2hUa5f/dP4TPOS8Z+XbXo+L0kAmR3rPzYov9fZ4CW6YK9gcDlh21+X+IhXFEuXnV6XVCtBZfUsUVKAD4Xs5oE1ArybaRaHeQfsNdrNRnv8ryvaQYxq0LomuGzd/0z4uaOwdvWn6hapBo1SEdcOYLX7XYJ3FF5O+NT8YeKb8Opv7oTT3+jRyj05yVHQZgV43645WLMx6OMMAmxsEtba7GN66wNs8DRqR3oJwCH7KyG/V7v1h3VXlmP8MPFk3ndZPQGOftVHMkJpXxF0rDBsYJMA50W1TjAawBTl7ZrcXs39uOyVZVYTGu5KckOAxUdBn1p0F6FeDNodAb7qD+C9CWDEL8pu1Rf5muBCa0UOE84KsFmnal8RdDwGfai+EgcEuNOp5LyvAZxkY1s8YJXjYdl7XJNcisk4tBsCvCY9CtrCIuhYHfRA/WveRLNeVliAzYeEAL48+/s4h52684MD9vfzUswdJlwV4N5Qxmsed62MQadfblKAQ1M//GXlgolDA+jo77N8duoLF+yv4aW4IcDRZUi/yuRq9ywsgo7HoEfKXv5tdJxbcQEem2DeoQCZN3Arr536fQ7RKj+f08RTQxWgbgjwhrAA79opwFMx6L6yAH90RoAFmgMAvhj93c4xWiUuLRu1vI79ZiLqbgjw17kJsFX6O/W5Bl+0AHd2HvEiBbBcfzvhS+GNWq6tWODNMQH+RaZa2coupHgMephZgF86IMAmyyIAvhwKtZw3qmSwKq9ktsGIuhsC/FhYgK3sQorJaepGpOgL3jslwCgwgOX+VzpYtbaVd/2n/lrcEOBvbj650HXAdnYhjflNOQkcfcF/b35mPzshwCgwgP36O1atdXcWo3+acEyA/y6ilHuvZCZMm5xR3VNdimsCbKoqAuBLwdtaxkZ9KaPAuZVfGT32u+qAhQR41LU2Bj1UVGznBJhKLIBs782cFdgZ/R0f+zcR4Hv3nskK8L6NVzHMNiIdqi2lFwnwT64IsGyBB4BjfL2sjSowkWNJ+qs94AsBXtW7kGY/Wl9RgKMH9jtnBFgquAXgIGu1pW1U49mijeWtJdSSSwQ4BX9Y2oUUi4731AS7F/22v3VHgHMadgfgAFo1S2FteaJllf5qpr4QYJU24IF1AqyaBI4EeBD9tp87JMAUYgGkQ/0ChjAMgmajXq+XSiV/vVAq1RuNRjMIMqif2WxRVv0Nw2oQtK8IxlSWoMBuCPCWrACfWyzAp2pJ4KhvqR/9tjcdEmAKsQAEtm2l2iiVireopj8W5Kaien1vcCkZholUqu3LBcUHOvvjhdSbLXUd1ugHdkOAo2DKqcitRZEAH9gnwJMk8IGSXjsqwDIVlgCOodCBFAYl31/oWH2/rGQhN40tRTWXHQYvir5/x0IUV6LV2+yYAP8lIsBHtrYBx5LAAyUBfm3st22XAHcIQgMs5EFaq9hWuHDb22jWco9VeUq57J3xelIsyCs0WrkYelcdsNEQ9CuLBXgqCaxk5p0VYHqRAMy4xrBdUt1NhVKrlmsQWmWYSEVlPV7pcUVegV11wAciJnPUtTkJPFIR4LfRb1tXsCwTYKPZJQAn+SaV/BazvBs8P6UNNiMz6e9fqNZV7/D1N9Lb4B8RYKkcsMVzOGJJ4EMVv/wx2mauCbDB7BKAmwY4hfzWs78YCs9yi1VtpH0rtLMNjSw0ZRswyAGr9M7aKMD7KqM49sxfB2yfABOEBtAzwGFbTwQKaazjd/oLSVkAHT4tCZ8mOp1Kpp+Yqw74QESAu12bk8ADlWj6e3cFOGs0CAADfEWgfbWYl6I3Vzv4lrYA62lR6zsV0gWiMw3VxwErZFntFOBzhY835zKklyK7OWwYpBkEQbVSwQIDmOBJHuNsvJa4BU5XgLVT115LeVvq4I8DXsVBWMOzG4bTdwIPFeLVNa1z20IB/tn479j3S41mCwsMoLtj7zanpm7W9so1YQucqpTshYnjuJdmbliWAZs4YAWL2bdBfM8uPr2Los69Xu/duUIZ9G7yLoaftLdzPgJ8rcKFRg0LDKDDw7vjteY2z8IMrd7L536a0ueiqbVsi7x3XBXgvpsCfHYxaftNcpBegAfmKiHyFOCrnZCi0RALDHAbtdzuM1nbFrTAaRLAbXOnCS9FPbR6CySzoPUHYZ2dXVycnJxcXJydycrvh0+v7qSvEE2PftnfrpoA3/MWtwaE67xmAdSNY93wXt2SywIvDkCbCqZ/prz45L+JAOcswB8u3k0UsHfyp1yn0t4C+U2To54zifL5ygnwpQTXsMAAem/LPAa5es+kTsqLO4A17ki4Jfi2bTwI7YYAi15HOOmdHSUtaSIi3JOS4A9Hi/Q3RRm0wCTKZQjw4njQDu9ZgNT7Ve7cukCBM1tgb6EdNVJ9NfOze2Y6CI0AZ55Euffh3XwZ/FNCfxfa31QCHIn4mxUX4IV3gG7ypoX/s3c+zU0kSRRHcutuI+wzY7M6w7DrmL05dlidvTGBzgsGImZm72O1jnvARnubiLWA+0gW97Wwv8B8rB0gUEvqqq6sqqyu7PLL4EjoT8tVv8qsly8RiujW7OJaXYV27oI0diAFmcrSOmB+WwDYAsDTNfzqM9J3cfhLcOqa8FtBxwKwQeDxHDstAqEI/bJ5sR3kDavFUo4n5U4YZ0h/AlsWodMA8EEJwIwtuyPVuKF5ZUF4zF2GXpyRYko+SyyNsE7ClLTq4F8lgSHDQiAUkYWejqBYqIfsKbBJAc0sv1qNB6zuIokB+LsAGbACwEY91PsI+S8BwKOyEZb/ZWk0AFcXtx5hr0UgSrEXYYzYPfahSAfR+Hvnzi7nlKdUAcyYAZetoAl6KFYCX56FA7A/KeMBuDIHfoG9FoEoxSCGe80u80nZYMHxMizBTPS/fQBe+oT9WAOAc1I+eh0iBfcVYSmMsBoN4Mri1hE2WwSCslqDr5eqirFDDc7QXRyYvyu88deSpwrg8wAAHlPTX6IvJPMFMOFLK3w4noVZ0nVpoO5BhoVA0KMbZ7nwnpS71fqrb4I/xQM2HVYaAF5WOH4OAODTNQCTy8Hj2gvQ5i9dmGry+XDEBXBFcQuG0AjEZvQZBwkwMdO6Bl3dAhxK/7wW33OlwGkA+F5IAK8OQ8rJ2ShbM1I+CQDg/zAWnuICuKIf8AjbLQJBY9e3od94wNewcFB//2/p6/SZUuA0ALy8k//JYjSfNYDf2MCQ0pVr9/YMAA7hwxEbwPri1jPstwiEeqfcjODlortsNei2BBPaahcC+nEmDQAvf5J/BQBwUbcd2fCXKQXOFZx9+/7m5sN8/uHDzafRhBMygIvX+h9ju2xkAOuL0LCj9ImdUuCZND+68QQTPa6hhD3eeUTcRxm7MwUATAfw2I6/PJ9hMwE+f3+9MXNpfkkF8Ejhw9F8AOuLW/ex4bpH//Dk1fq/bTyU5v+q8a5r2kw66EoPrBf1/ZHusjhspgHg1pIn0UTI54FS4MkGfqcVXKUDmNGHIzqA9WdReHFwbtUAcPNDdwVcS7Gox2JdUemBFbwBaTW+50iBUwPwpH4Af8pJP2Exn9+8tR2OQO+B+mLvMaU5hRhf7JDRriI6gLXHenhxAMAIylm1lovTNosOuioBDi3l3qBOnyEFTgPAd5ZAWVTN7uXIQUv0nU/1MwMveN/82pDYnlPL2WNOUMYHcIYaNACMIEQ3lgSrOgW2OClXJsA1TwGv9Lg+8ngmzdu3BiUAv64DwIrJg5esvcA5xVxrSH27WbkNmEEpHB/A2hT4GFsuAIwwIrCmUlGboRGpI0GA9TXu+afAiQB4uVvM+KcxTPT4nZp8M3xlWKeUG2UygCflNuDjQMuqXgC3YYYFACMsEpU4B9W+t2i40tNyO/4isf5OiQC4F3AgsAbA5++mZueqC77754Ku+Xy+Vve2B/B/OdWPAgCs21jQiAQAI1bwFbUCfefOlvclcIX0+OSo/gfqPw0mWQDzTWPQjDua2lHTtwL91dYjv5mc/QHSycr7XxLfTdEGzPFTSwDwbuSdBQBGNCCyyOdUrQ8XuQY+EHMBbDwQ0JKbRAC8HHL5V3YA58TLX7V5pF8NerSZS69MYiqMtmbE7xymDVgEgHUr+xibLgCM+Brd2O16Pc9L4HusQ5WCLBPLU0UiAO4GHIdkl/5uFKH9uqFmGx1Na1aYY4VXJrELibMNWASAdSsbbpQAMMK0Suqr3Wael8B9IR1IRdz1HPOUCIA74cygc5LBRj6/nueKFPgN0xXwO8VchqklgGflacAc8kcRAM5wCQwAI5wKuC+jfwJqEt5mHKkUuKrwKf58ewCchfOizAnl5w9fHDjOb+abmatfJXyy/m1maqdLautVmC4kGQDWrGxAAwBGLOMweq+Anxd1T+Ds0Spd9n3HrwQAVwBYMeTocrM4nfOMRMrXOZ6fGQB8Yd2FxHFulAHgPYwkBIAR1axQr5GH8StVtCy8wvjiH/GeauaVlicC4HbZDPoiDIDH0+r/cX61nrpesWiwLjYkWWu33BNbAP/KKlKSAeAMdtAAMMJljdS63Q88TOv0c4CjNvx75eWJALhQwU7CAljB343K8GcCn7KcA2brGF/3hS5ufIn+14G6kIQAuHUob2UCwAhJ0RFwTbPnLljSNjFFU2BVbIDUBCc5AC+CAljF302njvO1ZPUNB4DPf1FkwFelD3hl24XE0icrA8CacyjmMbClKgBw06MrYIl03Ku1XTkelNTM3FxZTwTAxXbB7kWZm/hb6lO6WIWyjwprsfEiE2UFOideewfqQpIC4A5UWMiAEfZn1Hrp1XIvIg8YrKTrrL6REvtUANwPZoU1OjMpqja9Kser7PTpR55sHCZmyklLIyKAi3ya9/ArBMAtDERCBoywOlPFMKvpu+aKmUQF1pf4k3tungqAl9/jO24A50ZXjZJZ9Jow2kMGvQnbXDloabT6vpR8+g0vJoUAWHNAPsK+iwwY8fmIKmKFdF2zWI5hhvXuPZSvlQqAy16U5+wAvjBqpQrmjhhk0OXL3UtVMj4kfuNAXUhiANyDDBoZMMK6Ulrzz5o5yqD1PUgCztgd506kVAC8nLPxMzEfdMDg1Hi5WrxzziCDVrzzRwXWiQAuXo23C0kMgDuQQSMDRtgC+KTuT+GI0V3BCXCFR6bp06UC4E4wJw6CyHhSvgP+xTzG1+L2ufgqH8tmXMRZDKNAXUhiANyGDBoZMMJ2gbyM/odFSxX7ghPgqgvq+7cDwAorrCumFNj8ghs16NfrN64MAF51vfz49u36LAii7lshgubZUqUAWFNhw8YLACP0kKh9pfacZNBt0Qlwxfng+e0AcGGFNeEGsPkFc4VF5MJfDDZS15anU524ynYUw0veRx+78tuHDBoARlgCuHaRRNcJpF3RCXBFCmxww0oFwMv054TdCotA9MuyQ9WpvxhsRHuJBa3YXZwImA+PYgC8BwADwAhtdGT08LgNLjuUnQA7l8iTA/CrBbcTB4Xok1Kz8NAfwMSXIJ44FCJonmm5YgDcQR8SAIzQxpaM9aFRYZ24JZhilnfmViNPBcDFfvF7DADnpekLI38x2JBUxc5pNfeiTP5v5hZ8MQAWUmIDgBEioyukQqRRYVX+eR34TFGKmwJXr5tkABzOCovkLj36isHrkoLqKmwGTLSCVomgeU6PYgDcAoABYITdXh9hs+/b57Jas0dBqztzmsiQDIB7wZw4aOMd8o/rZtE5I4DHfn3KOhE0Uwu+GACrj9ZoBAaAEZIAvGfPqUyoC/TaIaHvUoNOBsDdYE4c1PlK85vruf3VrHcGTKx1K0TQTH+9cgDcRyMwAIywWh4RftUtewDrbCifSXq+HZdTQjIAXv6qP3E7cSzcLDUm3nfRNAAPLbXS3CJoQQDeE35LBAAjxAFYTK22AqatgaN/Zb0p8MChTp4MgDvBnDgcZdX+auwRJ4AVImgmSMoBcBcDCQFghPQCUcvasSJzn2EYPQEwPONkAKxw4mBqBHacMDzzFoPRAHxqeVNciKAfpgbgDhqBAWCEeAAf2tJ0T3oPUsVOaBDbAMChAOzvxEGbM0gDfTgRtCAAtwFgABhB/kVjSSQGlnmiTgMt7napZ6+DTgbA4Zw4HAE8ZATw1PvjXSpE0Ew/s3QAH2HrBYARgjSKPUucZvJ7kKo/6PNbAGCFE8c4KoD9nThoDUa084ZKBB0Se1EA3AKAAWCE+Ay4ZykW7tpXdiU94sqlkw6AgzlxnMYH8JW3SLvQZLMvPTkAVv/9H2PrBYARDQZwX7gNtPmocHQLABzMicMRwP5OHLRXIF15Fy/FLoKWBGDlSv0ntl4AGKGZZyBnaoo2oW27OEzFifahbbE8HQArnDimvAC2zKj9xWCkVyD9pyId/5VbBC0JwD3xzfoAMCJStMQAuGMH4C2nOX+R00Bqsp4OgDuhnDjiAZh0vUuaxVAYUf7GfjcKAAPACADYG8D37aAm0mM2s3UMSRDAhRMHTx/S0BHA/mps0iuQ6tSzYE7QogC8BzNoABghHcCZ1UWprgnpuDkPuaLcmA6ACw5MUgEwpcXXUio95m+iEwTgLgAMACPSAnBb/hyGlbAVjKUD4KIHZUmb11EB7G+FRfHyIAE4DyiClgTgDqYxAMAIGwDHWB1tq5RWoyz+VuZTziyPCwkBePn3NeN14ogH4CEbgBUarEdBl5MgAGMaAwCMkATglhWAHcYHi3vKlhfcjQRwsEZgVwDXY4VFajceKowojxMEcAYAA8AI6QBWN0RpdqRmVaC1krFH6QM4VCOwK0g5AXzllwHPwhlRAsAAMAIAZgDwQ3pVS/DFUman2U4IwHuBGoFdM2BOK6wLv4kNC4URJdt2CgADwIimAjjK6rAB8F6DNND6x6xdPQkBeCtQI7BrJusP4BUDSb+ZhWcBNViSANwGgAFgBPUXbQSAB5aNtXIqsaQ764QArGgEvoqZAef+AF6Y35oC4FFAI0r5AD7B1gsAIyQBeEAHsCahFNzaoKmZP0sewFmgicCuGTADgGfmt6YAOKgGSxKAW42SawDAiDqjL2Z1WGTAmaWxRfxoWV0CJwRgRSPwGxkAvvIGsJ7hFACrNFhHADACAL71AI6y2VtkwN2mVaB1z1mzfFICcLkReByzBE1zafaVQVMAHFSDJQrAhwBwsCwFzxEArh/A6g8tWtexZXNmSAjAxc/6O2sfknM7kX8lfGSWQRMAnCs0WIx/wQAwMmBEYwF8JOFvSzs3VHMFLNpetm1TNU8JwMvv8mMYAI9rB/CKfJkFwCE0WAAwMmBEo/ZH4qjacHF3XxX3fWEm9uxasSWmBOBAjcDOGfDCH8ATI/wJAFZpsBiXHQCMDBjRpP0xOoDpsdW8K2DdSedF8gDulhuBr2JmwAxaMLMMmgDgsBosABgZMKIJsWXTHiOaZcJb+zsWKqyUAJyFmQjsnAHP/KcymWXQBLuPZRp9/op9GDAAjAwY0WQAyx4W1m/eFbC2bn6UOoADTQR2zoAZpjKZVVhFBjyNo8ECgJEBI5oQNomZkGjZjG0QfHjVF/tTAnCgRmB/AI8ZAPzGOQMeKWYRcvIRAAaAEY0FsOjdPmviFbCucP48dQAXewbrQEJnAJ8yfAqjCsvstzULq8ECgAFgRBMie9W4dFJdNRdvLtuh31wnBeB+kEZgZwBfMgB4YfomZgAvwmqwxAP4JcABACO0HomSZdB7TbwC1l4Cb6cO4F6QPiTnRHbIAOCZSdBtBnCRRAfRYGEaEgCMaASAm2dqYWGZ1YDPfZQ6gLtBBhJGBfDQpMIyOk6rRiGxMkm6FzQADAAj9AAWvD5aVpP9JKaCxlpDUgDeDdKHdOqq6BoyFMLNKiyT4/QwsAYLGTAAjGhE9Jsmacqap9v+ElvkWkNSAA4zkDAqgPOJ6UVMX7UoYv8WRncBAAPAiCZEr2kqrM6rhi7ojPzBkwJwO0gfUlQAr0iopm4AVoxC4v2BAWAAGNFgAMu9BO42U4Olq52fpA7gMAMJnf00RhwANqqwDI7TxR3xONBWKgjAGQAMACPsCqO8kswaTgzHDXjU5NGPSQE4zEDCuAA2XgIbkn2VBovXfU46gD0+ys7Ozv7+gwdPPseD/f1vdnbib1at1s5qbG+H+UgxAby9vfL1xO0y2zubsc34hXdaNRdGBYuaBg3VYFkcHdICcHkgIYMMOi6AVzJYJwCrbDh4/dcFAbjD91F27j548vSHMoX+8vTJ3/Z34pD3j9PAkyd/f/rD48ePT04+f5qT/7N3LkttJFkY7ixLe5UEXhtJaA3IqoiO2YBUqjUGSXtToiKm5wE8wAO07V7OwoSj1wN+AvME81wjgU2BlZeTmX9WZZWdza4dkLc6X/7nkjkcjkbz2bpL6D6VA+D7aZ/PT1djXP3J6H54cbw6+XhhX9a9u5//h+lH1MXkA46i9YKuVnQ+d7GeEgD7+h4DP227Ep6YJjUNuqYARhYC35UK4DzGKxiK4nzAu4YD68PxCMDbIPPS7s+Hmbilw9GsW6gZWLE3ng8jSZfS4TyGHgwKN3ys25+eDkUzPh/vlGt4WTsW9c4QwKy9HnBU3IgFVT3eBmkaFXw9Qtr1s7oD+IWLOqRHhH0uBcCqILCiTJn3FBJ2fT0CcAcA4LWhzQgtnY0LkmVhdxpltDaKYUa7WACH7al6dK9LE8JMvgR7RgNeFL7HFtXyQTermoMlOuss6w7ghlMAfyoFwHkd72cDADu/hsMrAL+0to5h/zQjt7QAHdyO51Gm00YzDIMLBDBbKcFiB6cJS9Wm0AUwa1MHnKXzMW7EgjTo7MBPc96p3NWZirMO5xOqF4Cd1CGVDOArRRBYft/WF9fXcHgF4IFl0mR7oge7LBueuAQC6w8z/ZYOETa7MAAHU61BjsatYjdVqN4UegAOd/VWdTjbcUq01dL6afEHlc3BEvX9Vc0B7KQO6bpcAKuCwPJqY14IGHyE9B3A5A+2PY1McAczj5syyaQ/D82+UwUBWH+QUaEIZn1C/3QAHMb6qxqB9pgoC8tTVUmu5amMej+sO4Bd1CGVDeA7eRBYDuBrzjUc4COkRwBOLAAc7JrizokKZu3TzKbRZRNrhZyfkANg7j98/DHCr9mkj3aK2lFbpFWgA5gZHqowx7xA+OtbXlvzSr1F+NCaxDqkegE4t8DAOiTVZcuuAXwhrwS+ko30SRWxs4/NIwBHxruZ9RcWtEvRmswWvzrngiG/cX6hvOlPAZsYS/yZ5K/1NrrG27XzVYu/t26/2+cRjng+oAKY7Zr7NNID+z3GhH/eR78uq+pFlOKzztu6A5hTh/TVFsDvSwZwDtEP2u8R5vD+21kavz8AZsb3/LQnlrQ7h2oy6+7odCqC/C39cx3bsjnznI81/CAtijd2n3NAIHaGCGCrAa+HbI3gpEoSmMowP52xxAzumgGYU4dkC+DLsgGcnwC4al7aP941HPtFfCdn3nyxFNPSt4dQivND2+gkg06VBGC2a/kHhWPbpAxpr2x8FwGZl3uFDFiu+y0ik55GgRsVToIWpEEv6w7gvA7pGpUGfWnszL4AAfhOWlMlBXAeAnZ1DYdPADa8CpqB9Cbos2kvMlwjiOByAAwY5fKVUwXM6D2kABgQVFhN8pGLyKSnidAviGFUz6Oh8gB2zQDsoA4JAGDLTGxFEFgSo+a9xABfXX8A/MLo4hwY8GytI0onaXaqDABjRP75kUMFHGhsCzWAWR80zXaOlkD8i/2rBaZW8vjZOrTe1wzADuqQrkoHsCIILMnSvnB/DYdPADa6CGsrwtHO2kX4WzDJwE3phi4BwKhR8k8XGAWcZEAAA5fVbo+JTxXpYSU0ZGXg9OKnBLCD95By/L0rCcBPKoG/6gGYFwI+qy+ABwYxI6zgfG1JYKj7+VHbtDwDcIAb5ZGpAlYBeDsDAjhALuvyFfoT+XYyb1UBwJV5XLRJyzavG4CTzTToG5ADWJvkMBF+Kw0CS5ztvBDwXn0BvNCPGYEdvnbWEarGyceCwgEMxdGRoQJWuKAbERDAAfZYZZNx35TtXc8ITExj8j4aKpUDdQPw43j+QKVBmwP436gw9IX0NkoxgK+KCAH7A2Cm77LqwWE3tJjfhhv+KghcNIDBKv/IhQJmSYYDMNytYUHgQOoq8SucmFUawPya69oDGP8e0hdjHXuLzwP7cKPzZ3ghYHzBnzcA5huXVqH8tUknZYvMVTvwB8Bt9CnjyEEMeDvDAXgLv6wWBJadLNI3FZSQ1QLwWd0BnLtYUHVIt+UDWB4EFnfwjhMCXv5WWwA3aYn/7vzPduVIbJK5aye+ABjvZd848dhnQQcRDsBOwgrmp7yO9NfueGTK+WXAx9WLhkoFfN0AnH9XqAisOUYf+ffnO1gQ+KPOe4TX7l9i8AnALzVdVruOYGdoHXuZy/bGDwAHDnC0hCvgQQYDsKOwgnHReeAI7AWdpysE4AEph6xuAM6FPyoNGgBg6zeJL2SFSMIgNTcEfFhfACd6Hdl2BjujfNJG5ra98gHA4HQk/uHCWgEHGQzAbgZsk28vj25DatkxrZNVm00dkkOubgDO99fvoDRocx17DQPwpew2SiGAvxQSAvYGwMSsB6euQXPr6DAArDgVFAhgzdwmQ5eDtQIewADscFXPWkiuSdPKPVKQWasyJGqS+l87AD8OCPUcg7mOxQFYehul8Mrp20JCwN4AmC8hDwv0hdrkk/Yy1+2gfAC7GuTzXb2wVMDaAlgIYJ2wfppFq4YJ65v7oKXBCg8cWml1AEyzR7UDcAedBm2M0Uvcg0x5nJcT0RbdFHJZTAjYGwBruaxcC859tFn8boCGw/l8Fvf73XXr9+Pp/JT3dKCGtikOwO6c/kdIBTyAAbhHW9L5rNsNw5AxFobtbne1ojbraeeDXvtvQi8s+YIUQ/0FYF+Ff3qNyYEyfg74Evck8RPIbv4y0V2ZBYWAvQHwQAcLOlpsDb0V5fRAdQi2imvjM4+7O+HGgForox3PCb0TOKELA7BDp/+zoVkqYH0BLAIw4cCRzlbo3Tgdht0+4ekGw4ypjno2x94CeFkdEjFSElntAJyfO+4wadD2rxECAPwkofmTGPQiD7TTELAvAOaHgJdWWmw4G++ED9pkrU7WpDslglhvppX9SUfxjlSYhO2psmNnpQKY0f9QOprF8fhe5HfHcTxVz/k+TgG/RAFYmQCdjsbiNSWsp9nVVYySxOBBJDjyJbkTapD26w5gdBq0uY6FAvhOXIgk6mExVcDeAFjn+W5KAHi00ibcDRZ2p5SX5bSmWuEQH51QCjRZX6WDX5UJ4AmVvePNo8ZKEk5PI6IatFPAJsGJPZMox7lqUZlSBpsFlCgu9vQk9JJfFQIw/6N+W3cA58P+3fgVBb+eA1YVIglizU+uz3IaAvYFwB2Sx4fo8E1nXRlPWDdWm2mNZJamXI7sUJUOa0/1DwUFAZjkdBiNxWNlbdmkH6AUcDMDAbin2GEEwrH+wuBEhck3SE/KxUDFL8ISAfis9gB+/Pz+AUmCMtext0gAPylE+kpzkhcVAvYFwAndQqmiYMOx2jiG7UkEC9HJDgQjvduJ2hPdyHQxACY4oIdj1UmDSfyyr0AKWHU4Gw7XeXD3SQGRDMDSuu6UWqimeDjZ7AWjhLiiszJVcNUvwhKwtf4Afgzh/IEF8AdjAP8FALDMB81PE8tDwH+7TeL3A8ABnQoKB3Q6Js6SKkq3tLM1DxZWPxgne/p9WRqAe2rxS5r2UESkpQTALTqAA6V7/PGXhWE3fnCM72k6oHUOVe1TuBOaLPLTWXl3U+pVFVYGwMvaA5jzHMPHUgB8B7sK+vmtGh9oAM7Ttv7rNofQDwB36AyUCwCd4JfC40t1Qos7ZHTfUSgRwccm0hQA4C1l4m2LPumR3DaTFLDIBd2RnBDCFs8T0p9Ge3oHjpnWqrJddCa0RphbEYtx2JqVB3CHUkdVPwBz0qAxADZOXIYA+Ersg+YC+EkIOHIbQfEDwAlZIEiDkZoOX7k+ITochKLL+F7AXR0J3OW3xaZn4OF/xP14/fOtzafr/05PR6OWuclPT7SsfDCRmjYrBbww0IKspePUSLWLfGT1W6+dSuBvBw9/AFwlNHUoNqF+AM6z7CE+YHMAv8ddhPVc0X6mXBWSZ219dHx+9ALAATnmKVV8etpEGaQ7MP9QM6tH58RuaPIWSOwKqwhmxtzPzp/0I4ACFoBT1xUrOXAsDVZV9qKwyTetmek9PCnBE/3Svriv5Nb8SQG8gNYhGQMYeRHW85juXxQA5zHj/zjevl4AuEOWoD2kNlFZR9KXtIDzVyKayAuDBLA873bWwkz697JYGwXMNfujI8x2tKjdnWDzsHRTvdPZuFXwF80lU1pNX6xkL9YPwLnl+CcCgcYAhpYBSy/D4gKYdw+lm2tkfACw4Eh/psUCBw/5Ls3pdG73FW5HVm5xLIBlAtjQz86mwpi7jQJeWPvH75c0ggb15XvsDXpFRLXoYaEMHlAiqF63gHImryGAB9A0aGMAX4ABfCm8DIv3XMRVYSFgLwDcJOeIihOelsbbXpImc2ws3m0/wj46M8wcwAHS/SyZ9G9i0EIBB5gDQg/NXxmBjSSwwX2b2XBUZEJWXQF8WHsAc55j+LMEAEPLgJ87lf9SK2DePZSO1tUHACdUD3DDAX9lBFZbDIF4t78LcNe0R3AAS9LO0x3kpL+xVcDbkECAcJOdtSz2WAItRTJ7mGoUFxYNJhXxeN3YTwrgfPtfA7Kwrkzv07qDlgE/k9SiOyc/ye+hdJTB4AGAG2R3a+KCvxKPr1oCNyzSt0CnEscAlmQEj6xmfZcvBi0UcALpYAKN/ypOaqYLkxgROEtHR8W4ohMviiusWkQwCDUEcABNgzauA8ZWIT2/DOuTSgE/+bf/c717PQDwgJpw1EDHfx/blqkE7uBN9feFiWwEEw7ACTgj6cmxhxjHpSpgBtkWDei1VU/Wc4GMAjfMK75fdwsoTOIO9m2lSLT4OQHMeY7BIgxrCuDL95jXEAk+aI4CvuDdQ3nsZr7LB3CDrD4HrvgrLi8+NsBTegiZl63Mwo0HA/BW5uzUs6GB7/toroAbkA4mwDszaIe8FnLD+nFFFr9a8BeAq9AeP4B/AbKwTB9juAJXIT1/kOFGoYDvigsBewDghOqaCzJXtnFlMXpGEphraA5AEzOw8EHDAJxkDmd9wpGxJAXMBXAHkaAtOg4CXvjbRUpgNsls2mi249IVTXvMr4IA3qs/gDlp0J8AMeAbQ1revHPsg+YAmHcPpasMwtIBvEUuee0hDRjVoB1rm2tYsD6wsGIoAItdnYg3Z3+k7bqT5go4QXQwcbjHJnaJdfK50w8Hj7u/AKy7E/brD2BOGvTHwhXwLeQxRJIPevMqSm4Rkismlg1goR05pPEIJjgFMbpz2mZ1YmZ65j5oFICFFacnTs4YbyxiwAyxDAIvy2une90sZNHObFs6iltudDDLagrgs/oDOC8KRWQiG7qSr9FJ0M8fZLiRAviWdw/lcU0B3CEnhw7cJMeoAH+s+ZECs9X5OqJlZD3MuiW8kwLlZt/6sZfMWAE3ENtiAMxUJjNzCZk7Ux0cOmAwMy2r99EV+5MBOP+2EJdRXhu5sS/fo5OgxT7oTQBfc+6hzFrOp7sUADciqgc6cBeK/NZ2ta0jj5AHwNnpGOslEIA7meNTz48qf9/8PeAOwAoKDhxH/2fvXHriSJI47qqunnM/oM/AQJ3BQGtGe8E21Lmxoe/QD2k8e2fAH2B57G2lBWGfDd7rSmM0H2A+19qzEvWK6orMjIjMqu7UXnaE3PXIjF/841VMd2smgV9sTKc0DCavyfIob9PS6s0pgGOj9jNBIlYPwB+IP8Uw46PA+aHTYBMS2xAZuwAuTmTtIVlwSHgxkSrhfWYr42sH8ogAPGRMAIM7YNTSVsAhQYS8yyr3C/e7pgT2aAj8bR0Tj+hYALjC69l2/I2gFPlJq53onL4IOhWDTngUeQCDTUhs6RO7AC4s5czxosB00UmxQjk+49EH3OP2Ql1rTQPgJnMA+vvK9NMcaueAh+YtynDMn3KPBUbjVcoenmFddJvXqlSMTF2Eq1RLAIf5KqxbcwBf62nVB0IAgx8FzpeJxT/+ScB5tArgYvuxxWy5FGJ6M9DV5S400a6ypgFwNOX3ejI/MuprKuAUPDWPS5NZ7heZbP1dM+tjw6qh6On2PtW46GAB4OquxvOOIBhHpTdO6456EnQ2uXtTDOBEBPozR2WPQwAuriLJx31DdilWKLP3VKwp8ekbah5wEgD72PSA2Q4sYwjqyrYC85Au7HDQTjCGi+314yZLwynlIuoPXgC4wivIl0FfmQP4Sqtc6oYUwFAddG5atWgTklUAz/DeT3HBQXK/JFB7GhFzBBq2AptSAO5iO7S54iAKCnj8xnwUmS/gbhTcrf6P+O9ICUxTk9VcALi6y6Msg9aaqHHOUoMFx6DPs/cIfglpUEMAd2Yonz2c2XpFflGRyokCvIJTgddzqnMfOgCOuOvOZ8UdFBUwxUvo8Qvgors1COV4G31aBE+3j14vABxHYucOwM879BfzVKwWgB9ZarDgGHQOwPHf/FvinVoD8Cz+jlGhWI7PmwUqGTpfoNVxqBevpACwz1+BhZLALfSlmZ0W1QQE5d0axXKWiEWweSi6DgBenlcAQ9OgtZXohQ5L71hqsFJkvyqKkX+AmpAYP6RpC8Drs9z2AYqLLJVpkUKGLhA4fKGesaYAcJd1KAVeAmP9JNPdGwg5eRH5XqYXwd/e87FBRVYT60k5vJqIZH09AdzLl0FfmwP4H9ZTwGAM+jFzi49QExLjZ0TsAHh2B2O+yrYnZBsLrPAK9m9HEteDiQFTADgSmye4TKqAdVkWCjl5SwxHrvNmSr+2X7co4cVXSSoH4NE8ADgOvhNMhNSopD7nmIOV1dbXBX1S4BisPb6HbQXAJebiEBeB5nkqER46TQGfwNO7cQIA+wItSCgJjI+OG70DsM5vLLXFjM02Qxz6+4cL2y0zE14zBZw5RvUEcHy6Hs2rsDQGSj8y1WClY9APGeDeZzXyZxHX0QKAvfXZAbO8jQ/EBDD8WxNsjPZExFoPRAC8zD15DCuBFRXwIaXB3ZLaYuYPtuxYaSJ4Z5UJXgsAu7qAMmj9ZOyj+j/BlgIGYtAXGdh/gSLQnDyUB/DSdsmZP0SQjjEsEKHPVMhfgwWe8RONm1C3fpGgEfX6ZApY+wpDuduNePzJ9sGQAcHTHfVmg0YNABzMLYDjgOOv5uXI6lMlLy55xnCAMehskdiTbBOSOIC99dJI2eQFKgLNVpi2jJYnoYRT0NR6PeYAhpnIVY3wI5kC1t274P2+lLPtJHjyDjhU8PR4VfHiFgCu9Hq+rffmwWD17yowpoDzddAf0gBOjMH6na/x0hqAO/uIRNUe7hoPuZ4IZInHSCGzIvKCEH1I5gCW7SQJyBTwCuUVMN0umPOmcd46LAhWDUQ3EAVMCwA7u54jjgTDKNVLmp/4UsCpGPQD0Kf8BRqDNeZ81mIA9jrr7zC2YQenSRnd6RBbPzKUuCjIH5AAcDiVDDsUjZ1WVsDao8h6tqMsVIfO22AJRB+pbKAG6auxs/z5BXDsfBMMo1Se68yYAk7967dAGzAYgd4S32aUAG557XZnbR/rmENyP5ILDha5vmAWoC/iFQx1yknNAUzfraqMJB0FrH1Y+rajLHR88tY5mpJGb/FbaAHgSi+fsgrrSTEJ/IEzBZzq880XaYMRaN4XCm+z/SOidfxt7W4rHPOXOGvF+lCGSJekL2JiQp2bNwawJ9aDNOMlayjgFcJzwJj76fJuaa/zrk+P4F30aI4FgCu94sP4M2UV1q39FHCK7998iot0jD3+7as/hVIn/tSpBZn4pmgsFLaOEL/yzGC5qp4VADdF8+5FtkxZAWsb+WXZTeaztzyxJIN3kHBZALjaK2KpwrqxnwJOIve7T5HpQop/+1ok2OocgMHv2ITCKACfyYo1ADd1IsHGAO7JKsJZZVgqClg7eSK9ySJ+3nvr9DJ4tIraRwsAV3s93xfpMMorVBj7kjUFnITsfbZJKhGBlhmD5RyA3yIjwswdDYB13MQA+FSITAN+AEfSYYcXQwoFrHtYxNMcTYlN7XXoh0SjRPACwNVejXwV1s2ZTBKYOQWcZO5NdkzIOfQhBmbWOAXgcQt5hbwogGLQp9YA7OsEK00B7JEWOJnFoBUUsHaSOpDeZBDxBxy/s04dih69UjHg1W1DmmcAB0AVFkHZE0ZF/8abAk7J3IezdJX3k/QYLMcADIc4m1MZUzX7oUwwf1UfAAfyliUgUMDaLwAqitqU9jeYHJzOOu2Y6FH5NxoWgziqvZ7dwxFpFdYVuV42U+S3Z6n8NByBlmeNtXWItY0j5j0ODUpYQajEU9bDoPI7pgDuyocdCuugFRSw9mGJXPA32B5wu32wTXlQjxYArjeAoWGUBJ8ERjA18cdM/E1q7A8puQ1GoLk/IeIQgF+ibeOYe/+FGNvu1xjAkXgEujgGrbBrV+ieMXfKEnDyOAlFG4reLXnQi48xVHxRVmEla4vJa6bNGpHSchuMQHOzxh0Aj1to28iNAsj7fWlLAQPVSfwAHlowLE1jBaydAob+vRPm2+1KP2FvjU4HT1Y0XuUCwJVZ8eYk+CTwbwqFzefcKeCUyE5dGByB5maNMwAuMp6BjS0OUH+C+CMebynSiAAYAtizUcRaFIPG71rSFDBz7gfa2Jvcj7i9dLwtQeDF94ArvqAqrAdzyVkex+ZPASd/I5Wdhmugud+mKwAuPNBdK/0MEcJ85IExEboWdgAH+AwB70NXU8Da3mpoAxd9oQgKTyx6JoGb+BrLagF4gsia1AHAsQf+EwER7/Bx5Tv2FHCKtEm5bSUC7QqAR6sKVvmEfwP2EC2mNQZww4IiLPjss4oC3qOL8vOfPMB6C3XKttc2tvusBJb9lNYCwPSLsgor0YhURvEL/hRwSpEn7s1OBNoRABf3FkJxyT3+/Rdg5FVfpswklAdwaEW/BIYKWPvxexZKzkALL2a7vfb+O0YC1wHA4OdBxvMCYKAK64aCeB9pB0ebKvKEX/AFrIFmf5lOAHiyqnR9ArkkVOlxX+bsWQBwZCXu7/fNFLC2aA2mNrw8YI/tSdrYzv4bMx1cXPNWBwB35xrA8d0TfJEwMX+5ZBzlo0AKOKXI41sDI9D8Vs93m7+QbRQJ1A0RPytkQHVClWYAhsIOp1YeupICPqG0tQJeXmRBdqffc8dsXPS4pRTLqBaZGnMNYNIqrCTxrpH1UQ9ngjHo69R/+yR5IB0A8HhFzTaeSGzAEBHgHMrkSTeOs+tI3bYrAdi3kgIu6gRG79pNwt8dC9xu18qvUsaiX9YYwPOtgOMTRjALK0m3mRJYJAUMxKBvUz7Cn5IhKfsA3mkp2kYJFKASdJEd30BLXCkBOLBUwto0U8B7ZE9L5k0GjsyqWNNn8KsFgOsJ4Di8954iLZsg3j0K1NesAH7MdwFbikBbB/DobUs1KimywX0E+EMHFAwLgBuW4v6+kQLWr8Hq2/HyvL4bAP7rs0l6/cEFfplH6yC5A+DTuQEwaRVWssJpVnD5i0gNVi4GfZP6L/8SdcMtA3h3Vdk2yvRqAJMCc2+j5+7hMwNwaCcFDGXVFRTwhPIMrFh5SzYZpdcfDBdi1QHAvfkGMGkVVmr61A1GmT6cCcag7+1FoO0CuEz+gpcngwLAOJ4ifGRXbIwZgCMbXTkFP4xXwNobo2lJ8AP2e2Bz03g6JVlbeAAPKkWgOQcwbRVWavrU13IuXvHyN6XIv99Xok77WtYK2ATwZFXHNh7aOn8TxMWdOnJ8zAA8tOVZhCYKWNtH6Np6j03Xigi8tvKnC8EgtDclfUF2Y7DzCeD4Ff5CERc+zzT9WK3BysSgb1KXJxuBtgjg3dctLdsoJDKXy3OMgUprZIUADOVEZaxKw0QBDwhNrQwrfAeLCNqqoegxcgdVDcDRfAM49sLfk1RG3V2W12GdC6WAM4r8NvV/ZSPQ1gCMwi+4w4UQF5SfLN/dMJsZgAkLnIwfOl4BrxibGnEvb2gn9F1mEzaUZPBhPQE8RLSa1xnAz/c2IgkMn1+WB6FlxnDkLudrMkWdiECP7DjhMrVXLd1TIGWiEGXQHuU0JocA7Fu7Lc9EAev6CN7QmhGNLDk6pTJ4SQHBQNQHBvBJpQA0RLSa1xnAP+SrsEySwBdJCVzQDPwkVYOVvpz7ZEr4v8L7VR7Ao93XqwYGWYpwgA3ZwpxRN46fkWW3mNvu6ytgbX/VnuAHCg2csd6dAxMJPCStknMHwIP5ATBUhfWVqu7pfnaYmjsFnG4FvnpIjMoUjkBLA3j7GE9f+OrE3GjEmI3QWStjBOCuvch6pK+AKSdBS3l5DZcrhTsbfW0JHFUfwP05B3CsQH5FDdFQksDgvyQ1hiPXGPXxElkD7a19X6stwsfsC7J3f221TR4H5s+BKPUhOdKJRA1gqZvq6Stgyi4kKVQEbudJ20gEHyIOjysJboO4yHwBOA4B/J2mODnd+vOH1RqsTBlWvH4v1Fvtzv7zEzmiYzAI4PH62mvC/62tddrtNpFtFOMbYlJv01kzYwTg0J5R6eorYO3QyA/2vDzfdZXo7fe1JHD1AYyadlprAIekoziyEvjqD3tjOIq+Cvztqvrwu/bWDtJVETurnPvMGTe8Ya0IGpzUizukhw48OCMAR9ZyoqBLg1TAA3NDI+7l5QsNxq6ZYR/TlXSIAvDoRYXWAsAN4iRwuhD68uproSa9OpNYdwCAP0HuYnv9ID+otfgT9gT7zJlyxa5FL9pHoKDv6sg9IwDbKz0H+5CQu1b7qVsU/Pn35J5K9DrlFdGT+gEY9T2JWgPYpx3FkYv65jSwZA1Wzh/4//qcUaHtztrBsGDTv50DBRxabPPxEEcrgs2R/SNoAmCLpefgdkQq4BWyZyXYDBQ62oeU3hDrpSJ4UOo5i0avuACcfTu1BnAcnnlPNKEqG/W9LyiLuhYB8EVeAt8k+bq+f3A88xMlb7ksnsNf1RPMkQF9SHsvUHam5AuLFQTwqcWHjlTA+uTqW/TyutWAVKkIHheGL52rT1QOwM4rgKlHcQCFTx9hPN+KADhTFZYZQ6nZf1czBTy0eWnD8jRjMHWUwCYAttn7BXVf4hQw5ccI5by85YqYb+/HEluUefrNygO4uwBw/AioRlTlRGcyDH0uWoMFSuA/FTt7CF610woYsI2bNuX3FkawOUFgYgBvWnzoSAVM+TFCuf3frAqkvDezTdEWxjMdVIg+PUyuu94Ajl/iT1TiNJ93/fifXBH0lRCAk8M4/lr/VG2tJQiVOa2AfatOdIgwzGHhq7F7DE0AHNh86qGuAqacwzGwYOMseJiUGnj8P/bOprlpJI3jkWPv2Y7BZ95W57CeqGp2OXiYxGcYgu+giasmk/sszgfAjrnNARnPjaqx43CjCmKbG1WpkMmHWgLMWrK6pae7n36z1Ecq2HKr9fz0f14hADb1twEPYtYAvIhF/YoVnu0QEp+Gs5GOJGjC1bxjbm4hbhiNVsBFrae7BnBNluiJoTd17pwIgEs6d73Gq4CfIh4yde8bBXsaJqcQ+AbFdtvaDNqFKJ7VBvAiHuR3keA4JXa/6A3ms8kkUJuDFZfAPY8ZwHsSLIBBCrioNZES0IljrUC/Z/5PGt3QIgBe12lTqrwKGLMRlrqf61jUr9FpMvigPdt7UYK6Wa84gGu48xgozS9i6+VveiTwHxz9HYWdZUYr4JLWUsISxM2ZZJSAIxdNA3BV52vPOq8C5j6zVY1VSIQkAoMhVWjBfdCepJCZsuVBDOOKA7iEHQQ+BQH4vTIARy/ojAPAwkfaaAD/Q+sjXIQ4HEqJt0cbgnEBvFfW8MwzKuBNPKf3nk47b3K/xiLcB92yvBclbKLxigO4gBwEhgngzyJ7pCoN6xmlCFhdIrTRAK5pdWIVIPrbSYkb+Ih9uxUBWCuRirwKmNsX5Gp9y2vZ0Inj/+s2uCiyCanisYI9SYdsxQG8eD08QAkCwwRwdz4YBIO5CgZPA6EULAxWGh0DNg3AJDFWTb1FWxoYLAJg1zAAwxRwAw/ATy25URp0YRPqjHMtb4VVBCW9rjqACfMYBBzEz7pMSzqCTwLGImD/3sXJfPbmI6ZtNFoBu1qvzOHuihhb9d2bFaU7hwtghZKwwKuAb6BtldJD1rQLUglOaD/l3dkuNpVyAEfUxTlCEDhgA3B3MJPL3+U+lMkErl+eDP5uoXmGd7stA7BKbe7Ani0X5qqo796vlPXZdQYA6+z/yf/WgwjgTa0ANtt+N4HRsKrlnTiqoBeIVQcwKQjcVySAKUODJTai7H+kv10u6PuldPkMzVoYDeCmlO6b4NUCPVtFcLjA39q9VdG0c9YA2FOtgFtaMdG0rF9jQs7DZrqCtAfALiiGveoAdkhBYE7PcKTx4x/HMAK/UsjfK+CTEFy/dzFdFu99D8s4Gh0D1msbCV/fAD+r9Ijw9i0FSlgEwFobcBPKP2AKuIz3hQ2tht5sACec9qepdsWiThygRlgrD2DMIHCYeL2z9l8gAPdklSTRErKHby7roZjv5eVkPiD93e9YQWCjFbBe20hQJ0T+F1gbqPiPt+/fLKu9dCEFrBDATotPAfPPYtBrQa0DsNMCdQUqyOqdq9PVnj0Ak4LAzxEE8OcPBBJYUiYWPR4dDIazL2t+lY1NvS4PKWnDZAA7xgF4M+WUMkC4visTwvYq4BafAsYEcFnhz3Wtc9NWQUFgx+5OHA6sk9fKA7iIFgQex+h1MIUQ+EidA5ppvUO635YBWOnhhuaAOV6bcz2W5Y9eJQCDTi23I4gA4LrCZd/EggKsLV/L6kJgB9JuMwMAJgWBubpRRpo+vv12Gi4CTX2xOsL8DU1OauA/Tk+MfdSNBPDatTb/8rd2JVAYF8AqRRmnAt7D54mmddd0o9wEBYGbVtchFXIAL99GsZnAY2LLKf8E4IRWMIeQY/WRrKNdAFb7Bl0DG8fbgkbXr29t3yrLNJLwnXNMAzDoZPyMa2o1LuMTlYqgVhwuqJDW1AVM4l59AFcJ7aCPBHOewi2nDi5SHdEvTRTA3S7SG3MOYMjhS9uY5EExDAnSN5F+oL0AbvIp4NUBsPEjg6hpWJEzVrO6Dmkdpt9XH8CLt619EU0abkJ5FCuxnQ7USuBnGAA+ywFsDoCTB8WwJUijlAqLANgzDMByFXAxB7C4Z4iAnpLVdUhuDuBla+AH/D7oiAD+k5R1cZkQD36vLgWaB8BPkCGXA5gO4Kcq7Hj9u/sVdIxZDGCQAubGlnEANj9TmOo0aKTuqy0TgZvpzTazAWBiEPi5iAB+QT47B3Qq9pH5u1wDPAxyAANto9p5ZiwAXrvmIRphX7RlVuYUcA5gA3zQYWeck14rbPACFlFlAMALI/gLNxEPATMPPiXOJ5SYgjWcRGuUocvLIoB9cwGMS+Av8xtyACtQwCXTAGwBo1xA/hi5Ns+SOiRoG5EMAHixFfyFSKdLPThSBfBwKjMN6zTWauskB7D1ChidwO321v0yGsYYAKw3d1W1As4BjLdnEUK1LK5DgjbSzACAQy9SAScRD6NNKNMF8Ozz/wmk+aDDOdDDb68ShwF/GVIOYFnrOqOZ32ihG2NeBK8SgHMFbAefli7dtTgNGjpKIgMADv3Gc04iBukC2A9iExjGsnzQhySyg7zQvYAUyn6I/yzlAKY8hilmvvAjujnmVMGZiwE/wbW1GpdvgVFuAuqQXDvbjCRceyOTAF5UZP3K16H5BCCAf4nr3c6ppDzoMflnHKcguDecHRKLmcWsYw5gFtucmiBzrY6P4JsYFtIaALeyroBtAHANUIe0bmmKGf0F40YmAVxoCxYiBcQhQtEzf0qQu4eSGkKfUjzph1M6ggfzySgaPD5D8g+aDOCS5seX5/udbXQ/dHu3LG5BLAYw6NTexbvJOYC5N62R+Ppsy6+DN7LOAoBDmzHmIeIz8gyhyPqVOAJ4LKcXR0D91MmchODBcDaJTXA4wrrfOYCxv79yBz8UzCyCM6eAcxe0HlVEPyhOu20rnhyoeM8EgBc/8nsOIkaCq28p5+aUGO89lBIE7iS+RXTm08Gg93UNBsP5N/bGiql+x3pecwDjf79z5xFyQrR/XyGAW7kCNgnAziPSFKUtvYTy0guBKWnQDyxADriJSCYAXCIVIoHzoMOysc8kgMMu3/cycrCov2E0uVqjEf1NIuSBFmRSDmAp37+x8wjXLP/E5oZeJQCDFPAKAbgMkWNKhxYDfbRLjHLbBtuWxFWF5o9lAsAOSake8USA3zEJ4LD3+qUMADPJ6ih/X6Ad6BzAkr6/srGDape/Y7K4AgDWO47QyRUwDMB6zbwLAHDN2iwscAVVJgAcMiafmPOgRQRwireYcy2uiLt7R6Sdl6BxtAvAxmdBL7miHyMmRe+VuZ4ZDABvKtx0L1fAFgB4HdCJo2RrmTO8h0g2ALxwCOyzVgZFdONrRgEcks+IrTjGXJ8Zbc11hHe7cwBLVeCVOzto4eA9hluNC2CFxZuE6KJcBWxcL+i2DQAuAjpxFG3NwnLAyXHZADCxEOmIWQAfUc77f7rUeqOxhDRoLgBPuzQBvIe2uXkdcHooiKfa1NnYQdLBW3CI4gL4oVbjJ1cB5wDGY1T0lBXSM6XNXEWwdM8GgENhoXO2xOSIAP6TfB4iXaBHtBImCQB+zs3fF4iszBUwi5+Nt93DBo4z+mcwRUUA3NSqgNv6FfBjvQsG4IZem+wB3OceNJnYsLUOvu5sADj0M/fZ8qABAtgf0wUwb8IULJj7nJe/kXZeos9hPg1JtgL+2xl9a1s8MfpfegCs8DwUVCtg3UOnecWmBQB2LQ0Cg3OwsgLgIskH3UcRwP5x0tzBQwl1SKfMmdWnS5053mGe5twFrQjAXyEs6o2GcgYXwApFS0G1AjYfwJ6BAKZ1gy4nPz92AKoF3vCMADh0BM9Z0rCOKW7bkP85Arc+vWkGHoADRgDHxjQccUmiXAEbAOCv3ugdkTYdDU77aAuAi/oVsOYSW6sB3Ei1LdqvnM8kkk9FRgAcutv7lIqhVHSdkeTvRRRu75UCGPaRsUGF0XkSN6ScthzAFADjbEzlCsJyi5FEAOzqrN0s6VfAOYC53bTRq3LEvDi6FkP5VFYAHBrMGsDbUaYIYP/fS7HVfkLbyJEmAJ/EWkO/xbWMJgNYt3ewKnFjypU7O3UeJQzzeYgAuKYTwOuqFbBjugU1E8A1SIpzy8ogsAtvIJIVAIeeN7gPOlkA+5fTZbS9/800BdyJXePSQOMG5tbmAE41Mrgv7w6XEgbdcxEAV3WazKpqBexYqoAfmCgTl67KhTtzDVotuG7PCoBDe7LfhaZhJQngexdxtPXR2kYiAbhDGI505CEbRrsArPbZdRVszJU7mk0Ig+QoLoAVev5ryhWwZ7oF9Ux05IIAXLWxEpglcp0ZAFeJPugRnwCuE+hLBuJ/NQK4c0KYTdg/wz7JJgNYt3fQVWT1PivhRwzZ0ZC7LgLgkk7Hg6taAa8ZD+CWiQAuQs4m5Y/MrgQugRqEZgzAoQfuEzAN65jst/UvT8hz7/uJBUAjxVnQ5NHA0QQstu7ANgJYs21U2ZHCubUN7dUBue24AFboeHBVK2AC3wyzoE0TKQYCMMV7bnYQmCEEnB0Ahw5haCZhkgQOC+AFt3yy+KV8VkfGQODFN87ovucB+SJf47tyLANwQ6/l25T6fdBeHQ85Lp0BwEWdNqWlXAE3cwDjAXgTculmI6rFsN3ZAXDIBz0GSWCSAK7/FXRp61VS10gpAO52h3EEdzonU+pFfpCQm2oygPUOxiN9vXz+VwBNKwESWATABZ0pt55yBdw0vVDVtVYB2xgELoDeLDIH4NC2hIYn9JgEMFX9UhzQIQGM2As68rWD4Wwy+fLPo05nMplPB/RLXOYvjp3IAWwWgL8I4bTc6PRdQAawsm0nOS0lK2DXdD6w+EQNU8CltonXnrhKLKI9OwAO+6ADQEPouACONp1cXqNkASwLwFcrCIJBMBj0et3k9UHKK7BlAFaaeqIvBF3Z2BFLhBYBsKMx46fQVq6ALQUwRgKIyJsSCMCQoUlrNuy2z/DHqwngKrEUuA9OgT6YJsFtlvYZaPztdDnXBzmH2GgAax0LoDkJeyNJBd9g3jkxACvbdpKwkqyAq8Ye/2Qk2ABgSkDVZB+0x+LwzxCAQ4/cfje1GUdMAB+csvI38hn6AbzM3/YP8iSHMRbINQ3AKo2ekyCCU7dBBMAEG6Qs4FhSr4Cvmw7gqsUArom0c9PMGcDxyhCAwyblNE0CxyLAPjt/o0MQ0AB8iMTfpzIPnCkWqKY19UR7l+A7/GlYQgBu6iscqapXwCXT61RLnF4QEwBcapvoP2d+26FtdpYAHNqZ79MkcEwAf0pgG6UcaNw1B8C917ETjHWXLQOwyvSNguZZEGtr1zzefpRCAHb1/XBXvQIuWgrghtaLAgLYaZt48QmrxRICzhSAQ7cynIaVUr/7VQAfJMBtOIK4irUCuB8f5fQD1rYaDeB1rTX8uscRf17/pAE4jTdCAK7q83c21SvgoulJurCKHzMA/AAGNGMnIhXYendlCcDhH/spuYB3vCyAz1nlb7gJFi6An7Hz95UnMYZiNIC19mQi4F+9Zb5O80HLBPB1fUbFU6+AC6Z3aiqayDBouWyN7/wa5m24mwM4sjcHiRVEh8sCeJ+K3/kIxsmePgD33kitozMawFp7MhGEoAZpdJsvD1oIwCVtLkOirpKsgOOlx75Zhs8xsaNyAaiAi3b5oBlbd2UKwOG34/OkHhoBUAD3ZiPQJAdUBTxmlb8f5aYwFEzulq61JxPh6dKwLw6fD08IwPo6cRDNdRnCpLsodsXMMlXPwG4WRaACprSDNnQgg8OYM5YtAFfJlUjLTujj2PQCYgr04H/snc9zE1cSx6WxdJcZpLNtwZytGKtqKzkIh8zZcbDuWJaqNvgP2CL/AMLcUpWy19yoWsD2OYvtI1XUBvxHLZhgS5p+P/rNe90tZqZydNDM+9Gf/nb363euweTs/zFmAvDRJVQR4HOGRSvgKmvmKxER9bvtZMB8A5jIXi4wKGDxzaBFXmlgnZhO5qkOuoncbMUC8OSue608RnSSub4eKME6PDpGxYl5AHx0Cm69+6EGVd5ByC4nA/sy0m5tVF2mDwADFp9IbrUsFbBXACfS46N9geeQrAHcdG6nKicCvVkCeHZ4Hk/h8b+K4PEXAZxJAR8dv0JWKvsD8Ftr/J5fOt+F862EoFkZWO3LMBpR18H85gIwMOwDRgNoFRrxCuBNsXZv/gCsSBaLjEGr4uWNEsAZZ+o1XMv820FGAI/+ORN6Nt1s9OSAH8BHp+8UC3crXFhBngJOGfct92WIBgm8GhDAKZdV6XMo4Fj6IZmWwDqmmvU79eenH3SMbb1eMABPmsRfwXqqkwPg/vrJvh375+ZmkcB1gAEA/OJEcfPR+PBCSV/v/BUO4IQx8xVJ2VqwBH4UEMAJk7WH1ZLVH+ZgpvhWWLHAc0j23UGSkcDXR/h/ujctGICntMBMMvXw4vh4FmkvMo2zjOr3E38hjeoPwNd0/3O09uEiw/qj89N3XU0X/u9IbN6OXNND5zjXxDjtbXwRbD4AL4ROfKBkVSNwCDqS3okjFhjEXbAGcM35Si9yTxd95K9oAJ4coT3zCdr3swAev3LSv4EA/Pn54fL45OLo83Nxfnx5abqLfYtm0YlRwAuMy3uBvROldo70RM0H4BrTkohZFPC8duJgfcuWNatUiVV5oMI3DSkagKc++C/bCwy+f2pPYJi//gB80+HyPyP8s0Vk3HcEm54ex1pj9tn76MNo+QAcMemVlEUBA7X2DVFWT6XMGkIsseGVEqpoXs7H4ch94QA8aZD3DgwdlLtQxbQ+B3yi+Df9KeDpW4rZ+StcAUeMqaNEjl8So2tw8gEYEi0E1l6hlUIrYID7PVFWT6UhOd8ysa+sUsWgpZVh1fBKvXAAntorH/UAfgkHq4/UIvjJmTKa7V8BowE8CJKGk62Aq4zv1pfjl0Tog5T5AAxJ0R6bBQyugBNkibmICAjzaanUnqnKGPSmrFFO8ZH+4gF4qvhO29Ti+c2qmJG1F3ATjidASZR3AN8cMe5i+XufzrY/Emx6qOLAVUkGI8VWkeYEcMISeVAUGwVXwOLPIaXyqrBSBKzSuSjDihyqtYsH4CmLrAtCj9/DnaP/rjV+ZYHfp/vfhwPwGAng4TLhstsRbHqoAleRpJBfCztJOQG8wGItEyYFXJdeoZuIq8JS5EuHluMrMdIfO9SKFRDAU53NPloEoGeTwBPHlr5S8fj44hBk+GPvAL5ucjnG8fdhKOwIV8Ax2/quS9pZNWIA1zgydqpQZXAFzFYGvbJxZ/a/JVv/izeJqpirHdTEivJzVCVYu2jP6NsG8PQ4KSuhX0wtVIVSPjg8PDs7Ozw8VFVRBwTwPkr+btAGXuQo4DpbIDiWZO8irP7JCeAqh11BFPv6VcAAIEiMKASmHkZC9kQtSLXhiOdAAjdd+oUUEMDTAzVQpIGfTS/tfzx1eJ6PAgD4X9dviODvvQbxTpKjgGts3kEiyl/vI69jyAlg6PeC50VVZjq4Aga+loQMka31dklPsgC4Yx/AkdZyLHU5rVxEAE9L4AHYW3l/psR48BbP32fvQwD4dbZGzPSs3yffSXL2RZUtbtXXjkp1+dOzcv3c2fj00LoDeqTmBXDKsChSLgUMjC6JC1q3ndSquBBuHecR9MVLYJWPM8Ruy28ewDOxgr23Zv5O9eKwfK7+DQEAHm406BeeHAUMbd0G04bs6NVa0Ah1TAxg6u/TUIZAAcc8aGvZIrUq7kKDGMfTFllrXY8erkUL1kICeMYmZwm8Dxyx/R+Sv1+KqP0D+C0OwOsbobdYNH+RIRKv2dCDq0lsDevIjZ4XwDV6tbIwYlPATG2/7cMMqbSTtAkOwJHSwgmhVeTWLKSYAJ7ZLoM30+z8N9TiYg8XhB6/HAUG8O8WJ38frjR4Vp4gBRwzZb5a+o1VJwZwjRjAUH3QDotNp1DATBdfda3XdktaDjVFNsdMhWeBE7fXKyaAM7P5YaLKeXwK17ybGldC/A0A4ANrAK9vLFOMpXQFXBfTlnjY0AMxKIAjYgBDFnMY1B1UnlUhUMAACld5tt6mfQCE9SQwPFnqusCmUmWIwFXUdctRFxTA2eH6cHZFtvHRqXIbIwh83cQjIID/1MF3bY2GvnMA4IjH6gA42DUNW0g+VZHGITeAE+oYtLJSlkABA+4GwRZApBUiYRHcCOsPKBP8MrLAbccqt4ICGPKnfri8/HB5qWsvtXeGqb8KA+AnZgCvbT9YWWTeSoIADAmjJZZh2eEEcKVLDOA6dWZCGYGmUMAxh5eHqGxXhgeYDiLV0QFb9fT2+I2MUgBvlgCG1yNUFbhmau44+MuKvxM5ZP8AztxGuP3L9eutbT/cWFleJF57wnPAUCyUwOosGDYjeaeKPjGAI+KApzoCTaGAaxxmNEUorlTWQaQW2h1QBzgEtMOK3UqwigtgTVWd9vloDkOPT6EeluNglyF9mq3FL09VzkgKUsDQ5iDYsqlhX1WpXfmUGMDg0c0evQ2kUcAA/oN7eag6t5asGLRCz64iNZMQCawUwDtO41AEAFfuuhF478SA4POpEuprAO8HA3CDe/FJB7CUtsQzP9r91gGc0Obr1PaZQgEDw7vLsLDVIU/lfQY8Megu3huI5UrgtrN3U1wAV1Mr4G5kc8VvNPg9ejf9x94VcPY2whLADi+4yWAcd43ACPpW5ACukzZ+qI1YFTCkMEPvzBhju5Uhv4GkAGQDKfhlSODI3TMoLoB1IY1Jjz2BVDBcjTU+ejn7p94BnLkMibHB/5wAGEJd8PdrG6VGSgzghPgYErwwOoSfp1PA3gHMcOlHinJwupLoVXc5FKWWwENeI5i4D22BAVypdY383W0owvuXH2Zv/x0fnb7L/l04AO9zH+SbHwAnDDvWXPKU8BcJhwUwWPcTauCrXWYFDLxA4E0AWaZdB0pw7NWWi2KMRjKPItVzhMaLDODKbRN/r6yF6gT42uWHk4vDg0/P4cXF6eUa+Efec8AZALPnP+QDuE7v9kdmcRJ/8wCOCfVWPMIpYO85YMDdCBycQp7zUo4QRwyt75SPVmcNObtxqEOpHaddWRwAmwqxvnjrlsnikR7AY993MTwrAZznDQOXnlhUXlN36EpwVssDgCO6ghmtACZRwJCoCxuDTnC1Deok+aYMm2F+E02en9Hg5PJsig1gPYGHS+pQDz+An0tBnXwAQ/524Bh0ah6SGnGHrhRX8uIBwKDOCaNVtAKYJAcMzee9oMKriytiUvso9D78gmPRsKZs5z6b/evmqS8vOIB1BL6xFLcFAfhtCWA/WqFHPSab+Ch1YAAHvY7w89OmMvd6AUyjgKGDZyEtaQ1bxJTKkcCpo2Ssa8x1g8e2qAOkVm9UdABX7nYN+tciVM0C4N9LAFs/deo3bFlQgLpFJgOAwZDhIIDroxfANDlg6o5rbWwDugUx52hV/pL5PTQSmCkXpzwCbDf5hQdw5RY8p/cmzU21XQJ4ngFcJfaYobKMoY0VCinL+7gToD4ADJen+LeUBgFMo4AhN29Iu8b060dTRNyj3Y91Z2RpJPDoZzHWD7FfSgBXqj8BgzeTUaj+KAXAmbsYSgA7hrw2aQ1Mh1sxdXEk9AFgxdEX7yNvEMA0OWBwI4QjWw1t8zWND4jVY+LsB+iaNwwZuKV5n477UBQLwJ9E8AyCBw8zI1C9KwTAT0sAe7LQAY1OamVcEtJhq44YAFxzaLfg8CumKkkaBUzb8CXBL+m2EAlczaEZdRKYIQjdztsbpATw1YqYRPAAvkn3TlcCgLOXIbHfOzQPAI5IlzlUFwkYlxZpyDJCTpIXACtiw36DheaWdjQKGJrQYIkOcGQ7Lu4QPbuaOV5CO9nkQehm7qrsEsBfJ3blwfbaL+sPN5ZVW+ZWH0PebmgAv5fQA2ZeAAwWbwRzXWK7AanjjpH4D1k+Cg5gRXDYb3WwOThFpIAjwhZNdQfDrUuVU0rgNE/QVieBqc8iaQ6o2rrSJYARw22fCB7e/9sb/tUzgH/LALjDPizzAOCEsAwLtHM9u4ELZwcBw7WKs5INX4vjqsUrXQCaTAFDbl6oRZa6GP3E1HSI5KnlcwL6Fq0biERbml+MlwDGDLhtGHp3+Ws46nEwAHdLAOfd9IGGLrYVYV3KKqwEWQzlB8AqteMvWJiJSQ76XAoYnPmf6TadMaSjU49b7ALY0lfRSmDSUHrbw3uUAMbt9rsWCF7fqFzng3wr4JvLkEoA5zLT4bx+UADvWPryu5Rmr0cA4LpjzyN3K/goZVPAEdkiazuNqfa4FpXVr+WFljYVSJiRu+tjMEsAoxHcN+G3MeEMBwPw/qgEcG6LFUSdxNa/lITOjk4+XWTCOfVjFlQ23xeXsmUwSymbAgbFXYhFBo6qRdox0YlHoiB0mrcfV20kIg3c9OIGlABGP4t3fjTiNxiA32QAvFoC2HnXhlAnMHGWbFG9STdLQ6SddDMLqjjdd17GPlsGs1vhU8CgUQ6xyJpOEWgDuzp8GxEVYdHfjjMgIrDuhgDElJcAdmPwNnD74GB96+YA00IYAGcuQyoBbLlr+yMa3MX20TXKDpnou5cSTwViUcikY9QH3pJRAYPeVwAJ3HetYdLFoGmu9Evzp2/1EpjmM7Q39CB2Sglg1612685P22tfZ2Gwtv1gZbGRtcPBAPycoKHTtwRgGIz+1QksgDetRy5U1WyCVUy+AKy2uPkJDGihYYVTAYN63z8Rms4HX7Q9wygqoWs+BHgy4v6MqO+pEqwEcJ79X11cvPX5WVxszE76rAJ+WgJY4Gv6VydtjEnok1XNQn7BKtIyrPo2uXmDhVCD2E6FUwHDH+u7MAiO5nTcd8HX5154k9n3IVwNvb/XG3yfgeVnCeCwIT/fCvj6LoY/SgD7UGK+1Ql8KLWD2H1hmmHV0IGyxFvjkjRQug7i7+cAAqcChj+253cymzlWsl48Bq8hVp/cQVkMQ/Pv0ATWXw2AcqFLAAd6mmEU8EEGwD3uL50XADcJTI6iPmRJ76UR7L4YXfSSeJtTtQQebPi2gp0KrwKGV5nfAmNY/1nOTl2PrsDNHG+pfxkVXzF1Hw1b0a3/dVwEvAQwkQJ+GugypBLAOeNWXsevicsJkQ0d9O0Gqd3yd0ZZU7W65WwpQf5eZdBZFTC8yrxyLc6zjg3oCltDrPlxZO3DbUMvhnsBCazviIiMqZUADgvgPc8AztzFwD9Z8wJgheHy6SwrDMwmylqHqOKs4bV/7K+4pRbAUsJRwE6FWwHDq8xnaR1cfzvMtwtu3nQ54A7UeGLY/IbphvZwGjjSuzDIZVQCeK4A/KQEsOcX9apO2ljnPiFKxKX4I1h1j3ZBd3Bz3cniwzejfHERWBWwYpXthp1LxNsbCpgCamDtla7YQFRkakm4G8iTMPAXC/4SwHMK4PclgH1xwNsINtHlJc0RiQSO/s/e2SzHbRwBmFhTdwy41JmAQN5FLFDJjQQBnqXdBe/mcFllJy/g5JiDnZJvropVqZyjPEGUJ1D5sbLLn7XIXWB6ZroHg2W3VCpfTGL++uvu6e4x+C2vEKP1nYWbstR3Vlqasp/v9e8Bt1hhU9pNpuFiK1xgOgK/QarcAewpOl9+rAC/rifPACaSfRIAb77FQPiA3c4BeJ+2brDNKD/SdZfQJ88k23ofs1XSZXfSqqaqbHOlbtp+mUsPuGVNsbDW4oBpRE1ULjARgTv9X5NajsvbHsaRqn7pbWx/NBnAFAD+hArgvzOADXTAJWXxRVuGybW+Fjl3sEKnsA2ME0dVBAylVi7WeNYdxuzZA26p9MEx89oKYHRU9oGSXCXB2evMXFognjfCcQS1kr+6LyIygAcF4N8fQ7plAKPFiHGugS9MyvIPXPTyuTTxOUbahUsmM7/WlXOo5xBdqCpJe/aASd9AfoNQRKt0gTUNInv+mjUzOFTTEDcZOprdAkTPTGUADxPAH7qUCwNY12hG2PHHRg0GRg5aEh0aXRpuU9PvzD/i5BYFwVFdKOsv+/aA2yiJcA08Rtm/B2qK5LgXqN2VO6YG5yXAH0UcR1LcgoQbcewugDffYlj0PtIBAbjVaF5Yb/nUsC/dFU2XRmX4V71AV6i5vCO19pJN2a0ug6QuAHqvbw+4td/jlGYptU+bOniLfIGqylwyjEAFACKapPgZh58NDi8DmBZLVAD+mQGM6gLbEvjQtMPeAU4uh7afcGb0/x0RzNBTfVnFYqvGDIIoLWCRv9494NZ83ynR7j3T/EFjyFLMscK3wbEClMY3LqBxoDjzwfgKzF+tqu+tAJ5XfUu4N3R5wJJcA/gzaitoBjAyBuwI3J7heWQye5i1SMemOuIEeVlPoOqrmVdJLMRe+IheESXVtvc/W+ardw+43TWzInArf69p1mKRoKjhRHlz+g7d0nl2o22N4OjiVkdO8U+FYznbG7o8esAfUT3gNYD/RVDh/xIA3B59u7EgXrtvpp6HtosspIbyh8Yq4gD5YI50fAiZZdmsuZN8+Z9aYb/+PeB2O88i3a/1HXoDW20EXAb7NOKRGl0Lgjl59hvs4tCj46LQ4xfc0GIAE3vAH2k84F8YwGbS3ox+IYxDbBC/TPuDUDI4x+YHbB87Pzsq6BTGaadJ49oD7rDzjPOL20lmUkV3AJzX/NxqF4pjwJq/s1E+QKtuYT4OkRaEAGMADwrAm28xXPsy0oEAuCN1cnGOrBlBSr09k8TGJ3/kb2HudIzQi2nGZPriyVd54AF39GkytKvaSWNkEwFdx9V9pHkgOoLg19KFAFt1udk4xHFmsiHBi8IAHhKA/8IAJlSNZuWPXdkZoGP4mq6GolUBgpyOAj00fkykLp5e4HvgAXfdThq1SIyukFOIR/DZlZXJFwdpDWOjpZl5AB5Hpj+OqC4MtyQ0LMEAJpKABMCbbzF82/tIBwbgzi2vnfnZ3WDv3FIVSqsAYPDGzj6/1AFIIOywZCPPSmZ88IC7yq70K3yCFD+F+FBnhptzofVrhKhnyKRqFY38KDmPNe6ZRNpYbMr39tqIAWyj/QpSAH+hURsvAcCdFakLvbSTtFPNXNufwbm5E9zRtwemHF5rfFRUg1JpggsKbXGuMhx68IA7Aae5ql05uNJUVcKD0PfuY1MmQHhFSQ0P29o3fdPbU9kUFooWOoOwSI1jANMC+HYN4F9p3mJ43z/QBgZghe0/iTUUo4QHRg2jgZlpQ4SO+zeg0usI1mfl165EEF0UwFxWSA8IXXmr9Nx78IC7+zTpXHZ0l9GaO5D6SyGbKg6Dzp8ZpdWssDCeXAwknysavoRJ1dgnDMJOGQPYFYA/o77FgJJC+EIBrGphB/RPohpLt3QfQpMaiiC9so+OdTcakvm8SpOVVFfQvK49UFmKpkzVy9uHB6zo/QXt0NS9klYO5NgEMjLLmyoRGxLHad1k2k4jyjsoI31TImvmcbz87GfXKEJEaTMrcDbmKQPYAwD/D9MD/oEBTK8aV1dFyjCVSJU28sRuBr822TURHHRHxsFKWytICa3mxI5CTwGf3YsHrLplzUthu5KWDqRxVvoq8LMq1c7zWZPPZpksbs2ghfJAhWmB23IEs6aqqvJOqqpuZlnhmmIM4EEC+INHMzU8AKsTUGTWFaUSCSA5Usc3UWZyZvMY/OMiVeHEGdpnmQAYmcBTiN3QiwesTjmTk05DL4iU15CntB9ILWjt3sbm4HzssSEl+vAgd1AMYCqhAPDmWwwe9O0eIIBBCSj5qiHiBnsF8H5IKzkGcou1mAOSYESUKrNPr+1WtnXA8OHWeBp8CnLc+/GAIcsq58n2xNzlPpuhaPjOD+yZwHgPPuwXPmIMUPPNAKaSh8P3HxIA/8wARolPAK6KqjJJ4jhe3XVWdQOOUeklx+0DM1GX6jps98tTSO2Hjtehc7em4fEHWPXA2wt6vPGAYcsqV5eqsRDh/QQGwWohG9BtqnWP42DWp5afIk712EsCv2cAewPgH0neYtB5eIMBbHf9pROj0h0/2BUpsqyp7hT2UsL7BJiVbdBkEt8yOKQBcHf3Eo1fGQOvrnvygOETKFfGXpbls+U/8HtIjAziy/6U/CnuiS4GCTIGsCsA/5OkFTQD2FCOSfevdr9Bs/IcDWW9TnuxXto2hmgNeYQQhm7rmuKPB0x7y4riQI6u+tLxN8iqy0sCKy8JPAXw0c4A+Lf1tS1mK+hfDG7eGMBP5ILy2IW+qg/NW8MTsjEHqeWA2+t4PPKAiTqPYDqQwdVu8Jf2sQ8yU5w9YCq5JADwTxutoBcMYP+Cb0a5MYcuzpVu2qlOx2BdhTqyun+cHKlOnhceMB3f0AA2utgN/vbjzctEgf237AHvDIC3tIK+YQB7d1wNiytcZKRq3xqe0AFYXeTaLnmpPnleeMBkBM7xABZc7AZ/l0fa+Y22jJXpJGcM4F7khBLAXzwC3VABTBWykoa5MQ7yYfSjlqOCDsCGT60upbsxiVceMJGhN8EEmPtqJBr+urcl7h4mubS5m2EADwjAf90E8LcMYM8ILI1zU8kJbJK1c0gJ4JUXrN29MFP1BfPLAyYh8AQZYGnhVL1PQqq5Do5djuP+rkm1vhMGsA8A/oDZCrpgAGMIwQvxMvZKU9vyF24VmObjawaiAW05PfOACdYVH2BOU4inIeGZjtxdBN8cwQz59wzgHuT1/Uj+gAhgL1tBDxnA+HpnYdUbgTQfxrBqBRqENi+IC6IUqDQlqCOnbx4w+rrOCQAWOWvJIafE+sjVSH43gw7MccYAHiKAPzCA/YxC27omdJ2JzNUe0Eixq0iP6pni18h8DnvJ1T8PGPdukghgQe1GtS9i6jMduAmof+XHq8JEHdfAngI43BkAf4cI4C2toM8YwB6FB+1dE6o7rIVF16SxAwCv/OCkalrsj6ypSgH++RvaUPYOYMR1XZxTfWPiInibu/CtxvROsCx1wkSnDGDn8g0hgH1qBT1wACOGB2WJoalJ6oHtPHOQD4zSky0UUVrVzepduEwWq+aMq17cj22SBwxgtNuOCeGJF+ROsJy60ezimNgJzmM9I/WcAdwTgP+0vrelaAXNAPbHOcmRYmsEt3G2ag+S2ILdFDUMQ8OfuAHghQ8AxlnXOa1mJHYdc3fqinQkW0xtVRD6aFAA9qDDsbW8IgTwP3yaqKEDGOdpAImnGrHD0Ai3boDWzf6c2Ss/AYywrosyJP/GjE6rT11uEUIneLLlQKn6rbRVPrMHTCX7+AD+uAFgDzpRbgfwzaDWSlxQnEkLZwkzZwdFaQdqI2XoAHZQ0WcZhp67mOKAClxz1xskqElGkp/D1aDaJWEPmBjA368B/Gk3W0HvBc0WmQ5stewiVjm2ZxJgRdDkHCvqp6zXHRiAN7bsexdnxYJueexo/kYECJbzuIedEOEjuN2eVSVvbN9fB3fJDt79HT5/HwH85zU1PxG0gvYi0iuCzT+Ds6AsahfkVFB8D0ZOKqra60RwXnqzlFegcEwQiqd/HNGtxlb8JOFb3EC0bOKeFAIygrN5+zZR1SJtbxEfCC9lBwA8IgTwF4dhsxcjhhGrjOpmK7BVHlmJ7nWIdLZFNWd56dGJDWAA7k1MljV3iV9QvEMHv1UYDmu6zVZBVdG4CFnJDhrAW1pBv+V5xsWLX5oxqmaFsdNB9GUiSuumyYpH9s7L2DN7ufA9ISGqM7/xeydJiuEGy34+/okmRjEm5ETZB2ZfVYzAKtalDfmwbngA/mGzFfQ7nmdcuiQ6EUIJ7c1k4wanjZGtThvzW0WpoiRJIhH6evC8zgjUMfXyvsK3S1urtmRwPvVigwjhZiCqV6XOWMM61APFMwB/JmgFzStKoRtBhzWjp+/jTkqqGVx/yGxSihd98IaRkh+lgOhGlpdxz59ZzYx93yr2aFekxqFo+EBUtUit1cAsdAD+iAbgLZ0oeUFpGFx3K8esqRy7JUtPuGpUGF71jUrES1+90WCK0qPlPuvyuuZeWFJBlNS6NyFLwyGJvdsYSZ3pQlgu7WyNo65qSXkT7rG4kgdriADAP+9SuZavEE6WxCu2acUq6evSMxBRlNy1asyyJ0oia1ZfFQvB6zYkAN/TrdpC4SV7E59WU4ioWu46mL+4tE493YlBILptnuf2bKk7ELNaJBZCAK/bV/2K34lywbNMrniSpCyrqirLMvFKJwYiFKvyGV6kZ7LfR4sNa8vqYZulycqQ8nVRl9bC0vzLsmLTMi3u+nZXZez/hhTLUXQaEzJrjEeiaKHDZSvu5JIMwH8bZr8pFhYH8sp9k8kXZ5VGqwy8ryWKBhZ+Ce6GUK86sOQP0jR1tRpLbBPh6r4G5pClQ3loMrYOHP+I34nymmeZheWpfMNxPxYwL5cSiru/IU61cmctEpuC7gH82zp1Cq0Px395PVlYWuRgQ+2940lh6XH/sQPc50IQAPjfrFlYWFrkNZdfsvTpVLe3pDzn2ekRwB/wG2GxZmFheSYnDGCWPqW1FolTdpzKw13UH7EAvO7D8VOxQ682srDgyqYDcsSTwuJQ9rkRlg/yigrA60ZYkieZheWpbElDZTuVxalcsAPsjx303Zqb6I2weEVZWJ4DuODUFxbvjEAOxDiXh448368B/Am7DwdXIbGwbD92XwOYJ4XFsfO15RqYtbVrM+gZgG2fQ/r4f/bu4LeJ9AoAuJIl9zgBziEJOa8wsSqVwzYEn1uc+F65WOrCX5AeexmH40ptgL2t1NLArRINoTck1Kr5o5qw2dgef07G9oxnxv79tHvgsGNp2Jk373vve99AALYLCeLvvsER+G4KU3ZHAlyUAJzWgcDdXUg/2IUEQyypvZG/LQlw7pqxAPyvtOdw+KaCmFXzd8nfYtNJhHmrp3og8OA2YM0lFNnCgFxSD5UacnDLONSCrEIcpXMaw+A2YLUtiqzRqlX7/5nGW6hpEiVFsNGXAEuWpu9u7Dik1+nsQnqpqkAZ1PNYDF4w/4BC6NuLJAHOwWrsOKTDdHYhHaptUQZbebRDDe5CMoeDXPSMpLRYmYelVIdBRwO7kHzZU2R389gQtOQIGgrijkWYXF2W4X+VSgD+0+AupDW3mAL7Jo9YuGobMEWxYSNcnhZiw6A76fRgffBioQyW8hhGsGUbMIWJAE0JcJ63/+cawPNUJnG8HdiF5MVCod3Kox+qaRswBXsEvKlzkuYkjqserE7Ni4UyCPRDfTuLvwnD3L8ovKy5D/nYigXgv6YxB+vQ9kZKIbAj6EHWv7lkFxJFegbqBsHk525sEsdhGj1Yf9aDRTnUpl+PvWsXEkWyWNOFn5tvYpM4XqZRAv7gkDXKoTn9juSmJmgK5Y4ZHLm5FdsIPEEX1slAD5Y5WBTc1tTboBdqmqAplAW3IL97H9uHNH4RuFsCfmnEPCWxOvWCbKDx2nMCc6oZ24d0OPkuYHOwKIulqbckB0rAv/X3APMp3gb9cvIV6B8M2KMkAvloxoWTZh6zP4BCWo11YY1bBO6uQEd/U9qiJAKbcluz9YNAccWPYxi3CNxdgb4aw6G0ReHVppyQBorOPlRhzlOAP05aBD4ZLAGvubsUXX3KXVh1PVhALAXoFoE7E07hiP6iBExpBPYhZTlANbACrVcR5j4FOJpsHHR3CoddwJTIN9NdEr7TdhgwcGU1XgQeZw364GhwF/C37i2FF2iDznIyZF0JGOhaiheBx1mD/kc3Af5RCZjyCBzHkOG+3NAKtBIwzK/Ld0K3CDzGGnRPAny1CcmAW8qgOc2dwIGKsw9VmGe1+E7gw0kSYHMoKZVATMzs2zEwB1oJGOZaPV4E7kzQAt1dgf7OnaUEVqeYlAZasPQqwly7HE77fTT2LI6TaLAH2ngfSiHUhZXVRqRAC5ZeRZhrl11YraNx50H3LEBHhz7sKZXQsnBGa9ChWK8EDHPtsgur9Z8x27B6F6CjD1agKZf61GZjhH7JJiSYb5cpwPNorBS4twM66lzlEMvuK6UQKgI/mFoC/Dt/ATDXLvtAXxyNkwL3xd9uC9bv3VbKIRQXM2lNDiXArTV/ASAF6OuDHiEF7m3AijpfrEBTMqEicBaJaTABtgINUoD4GnTSFPjgYxRMgL1XKI0plWZDP5Ph0C2gVClATx901Pn76OvPPQmwyhalESoCp7+EE9oDbAoHUB9cg45eJ+l/7o+/3QTYe4XyWJzG2nBwodtmPeCXFOBFNNIidP/yc28C7L1CeSw0p5ACP263HQUMDLpqD3kbJV+EPj6Jxd/on94rlPkDtD8FXk7zJ4IL0DbrAd3lsedR0gh8EE9/e4ZgacGinB+gmTVChxegHVgC9JwIc5IsAh+8OxqIv1dToCXAlExwDTrFLboL4QVorRLA1TjodvvX/UXd0+ThN/q3hTVK6m4720XocPyVAAMXX+jtYAocdd4MJsHvPobCb/S6+175jRtKqYTXoFMbSLkRvrwpWMCFejgFvkiCe0PwwfGnYPSNope1jLpXYIr///d7msrFww1Y9goAP1sdkgJfhOBXn46Pjw/O//308VU0RHcHkgSY8hkWI9OIwJtDru0gQuCr7iyC74MB9qjTia7R+cl0W0psSJdyuzV5BL7flgAD1+quwf03Gllv/G1952ZSOhvDwuSD5cki++NhF1YBBi5d9UH3nUqY0E9Zn6QK2VocFifbDyeJwIuNodfVAg388qXeXYN7PkH+awsS5VQfGimfjd/UcLs29Kr2AANXttpjLkL39l85BomZS4Hb7b3KWJdceXLNNbUqAld6tkK23o4Qf998cb44s/UFOpiu7oyery7cr11zRQ8K0KNnDe7FSeL4e1rTWMKsp8DtdnVntCy4stm49noeFKDH7Z7Xw6OEjVgv32ssYUZsXBsx2629e4nT4JVrs9/UJnwAs6LvVNREEbhz+iXLE9xgqinwDUGz3dp+miQGr2zu33QlDwrQr28aUIJV6DefnW7KrD4AQ2zvrd+7ZjG6srLbaN14kWdrbjYwPAVuP/p4Q/h9b7IAs6XeTqS1v7uzvl6pdAPxwnKlsrK++6RRS3QBHdDA9RlA63/XZr81rxVmzGKy+PlVrVXdrjYa++ca56rV5P+pAjBwYwYwLAl+dfrZa4WZ/wTNiAIwEDBwLOrZYAh+9en95wxm5kL+Fjayj786JYCgwWEEj44/9jREvzk9q2Yysx4KEYGbmcffNXcZCAkWwVpnZ8fH706Pz84+tzM6MwYK8gQ0xV8gH7fDY4C0lTAvT0BN/AXyMVYRbMd9QwROsIFJ/AWuMfoSXMv+I0Rg+S8wqZGLYA/vuWnMVATOqA78B/EXSDUBeLrsljHnH6GJaFQEUo3A29JfZs/Ck/TLvxolgARWkiYAz8Y4pxxKEIE3Uy4EP/OlCqQYgVvCLzNr8XGa6e9DjwqQ9O3TuPGdUt3zTc8s22ykFX8VaoAR3LQEt71TcZOY74cgcfVX+guMZGX4939r2yuFeVCZPAS3bBMAxvj+bwxJfi2oMe9PQdLFZ4UaYLyXz8purBurtb9zzwc9c5UFrzwZNw1+uO5hASaJwfv71WqrWq029ve8T5jTNLg68tKzLkUgjfdP5ZzbwDznwZu7jeSJcGt/956PVQBIw3JlfXc/QRCu7q77XAWAlFPhlfMw3GhUq61Y2G1Vq/t7O+sVmS8AZJQKV9bXN3d3v7ZHXNjeP//D7nnwrSy4OwAAAAAAAAAAAAAAAAAAAAAAAAAAAAAAAAAAAAAAAAAAAAAAAAAAAAAAAAAAAAAAAAAAAAAAAAAAAAAAAAAAAAAAAAAAAAAAAAAAAAAAAAAAAAAAAAAAAAAAAAAAAAAAAAAAAAAAAAAAAAAAAAAAAAAAAAAAAAAAAAAAAAAAAAAAAAAAAAAAAAAAAAAAAAAAAAAAAAAAAAAAAAAA/2cPDgQAAAAAgPxfG0FVVVVVVVVVVVVVVVVVVVVVVVVVVVVVVVVVVVVVVVVVVVVVVVVVVVVVVVVVVVVVVVVVVVVVVVVVVVVVVVVVVVVVVVVVVVVVVVVVVVVVVVVVVVVVVVVVVVVVVVVVVVVVVVVVVVVVVVVVVVVVVVVVVVVVVVVVVVVVVVVVVVVVVVVVVVVVVVVVVVVVVVVVVVVVVVVVVVVVVVVVVVVVVVVVVVVVVVVVVVVVVVVVVVVVVVVVVVVVVVVVVVVVVVVVVVVVVVVVVVVVVVVVVVVVVVVVVVVVVVVVVVVVVVVVVVVVVVVVVVVVVVVVVVVVVVVVVVVVVVVVVVVVVVVVVVVVVVVVVVVVVVVVVVVVVVVVVVVVVVVVVVVVVVVVVVVVVVVVVVVVVVVVVVVVVVVVVVVVVVVVVVVVVVVVVVVVVVVVVVVVVVVVVVVVVVVVVVVVVVVVVVVVVVVVVVVVVVVVVVVVVVVVVVVVVVVVVVVVVVVVVVVVVVVVVVVVVVVVVVVVVVVVVVVVVVVVVVVVVVVVVVVVVVVVVVVVVVVVVVVVVVVVVVVVVVVVVVVVVVVVVVVVVVVVVVVVVVVVVVVVVVVVVVVVVVVVVVVVVVVVVVVVVVVVVVVVVVVVVVVVVVVVVVVVVVVVVVVVVVVVVVVVVVVVVVVVVVVVVVVVVVVVVVVVVVVVVVVVVVVVhT04EAAAAAAA8n9tBFVVVVVVVVVVVVVVVVVVVVVVVVVVVVVVVVVVVVVVVVVVVVVVVVVVVVVVVVVVVVVVVVVVVVVVVVVVVVVVVVVVVVVVVVVVVVVVVVVVVVVVVVVVVVVVVVVVVVVVVVVVVVVVVVVVVVVVVVVVVVVVVVVVVVVVVVVVVVVVVVVVVVVVVVVVVVVVVVVVVVVVVVVVVVVVVVVVVVVVVVVVVVVVVVVVVVVVVVVVVVVVVVVVVVVVVVVVVVVVVVVVVVVVVVVVVVVVVVVVVVVVVVVVVVVVVVVVVVVVVVVVVVVVVVVVVVVVVVVVVVVVVVVVVVVVVVVVVVVVVVVVVVVVVVVVVVVVVVVVVVVVVVVVVVVVVVVVVVVVVVVVVVVVVVVVVVVVVVVVVVVVVVVVVVVVVVVVVVVVVVVVVVVVVVVVVVVVVVVVVVVVVVVVVVVVVVVVVVVVVVVVVVVVVVVVVVVVVVVVVVVVVVVVVVVVVVVVVVVVVVVVVVVVVVVVVVVVVVVVVVVVVVVVVVVVVVVVVVVVVVVVVVVVVVVVVVVVVVVVVVVVVVVVVVVVVVVVVVVVVVVVVVVVVVVVVVVVVVVVVVVVVVVVVVVVVVVVVVVVVVVVVVVVVVVVVVVVVVVVVVVVVVVVVVVVVVVVVVVVVVVVVVVVVVVVVVVVVVVVVVVVVVVVVVVVVVVVVVVVVVUV9uBAAAAAAADI/7URVFVVVVVVVVVVVVVVVVVVVVVVVVVVVVVVVVVVVVVVVVVVVVVVVVVVVVVVVVVVVVVVVVVVVVVVVVVVVVVVVVVVVVVVVVVVVVVVVVVVVVVVVVVVVVVVVVVVVVVVVVVVVVVVVVVVVVVVVVVVVVVVVVVVVVVVVVVVVVVVVVVVVVVVVVVVVVVVVVVVVVVVVVVVVVVVVVVVVVVVVVVVVVVVVVVVVVVVVVVVVVVVVVVVVVVVVVVVVVVVVVVVVVVVVVVVVVVVVVVVVVVVVVVVVVVVVVVVVVVVVVVVVVVVVVVVVVVVVVVVVVVVVVVVVVVVVVVVVVVVVVVVVVVVVVVVVVVVVVVVVVVVVVVVVVVVVVVVVVVVVVVVVVVVVVVVVVVVVVVVVVVVVVVVVVVVVVVVVVVVVVVVVVVVVVVVVVVVVVVVVVVVVVVVVVVVVVVVVVVVVVVVVVVVVVVVVVVVVVVVVVVVVVVVVVVVVVVVVVVVVVVVVVVVVVVVVVVVVVVVVVVVVVVVVVVVVVVVVVVVVVVVVVVVVVVVVVVVVVVVVVVVVVVVVVVVVVVVVVVVVVVVVVVVVVVVVVVVVVVVVVVVVVVVVVVVVVVVVVVVVVVVVVVVVVVVVVVVVVVVVVVVVVVVVVVVVVVVVVVVVVVVVVVVVVVVVVVVVVVVVVVVVVVVVVVVVVVVVVVVVVXag0MCAAAAAEH/X3vDAAAAAAAAAAAAAAAAAAAAAAAAAAAAAAAANwFBXF0TmoykawAAAABJRU5ErkJggg==;" vertex="1" parent="1">
                    <mxGeometry x="293" y="400.88" width="90" height="56.25" as="geometry"/>
                </mxCell>
                <mxCell id="30" value="&lt;font style=&quot;font-size: 26px;&quot; face=&quot;Verdana&quot;&gt;System Architecture&lt;/font&gt;" style="text;html=1;strokeColor=none;fillColor=none;align=center;verticalAlign=middle;whiteSpace=wrap;rounded=0;" vertex="1" parent="1">
                    <mxGeometry x="158" y="535" width="304" height="50" as="geometry"/>
                </mxCell>
            </root>
        </mxGraphModel>
    </diagram>
</mxfile>